SplineFontDB: 3.2
FontName: MScore
FullName: MScore for scores
FamilyName: MScore
Weight: Regular

StartChar: .notdef
Encoding: 65536 -1 0
GlifName: _notdef
Width: 371
Flags: W
HStem: 0 34<68 271> 648 34<68 271>
VStem: 34 34<34 648> 271 34<34 648>
LayerCount: 2
Fore
SplineSet
34 0 m 1,0,-1
 34 682 l 1,1,-1
 305 682 l 1,2,-1
 305 0 l 1,3,-1
 34 0 l 1,0,-1
68 34 m 1,4,-1
 271 34 l 1,5,-1
 271 648 l 1,6,-1
 68 648 l 1,7,-1
 68 34 l 1,4,-1
EndSplineSet
Validated: 1
EndChar

StartChar: plus
Encoding: 43 43 2
GlifName: plus
Width: 256
GlyphClass: 2
Flags: W
HStem: 230 52<7.73523 102 154 248.265>
VStem: 102 52<128.281 230 282 383.719>
LayerCount: 2
Fore
SplineSet
128 128 m 128,-1,1
 118 128 118 128 110 136 c 128,-1,2
 102 144 102 144 102 154 c 2,3,-1
 102 230 l 1,4,-1
 26 230 l 2,5,6
 16 230 16 230 8 238 c 128,-1,7
 0 246 0 246 0 256.5 c 128,-1,8
 0 267 0 267 7.5 274.5 c 128,-1,9
 15 282 15 282 26 282 c 2,10,-1
 102 282 l 1,11,-1
 102 358 l 2,12,13
 102 368 102 368 110 376 c 128,-1,14
 118 384 118 384 128 384 c 128,-1,15
 138 384 138 384 146 376 c 128,-1,16
 154 368 154 368 154 358 c 2,17,-1
 154 282 l 1,18,-1
 230 282 l 2,19,20
 240 282 240 282 248 274 c 128,-1,21
 256 266 256 266 256 255.5 c 128,-1,22
 256 245 256 245 248.5 237.5 c 128,-1,23
 241 230 241 230 230 230 c 2,24,-1
 154 230 l 1,25,-1
 154 154 l 2,26,27
 154 144 154 144 146 136 c 128,-1,0
 138 128 138 128 128 128 c 128,-1,1
EndSplineSet
Validated: 1
EndChar

StartChar: comma
Encoding: 44 44 3
GlifName: comma
Width: 117
GlyphClass: 2
Flags: W
HStem: -161 279<39 53>
VStem: 68 50<-61.5758 69>
LayerCount: 2
Fore
SplineSet
49 -102 m 128,-1,1
 68 -63 68 -63 68 -41.5 c 128,-1,2
 68 -20 68 -20 57.5 -9.5 c 128,-1,3
 47 1 47 1 34 6 c 128,-1,4
 21 11 21 11 10.5 24.5 c 128,-1,5
 0 38 0 38 0 60 c 128,-1,6
 0 82 0 82 17 100 c 128,-1,7
 34 118 34 118 59 118 c 128,-1,8
 84 118 84 118 101 99 c 128,-1,9
 118 80 118 80 118 58 c 0,10,11
 118 -28 118 -28 58 -153 c 0,12,13
 53 -161 53 -161 46 -161 c 128,-1,14
 39 -161 39 -161 34.5 -156.5 c 128,-1,15
 30 -152 30 -152 30 -146.5 c 128,-1,0
 30 -141 30 -141 49 -102 c 128,-1,1
EndSplineSet
Validated: 1
EndChar

StartChar: hyphen
Encoding: 45 45 4
GlifName: hyphen
Width: 169
GlyphClass: 2
Flags: W
HStem: 156 29<0.00366211 170.996>
VStem: 0 171<156 185>
LayerCount: 2
Fore
SplineSet
156 156 m 2,0,-1
 15 156 l 2,1,2
 0 156 0 156 0 170.5 c 128,-1,3
 0 185 0 185 15 185 c 2,4,-1
 156 185 l 2,5,6
 171 185 171 185 171 170.5 c 128,-1,7
 171 156 171 156 156 156 c 2,0,-1
EndSplineSet
Validated: 1
EndChar

StartChar: period
Encoding: 46 46 5
GlifName: period
Width: 117
GlyphClass: 2
Flags: W
HStem: 0 118<13.7812 104.219>
VStem: 0 118<13.7812 104.219>
LayerCount: 2
Fore
SplineSet
0 59 m 128,-1,1
 0 84 0 84 18 100 c 0,2,3
 34 118 34 118 59 118 c 128,-1,4
 84 118 84 118 100 100 c 0,5,6
 118 83 118 83 118 58.5 c 128,-1,7
 118 34 118 34 100 18 c 0,8,9
 84 0 84 0 59 0 c 128,-1,10
 34 0 34 0 18 18 c 0,11,0
 0 34 0 34 0 59 c 128,-1,1
EndSplineSet
Validated: 1
EndChar

StartChar: uniE09A
Encoding: 57498 57498 6
Width: 1024
GlyphClass: 2
LayerCount: 2
Back
SplineSet
368 28 m 0,0,1
 342 28 342 28 316 48 c 0,2,3
 291 67 291 67 291 104 c 0,4,5
 291 135 291 135 312 159 c 0,6,7
 332 183 332 183 365 183 c 0,8,9
 376 183 376 183 379 182 c 1,10,11
 333 241 333 241 256 243 c 0,12,13
 224.5 243 224.5 243 202 234 c 0,14,15
 180 224 180 224 168 210 c 0,16,17
 157.5 196.5 157.5 196.5 150 168 c 0,18,19
 142 139 142 139 142 116 c 0,20,21
 140 100 140 100 140 52 c 2,22,-1
 140 0 l 1,23,-1
 140 -52 l 2,24,25
 140 -100 140 -100 142 -117 c 0,26,27
 144 -146 144 -146 150 -169 c 0,28,29
 158 -197 158 -197 168 -210 c 0,30,31
 180 -224 180 -224 202 -234 c 0,32,33
 223 -244 223 -244 256 -244 c 0,34,35
 316 -244 316 -244 358 -200 c 0,36,37
 401 -157 401 -157 418 -89 c 0,38,39
 421 -79 421 -79 430 -79 c 0,40,41
 443 -79 443 -79 443 -91 c 0,42,43
 443 -98.5 443 -98.5 437 -118 c 0,44,45
 431 -137 431 -137 416 -162 c 0,46,47
 404 -186 404 -186 382 -213 c 0,48,49
 362 -236 362 -236 328 -253 c 0,50,51
 296 -269 296 -269 256 -269 c 0,52,53
 211 -269 211 -269 164 -256 c 0,54,55
 118 -240 118 -240 83 -212 c 0,56,57
 44 -181 44 -181 22 -128 c 0,58,59
 0 -70 0 -70 0 0 c 0,60,61
 0 122 0 122 66 194 c 0,62,63
 130 268 130 268 256 268 c 0,64,65
 338 268 338 268 386 212 c 0,66,67
 436 156 436 156 436 101 c 0,68,69
 436 69 436 69 416 49 c 0,70,71
 398 28 398 28 368 28 c 0,0,1
EndSplineSet
Fore
Validated: 1
EndChar

StartChar: uniE0A2
Encoding: 57506 57506 7
GlifName: uniE_0A_2
Width: 506
GlyphClass: 2
Flags: W
HStem: -141 26<229.406 329.161> 115 26<178.911 276.918>
VStem: 0 150<-51.4432 59.6467> 357 150<-58.7953 51.5723>
LayerCount: 2
Fore
SplineSet
175 -56 m 0,0,1
 219 -115 219 -115 288 -115 c 128,-1,2
 357 -115 357 -115 357 -22 c 0,3,4
 357 22 357 22 332 56 c 0,5,6
 289 115 289 115 216 115 c 0,7,8
 184 115 184 115 167 88.5 c 128,-1,9
 150 62 150 62 150 20 c 128,-1,10
 150 -22 150 -22 175 -56 c 0,0,1
76 100 m 0,11,12
 151 141 151 141 256.5 141 c 128,-1,13
 362 141 362 141 434.5 99 c 128,-1,14
 507 57 507 57 507 -1 c 128,-1,15
 507 -59 507 -59 432 -100 c 128,-1,16
 357 -141 357 -141 252.5 -141 c 128,-1,17
 148 -141 148 -141 74 -99 c 128,-1,18
 0 -57 0 -57 0 2 c 128,-1,19
 0 61 0 61 76 100 c 0,11,12
EndSplineSet
Validated: 1
EndChar

StartChar: uniE0A3
Encoding: 57507 57507 8
GlifName: uniE_0A_3
Width: 355
GlyphClass: 2
Flags: W
HStem: -141 32<42.5437 122.043> 109 32<234.539 312.31>
VStem: 0 33<-99.5717 -32.2754> 323 33<31.7589 99.4023>
LayerCount: 2
Fore
SplineSet
76 -109 m 0,0,1
 105 -109 105 -109 197.5 -49 c 128,-1,2
 290 11 290 11 306.5 31.5 c 128,-1,3
 323 52 323 52 323 68 c 128,-1,4
 323 84 323 84 310 96.5 c 128,-1,5
 297 109 297 109 280 109 c 0,6,7
 250 109 250 109 157.5 48.5 c 128,-1,8
 65 -12 65 -12 49 -32 c 128,-1,9
 33 -52 33 -52 33 -68 c 128,-1,10
 33 -84 33 -84 45.5 -96.5 c 128,-1,11
 58 -109 58 -109 76 -109 c 0,0,1
270 141 m 0,12,13
 356 141 356 141 356 67 c 0,14,15
 356 31 356 31 335 -16.5 c 128,-1,16
 314 -64 314 -64 279 -89 c 0,17,18
 202 -141 202 -141 86 -141 c 0,19,20
 0 -141 0 -141 0 -67 c 0,21,22
 0 -34 0 -34 20.5 15 c 128,-1,23
 41 64 41 64 77 89 c 0,24,25
 154 141 154 141 270 141 c 0,12,13
EndSplineSet
Validated: 1
EndChar

StartChar: uniE101
Encoding: 57601 57601 9
GlifName: uniE_101
Width: 439
GlyphClass: 2
Flags: W
LayerCount: 2
Fore
SplineSet
10 -269 m 2,0,1
 0 -269 0 -269 0 -258 c 0,2,3
 0 -254 0 -254 1 -253 c 2,4,-1
 317 264 l 2,5,6
 320 269 320 269 327 269 c 2,7,-1
 429 269 l 2,8,9
 439 269 439 269 439 258 c 1,10,11
 439 258 439 258 438 256 c 2,12,13
 438 254 438 254 437 253 c 2,14,-1
 122 -264 l 2,15,16
 119 -269 119 -269 113 -269 c 2,17,-1
 10 -269 l 2,0,1
EndSplineSet
Validated: 3073
EndChar

StartChar: uniE102
Encoding: 57602 57602 10
GlifName: uniE_102
Width: 773
GlyphClass: 2
Flags: W
HStem: -269 71<120 411> 198 71<360 652>
LayerCount: 2
Fore
SplineSet
120 -198 m 1,0,-1
 411 -198 l 1,1,-1
 652 198 l 1,2,-1
 360 198 l 1,3,-1
 120 -198 l 1,0,-1
772 258 m 1,4,5
 770 254 770 254 770 253 c 2,6,-1
 455 -264 l 2,7,8
 452 -269 452 -269 445 -269 c 2,9,-1
 10 -269 l 2,10,11
 0 -269 0 -269 0 -258 c 0,12,13
 0 -254 0 -254 1 -253 c 2,14,-1
 317 264 l 2,15,16
 320 269 320 269 327 269 c 2,17,-1
 762 269 l 2,18,19
 772 269 772 269 772 258 c 1,4,5
EndSplineSet
Validated: 1
EndChar

StartChar: uniE103
Encoding: 57603 57603 11
GlifName: uniE_103
Width: 601
GlyphClass: 2
Flags: W
HStem: -269 71<120 240> 198 71<360 480>
LayerCount: 2
Fore
SplineSet
120 -198 m 1,0,-1
 240 -198 l 1,1,-1
 480 198 l 1,2,-1
 360 198 l 1,3,-1
 120 -198 l 1,0,-1
10 -269 m 2,4,5
 0 -269 0 -269 0 -258 c 0,6,7
 0 -254 0 -254 1 -253 c 2,8,-1
 317 264 l 2,9,10
 320 269 320 269 327 269 c 2,11,-1
 590 269 l 2,12,13
 600 269 600 269 600 258 c 0,14,15
 600 254 600 254 599 253 c 2,16,-1
 283 -264 l 2,17,18
 280 -269 280 -269 273 -269 c 2,19,-1
 10 -269 l 2,4,5
EndSplineSet
Validated: 1
EndChar

StartChar: uniE1B0
Encoding: 57776 57776 12
GlifName: uniE_1B_0
Width: 347
GlyphClass: 2
Flags: W
HStem: -138 32<41.3617 119.02> 106 31<229.658 305.123>
VStem: 0 32<-96.4475 -30.9489> 315 32<30.8664 96.2756>
LayerCount: 2
Fore
SplineSet
305 37 m 0,0,1
 315 47 315 47 315 64.5 c 128,-1,2
 315 82 315 82 302 94 c 128,-1,3
 289 106 289 106 276.5 106 c 128,-1,4
 264 106 264 106 261 105 c 0,5,6
 235 98 235 98 147.5 41.5 c 128,-1,7
 60 -15 60 -15 46 -33 c 128,-1,8
 32 -51 32 -51 32 -66.5 c 128,-1,9
 32 -82 32 -82 45 -94 c 128,-1,10
 58 -106 58 -106 70.5 -106 c 128,-1,11
 83 -106 83 -106 86 -105 c 0,12,13
 117 -96 117 -96 202.5 -40.5 c 128,-1,14
 288 15 288 15 305 37 c 0,0,1
264 137 m 0,15,16
 303 137 303 137 324 119 c 0,17,18
 347 102 347 102 347 70.5 c 128,-1,19
 347 39 347 39 337 9 c 0,20,21
 314 -59 314 -59 272 -87 c 0,22,23
 195 -138 195 -138 84 -138 c 0,24,25
 46 -138 46 -138 23 -119 c 128,-1,26
 0 -100 0 -100 0 -72.5 c 128,-1,27
 0 -45 0 -45 11 -9 c 0,28,29
 34 59 34 59 75 87 c 0,30,31
 151 137 151 137 264 137 c 0,15,16
EndSplineSet
Validated: 1
EndChar

StartChar: uniE1B1
Encoding: 57777 57777 13
GlifName: uniE_1B_1
Width: 347
GlyphClass: 2
Flags: W
HStem: -138 275<131.622 215.045>
LayerCount: 2
Fore
SplineSet
264 137 m 0,0,1
 303 137 303 137 324 119 c 0,2,3
 347 102 347 102 347 70.5 c 128,-1,4
 347 39 347 39 337 9 c 0,5,6
 314 -59 314 -59 272 -87 c 0,7,8
 195 -138 195 -138 84 -138 c 0,9,10
 46 -138 46 -138 23 -119 c 128,-1,11
 0 -100 0 -100 0 -72.5 c 128,-1,12
 0 -45 0 -45 11 -9 c 0,13,14
 34 59 34 59 75 87 c 0,15,16
 151 137 151 137 264 137 c 0,0,1
EndSplineSet
Validated: 1
EndChar

StartChar: uniE1B2
Encoding: 57778 57778 14
GlifName: uniE_1B_2
Width: 355
GlyphClass: 2
Flags: W
HStem: -115 44<45 311> 71 44<45 311>
VStem: 0 45<-71 71> 311 44<-71 71>
LayerCount: 2
Fore
SplineSet
45 71 m 1,0,-1
 45 -71 l 1,1,-1
 311 -71 l 1,2,-1
 311 71 l 1,3,-1
 45 71 l 1,0,-1
23 115 m 2,4,-1
 334 115 l 2,5,6
 343 115 343 115 349 108.5 c 128,-1,7
 355 102 355 102 355 93 c 2,8,-1
 355 -93 l 2,9,10
 355 -102 355 -102 349 -108.5 c 128,-1,11
 343 -115 343 -115 334 -115 c 2,12,-1
 23 -115 l 2,13,14
 14 -115 14 -115 7 -108.5 c 128,-1,15
 0 -102 0 -102 0 -93 c 2,16,-1
 0 93 l 2,17,18
 0 102 0 102 7 108.5 c 128,-1,19
 14 115 14 115 23 115 c 2,4,-1
EndSplineSet
Validated: 1
EndChar

StartChar: uniE1B3
Encoding: 57779 57779 15
GlifName: uniE_1B_3
Width: 336
GlyphClass: 2
Flags: W
HStem: -115 230<7e-08 330.296>
VStem: 0 337<-108.296 114.994>
LayerCount: 2
Fore
SplineSet
23 115 m 2,0,-1
 314 115 l 2,1,2
 323 115 323 115 330 108.5 c 128,-1,3
 337 102 337 102 337 93 c 2,4,-1
 337 -93 l 2,5,6
 337 -102 337 -102 330.5 -108.5 c 128,-1,7
 324 -115 324 -115 314 -115 c 2,8,-1
 23 -115 l 2,9,10
 14 -115 14 -115 7 -108.5 c 128,-1,11
 0 -102 0 -102 0 -93 c 2,12,-1
 0 93 l 2,13,14
 0 102 0 102 7 108.5 c 128,-1,15
 14 115 14 115 23 115 c 2,0,-1
EndSplineSet
Validated: 1
EndChar

StartChar: uniE1B4
Encoding: 57780 57780 16
GlifName: uniE_1B_4
Width: 355
GlyphClass: 2
Flags: W
HStem: -115 44<45 252>
VStem: 0 45<-71 53>
LayerCount: 2
Fore
SplineSet
252 -71 m 1,0,-1
 45 53 l 1,1,-1
 45 -71 l 1,2,-1
 252 -71 l 1,0,-1
355 -91 m 128,-1,4
 355 -102 355 -102 349 -108.5 c 128,-1,5
 343 -115 343 -115 334 -115 c 2,6,-1
 23 -115 l 2,7,8
 14 -115 14 -115 7 -108.5 c 128,-1,9
 0 -102 0 -102 0 -93 c 2,10,-1
 0 93 l 2,11,12
 0 102 0 102 6.5 108.5 c 128,-1,13
 13 115 13 115 21 115 c 128,-1,14
 29 115 29 115 40 108 c 2,15,-1
 340 -71 l 2,16,3
 355 -80 355 -80 355 -91 c 128,-1,4
EndSplineSet
Validated: 1
EndChar

StartChar: uniE1B5
Encoding: 57781 57781 17
GlifName: uniE_1B_5
Width: 336
GlyphClass: 2
Flags: W
HStem: -115 230<7e-08 62.375>
VStem: 0 337<-108.296 -68.1875>
LayerCount: 2
Fore
SplineSet
327 -74 m 2,0,1
 337 -81 337 -81 337 -91.5 c 128,-1,2
 337 -102 337 -102 330.5 -108.5 c 128,-1,3
 324 -115 324 -115 314 -115 c 2,4,-1
 23 -115 l 2,5,6
 14 -115 14 -115 7 -108.5 c 128,-1,7
 0 -102 0 -102 0 -93 c 2,8,-1
 0 93 l 2,9,10
 0 102 0 102 6.5 108.5 c 128,-1,11
 13 115 13 115 21 115 c 128,-1,12
 29 115 29 115 35 112 c 2,13,-1
 327 -74 l 2,0,1
EndSplineSet
Validated: 1
EndChar

StartChar: uniE1B6
Encoding: 57782 57782 18
GlifName: uniE_1B_6
Width: 355
GlyphClass: 2
Flags: W
HStem: 71 44<103 311>
VStem: 311 44<-53 71>
LayerCount: 2
Fore
SplineSet
103 71 m 1,0,-1
 311 -53 l 1,1,-1
 311 71 l 1,2,-1
 103 71 l 1,0,-1
11 74 m 2,3,4
 0 80 0 80 0 91 c 128,-1,5
 0 102 0 102 6.5 108.5 c 128,-1,6
 13 115 13 115 23 115 c 2,7,-1
 334 115 l 2,8,9
 343 115 343 115 349 108.5 c 128,-1,10
 355 102 355 102 355 93 c 2,11,-1
 355 -93 l 2,12,13
 355 -101 355 -101 349 -108 c 128,-1,14
 343 -115 343 -115 334.5 -115 c 128,-1,15
 326 -115 326 -115 322 -112 c 2,16,-1
 11 74 l 2,3,4
EndSplineSet
Validated: 1
EndChar

StartChar: uniE1B7
Encoding: 57783 57783 19
GlifName: uniE_1B_7
Width: 336
GlyphClass: 2
Flags: W
HStem: -115 230<274.625 337>
VStem: 0 337<68.1875 108.296>
LayerCount: 2
Fore
SplineSet
10 74 m 2,0,1
 0 81 0 81 0 91.5 c 128,-1,2
 0 102 0 102 6.5 108.5 c 128,-1,3
 13 115 13 115 23 115 c 2,4,-1
 314 115 l 2,5,6
 323 115 323 115 330 108.5 c 128,-1,7
 337 102 337 102 337 93 c 2,8,-1
 337 -93 l 2,9,10
 337 -102 337 -102 330.5 -108.5 c 128,-1,11
 324 -115 324 -115 316 -115 c 128,-1,12
 308 -115 308 -115 302 -112 c 2,13,-1
 10 74 l 2,0,1
EndSplineSet
Validated: 1
EndChar

StartChar: uniE1B8
Encoding: 57784 57784 20
GlifName: uniE_1B_8
Width: 336
GlyphClass: 2
Flags: W
HStem: -115 230<163 174>
VStem: 0 337<-11 11>
LayerCount: 2
Fore
SplineSet
75 6 m 1,0,-1
 179 -59 l 1,1,-1
 262 -6 l 1,2,-1
 158 59 l 1,3,-1
 75 6 l 1,0,-1
10 -18 m 2,4,5
 0 -11 0 -11 0 0 c 128,-1,6
 0 11 0 11 10 18 c 2,7,-1
 157 112 l 2,8,9
 163 115 163 115 168.5 115 c 128,-1,10
 174 115 174 115 180 112 c 2,11,-1
 327 18 l 2,12,13
 337 11 337 11 337 0 c 128,-1,14
 337 -11 337 -11 327 -18 c 2,15,-1
 180 -112 l 2,16,17
 174 -115 174 -115 168.5 -115 c 128,-1,18
 163 -115 163 -115 157 -112 c 2,19,-1
 10 -18 l 2,4,5
EndSplineSet
Validated: 1
EndChar

StartChar: uniE1B9
Encoding: 57785 57785 21
GlifName: uniE_1B_9
Width: 336
GlyphClass: 2
Flags: W
HStem: -115 230<127.141 209.859>
VStem: 0 337<-25.3438 25.3438>
LayerCount: 2
Fore
SplineSet
10 -18 m 2,0,1
 0 -11 0 -11 0 0 c 128,-1,2
 0 11 0 11 10 18 c 2,3,-1
 157 112 l 2,4,5
 163 115 163 115 168.5 115 c 128,-1,6
 174 115 174 115 180 112 c 2,7,-1
 327 18 l 2,8,9
 337 11 337 11 337 0 c 128,-1,10
 337 -11 337 -11 327 -18 c 2,11,-1
 180 -112 l 2,12,13
 174 -115 174 -115 168.5 -115 c 128,-1,14
 163 -115 163 -115 157 -112 c 2,15,-1
 10 -18 l 2,0,1
EndSplineSet
Validated: 1
EndChar

StartChar: uniE1BA
Encoding: 57786 57786 22
GlifName: uniE_1B_A_
Width: 355
GlyphClass: 2
Flags: W
HStem: -115 44<71 286>
LayerCount: 2
Fore
SplineSet
71 -71 m 1,0,-1
 286 -71 l 1,1,-1
 178 58 l 1,2,-1
 71 -71 l 1,0,-1
23 -115 m 2,3,4
 14 -115 14 -115 7 -108.5 c 128,-1,5
 0 -102 0 -102 0 -94.5 c 128,-1,6
 0 -87 0 -87 5 -79 c 1,7,-1
 161 108 l 2,8,9
 167 116 167 116 177.5 116 c 128,-1,10
 188 116 188 116 196 108 c 1,11,-1
 350 -79 l 1,12,13
 355 -87 355 -87 355 -94.5 c 128,-1,14
 355 -102 355 -102 349 -108.5 c 128,-1,15
 343 -115 343 -115 334 -115 c 2,16,-1
 23 -115 l 2,3,4
EndSplineSet
Validated: 1
EndChar

StartChar: uniE1BB
Encoding: 57787 57787 23
GlifName: uniE_1B_B_
Width: 336
GlyphClass: 2
Flags: W
HStem: -115 231<141.875 196.062>
VStem: 0 337<-108.297 -58.7656>
LayerCount: 2
Fore
SplineSet
23 -115 m 2,0,1
 14 -115 14 -115 7 -108.5 c 128,-1,2
 0 -102 0 -102 0 -94 c 128,-1,3
 0 -86 0 -86 5 -79 c 2,4,-1
 151 106 l 2,5,6
 158 116 158 116 169 116 c 128,-1,7
 180 116 180 116 187 106 c 2,8,-1
 332 -79 l 2,9,10
 337 -86 337 -86 337 -94 c 128,-1,11
 337 -102 337 -102 330.5 -108.5 c 128,-1,12
 324 -115 324 -115 314 -115 c 2,13,-1
 23 -115 l 2,0,1
EndSplineSet
Validated: 1
EndChar

StartChar: uniE1BC
Encoding: 57788 57788 24
GlifName: uniE_1B_C_
Width: 355
GlyphClass: 2
Flags: W
HStem: -115 44<97.7805 258.986> 71 44<45 311>
VStem: 0 45<-24.2188 71> 311 44<-23.1327 71>
LayerCount: 2
Fore
SplineSet
45 71 m 1,0,-1
 45 37 l 2,1,2
 45 -10 45 -10 84.5 -40.5 c 128,-1,3
 124 -71 124 -71 178 -71 c 128,-1,4
 232 -71 232 -71 271.5 -40.5 c 128,-1,5
 311 -10 311 -10 311 37 c 2,6,-1
 311 71 l 1,7,-1
 45 71 l 1,0,-1
0 93 m 2,8,9
 0 102 0 102 6.5 108.5 c 128,-1,10
 13 115 13 115 23 115 c 2,11,-1
 334 115 l 2,12,13
 343 115 343 115 349 108.5 c 128,-1,14
 355 102 355 102 355 93 c 2,15,-1
 355 37 l 2,16,17
 355 -29 355 -29 303 -72 c 128,-1,18
 251 -115 251 -115 178 -115 c 128,-1,19
 105 -115 105 -115 52 -72 c 0,20,21
 0 -28 0 -28 0 37 c 2,22,-1
 0 93 l 2,8,9
EndSplineSet
Validated: 1
EndChar

StartChar: uniE1BD
Encoding: 57789 57789 25
GlifName: uniE_1B_D_
Width: 336
GlyphClass: 2
Flags: W
HStem: -115 230<79.9927 257.524>
VStem: 0 337<-38.8174 108.296>
LayerCount: 2
Fore
SplineSet
0 93 m 2,0,1
 0 102 0 102 6.5 108.5 c 128,-1,2
 13 115 13 115 23 115 c 2,3,-1
 314 115 l 2,4,5
 323 115 323 115 330 108.5 c 128,-1,6
 337 102 337 102 337 93 c 2,7,-1
 337 37 l 2,8,9
 337 -26 337 -26 288 -72 c 1,10,11
 236 -115 236 -115 168.5 -115 c 128,-1,12
 101 -115 101 -115 50 -72 c 0,13,14
 0 -27 0 -27 0 37 c 2,15,-1
 0 93 l 2,0,1
EndSplineSet
Validated: 1
EndChar

StartChar: uniE1BE
Encoding: 57790 57790 26
GlifName: uniE_1B_E_
Width: 355
GlyphClass: 2
Flags: W
HStem: 71 44<89.086 267.309>
LayerCount: 2
Fore
SplineSet
178 -65 m 1,0,-1
 299 28 l 1,1,2
 247 71 247 71 178 71 c 128,-1,3
 109 71 109 71 57 28 c 1,4,-1
 178 -65 l 1,0,-1
178 115 m 128,-1,6
 227 115 227 115 268 96 c 0,7,8
 310 79 310 79 333 57.5 c 128,-1,9
 356 36 356 36 356 26 c 128,-1,10
 356 16 356 16 347 8 c 2,11,-1
 191 -111 l 2,12,13
 187 -115 187 -115 177.5 -115 c 128,-1,14
 168 -115 168 -115 164 -111 c 2,15,-1
 9 8 l 2,16,17
 0 16 0 16 0 26.5 c 128,-1,18
 0 37 0 37 22 58 c 0,19,20
 46 78 46 78 87.5 96.5 c 128,-1,5
 129 115 129 115 178 115 c 128,-1,6
EndSplineSet
Validated: 1
EndChar

StartChar: uniE1BF
Encoding: 57791 57791 27
GlifName: uniE_1B_F_
Width: 336
GlyphClass: 2
Flags: W
HStem: -115 230<134.328 202.34>
VStem: 0 337<-3.15625 54.3555>
LayerCount: 2
Fore
SplineSet
20 57 m 0,0,1
 41 78 41 78 82 96.5 c 128,-1,2
 123 115 123 115 163 115 c 0,3,4
 264 115 264 115 324 46 c 0,5,6
 337 31 337 31 337 23.5 c 128,-1,7
 337 16 337 16 329 8 c 1,8,-1
 182 -111 l 2,9,10
 178 -115 178 -115 168.5 -115 c 128,-1,11
 159 -115 159 -115 155 -111 c 2,12,-1
 8 8 l 2,13,14
 0 14 0 14 0 24.5 c 128,-1,15
 0 35 0 35 20 57 c 0,0,1
EndSplineSet
Validated: 1
EndChar

StartChar: uniE1C0
Encoding: 57792 57792 28
GlifName: uniE_1C_0
Width: 246
VWidth: 1000
GlyphClass: 2
Flags: W
HStem: -112 48<78 169> 64 48<42 205>
VStem: 0 246<94 110>
LayerCount: 2
Fore
SplineSet
169 -64 m 1,0,-1
 205 64 l 1,1,-1
 42 64 l 1,2,-1
 78 -64 l 1,3,-1
 169 -64 l 1,0,-1
177 -112 m 2,4,-1
 70 -112 l 2,5,6
 57 -112 57 -112 54 -101 c 2,7,-1
 1 92 l 1,8,9
 1 92 1 92 0 94 c 1,10,-1
 0 96 l 2,11,12
 0 112 0 112 16 112 c 2,13,-1
 231 112 l 2,14,15
 247 112 247 112 247 96 c 1,16,-1
 246 94 l 1,17,-1
 246 92 l 1,18,-1
 193 -101 l 2,19,20
 190 -112 190 -112 177 -112 c 2,4,-1
EndSplineSet
Validated: 1
EndChar

StartChar: uniE1C3
Encoding: 57795 57795 29
GlifName: uniE_1C_3
Width: 246
VWidth: 1000
GlyphClass: 2
Flags: W
HStem: -113 225<9 173.91>
VStem: 43 204<-58.2836 57.1691>
LayerCount: 2
Fore
SplineSet
16 112 m 0,0,1
 247 112 247 112 247 -0.5 c 128,-1,2
 247 -113 247 -113 16 -113 c 0,3,4
 9 -113 9 -113 4.5 -108 c 128,-1,5
 0 -103 0 -103 0 -96 c 128,-1,6
 0 -89 0 -89 5 -84 c 0,7,8
 43 -51 43 -51 43 0 c 128,-1,9
 43 51 43 51 5 84 c 0,10,11
 0 89 0 89 0 96 c 0,12,13
 0 112 0 112 16 112 c 0,0,1
EndSplineSet
Validated: 1
EndChar

StartChar: uniE1C4
Encoding: 57796 57796 30
GlifName: uniE_1C_4
Width: 246
VWidth: 1000
GlyphClass: 2
Flags: W
HStem: -112 224<217.312 247>
VStem: 214 33<-57 57>
LayerCount: 2
Fore
SplineSet
88 0 m 1,0,-1
 214 -57 l 1,1,-1
 214 57 l 1,2,-1
 88 0 l 1,0,-1
10 -15 m 2,3,4
 0 -10 0 -10 0 0 c 128,-1,5
 0 10 0 10 10 15 c 2,6,-1
 224 111 l 2,7,8
 226 112 226 112 231 112 c 0,9,10
 247 112 247 112 247 96 c 2,11,-1
 247 -96 l 2,12,13
 247 -112 247 -112 231 -112 c 0,14,15
 226 -112 226 -112 224 -111 c 2,16,-1
 10 -15 l 2,3,4
EndSplineSet
Validated: 1
EndChar

StartChar: uniE1C5
Encoding: 57797 57797 31
GlifName: uniE_1C_5
Width: 246
VWidth: 1000
GlyphClass: 2
Flags: W
HStem: -112 224<177.188 247>
VStem: 0 247<-19.5 19.5>
LayerCount: 2
Fore
SplineSet
10 -15 m 2,0,1
 0 -10 0 -10 0 0 c 128,-1,2
 0 10 0 10 10 15 c 2,3,-1
 224 111 l 2,4,5
 226 112 226 112 231 112 c 0,6,7
 247 112 247 112 247 96 c 2,8,-1
 247 -96 l 2,9,10
 247 -112 247 -112 231 -112 c 0,11,12
 226 -112 226 -112 224 -111 c 2,13,-1
 10 -15 l 2,0,1
EndSplineSet
Validated: 1
EndChar

StartChar: uniE1C7
Encoding: 57799 57799 32
GlifName: uniE_1C_7
Width: 246
VWidth: 1000
GlyphClass: 2
Flags: W
HStem: -112 225<73.0898 242.359>
VStem: 0 247<-56.3817 57.3817>
LayerCount: 2
Fore
SplineSet
231 -112 m 0,0,1
 0 -112 0 -112 0 0.5 c 128,-1,2
 0 113 0 113 231 113 c 0,3,4
 238 113 238 113 242.5 108 c 128,-1,5
 247 103 247 103 247 96 c 2,6,-1
 247 -96 l 2,7,8
 247 -112 247 -112 231 -112 c 0,0,1
EndSplineSet
Validated: 1
EndChar

StartChar: uniE1C8
Encoding: 57800 57800 33
GlifName: uniE_1C_8
Width: 246
VWidth: 1000
GlyphClass: 2
Flags: W
HStem: -112 224<197.25 247>
VStem: 193 32<-43.4993 43.4993>
LayerCount: 2
Fore
SplineSet
67 0 m 1,0,-1
 197 -44 l 1,1,2
 193 -25 193 -25 193 0 c 128,-1,3
 193 25 193 25 197 44 c 1,4,-1
 67 0 l 1,0,-1
10 -15 m 2,5,6
 0 -10 0 -10 0 0 c 128,-1,7
 0 10 0 10 10 15 c 2,8,-1
 224 111 l 2,9,10
 226 112 226 112 231 112 c 0,11,12
 247 112 247 112 247 96 c 0,13,14
 247 93 247 93 236 62 c 128,-1,15
 225 31 225 31 225 0 c 128,-1,16
 225 -31 225 -31 236 -62 c 128,-1,17
 247 -93 247 -93 247 -96 c 0,18,19
 247 -112 247 -112 231 -112 c 0,20,21
 226 -112 226 -112 224 -111 c 2,22,-1
 10 -15 l 2,5,6
EndSplineSet
Validated: 1
EndChar

StartChar: uniE1C9
Encoding: 57801 57801 34
GlifName: uniE_1C_9
Width: 246
VWidth: 1000
GlyphClass: 2
Flags: W
HStem: -112 224<177.188 247>
VStem: 0 247
LayerCount: 2
Fore
SplineSet
10 -15 m 2,0,1
 0 -10 0 -10 0 0 c 128,-1,2
 0 10 0 10 10 15 c 2,3,-1
 224 111 l 2,4,5
 226 112 226 112 231 112 c 0,6,7
 247 112 247 112 247 96 c 0,8,9
 247 93 247 93 236 62 c 128,-1,10
 225 31 225 31 225 0 c 128,-1,11
 225 -31 225 -31 236 -62 c 128,-1,12
 247 -93 247 -93 247 -96 c 0,13,14
 247 -112 247 -112 231 -112 c 0,15,16
 226 -112 226 -112 224 -111 c 2,17,-1
 10 -15 l 2,0,1
EndSplineSet
Validated: 1
EndChar

StartChar: uniE1CA
Encoding: 57802 57802 35
GlifName: uniE_1C_A_
Width: 246
VWidth: 1000
GlyphClass: 2
Flags: W
HStem: -113 226<186 193>
VStem: 214 33<-59.3719 59.3719>
LayerCount: 2
Fore
SplineSet
57 0 m 1,0,-1
 197 -61 l 1,1,2
 214 -33 214 -33 214 0 c 128,-1,3
 214 33 214 33 197 61 c 1,4,-1
 57 0 l 1,0,-1
8 -14 m 2,5,6
 0 -9 0 -9 0 0 c 128,-1,7
 0 9 0 9 8 14 c 2,8,-1
 180 110 l 2,9,10
 186 113 186 113 189.5 113 c 128,-1,11
 193 113 193 113 202 104 c 0,12,13
 247 62 247 62 247 0 c 128,-1,14
 247 -62 247 -62 202 -104 c 0,15,16
 193 -113 193 -113 189.5 -113 c 128,-1,17
 186 -113 186 -113 180 -110 c 2,18,-1
 8 -14 l 2,5,6
EndSplineSet
Validated: 1
EndChar

StartChar: uniE4A0
Encoding: 58528 58528 36
GlifName: uniE_4A_0
Width: 460
GlyphClass: 2
Flags: W
HStem: 0 21G<6.5 15> 238 20G<6.5 15>
LayerCount: 2
Fore
SplineSet
460 129 m 128,-1,1
 460 110 460 110 441 110 c 1,2,-1
 19 1 l 2,3,4
 17 0 17 0 13 0 c 0,5,6
 0 0 0 0 0 18 c 128,-1,7
 0 36 0 36 14 39 c 2,8,-1
 271 105 l 1,9,-1
 414 129 l 1,10,-1
 271 153 l 1,11,-1
 14 219 l 2,12,13
 0 222 0 222 0 240 c 128,-1,14
 0 258 0 258 13 258 c 0,15,16
 17 258 17 258 19 257 c 2,17,-1
 441 148 l 1,18,0
 460 148 460 148 460 129 c 128,-1,1
EndSplineSet
Validated: 1
EndChar

StartChar: uniE4A2
Encoding: 58530 58530 38
GlifName: uniE_4A_2
Width: 102
GlyphClass: 2
Flags: W
HStem: 0 102<15.4702 86.5298>
VStem: 0 102<15.4702 86.5298>
LayerCount: 2
Fore
SplineSet
0 51 m 128,-1,1
 0 72 0 72 15 87 c 128,-1,2
 30 102 30 102 51 102 c 128,-1,3
 72 102 72 102 87 87 c 128,-1,4
 102 72 102 72 102 51 c 128,-1,5
 102 30 102 30 87 15 c 128,-1,6
 72 0 72 0 51 0 c 128,-1,7
 30 0 30 0 15 15 c 128,-1,0
 0 30 0 30 0 51 c 128,-1,1
EndSplineSet
Validated: 1
EndChar

StartChar: uniE4A4
Encoding: 58532 58532 40
GlifName: uniE_4A_4
Width: 308
GlyphClass: 2
Flags: W
HStem: 0 40<0.0273438 300.781>
VStem: 0 308<5.15747 34.8425>
LayerCount: 2
Fore
SplineSet
287 0 m 2,0,-1
 21 0 l 2,1,2
 14 0 14 0 7 5 c 128,-1,3
 0 10 0 10 0 19 c 128,-1,4
 0 28 0 28 7 34 c 128,-1,5
 14 40 14 40 21 40 c 2,6,-1
 287 40 l 2,7,8
 294 40 294 40 301 35 c 128,-1,9
 308 30 308 30 308 20 c 128,-1,10
 308 10 308 10 301 5 c 128,-1,11
 294 0 294 0 287 0 c 2,0,-1
EndSplineSet
Validated: 1
EndChar

StartChar: fadeout
Encoding: 59460 59460 44
GlifName: fadeout
Width: 362
VWidth: 1000
Flags: W
HStem: 0 21G<9 21.5> 167 29.5<314.817 361.984>
LayerCount: 2
Fore
SplineSet
3 340 m 0,0,1
 0 344 0 344 0 350.5 c 128,-1,2
 0 357 0 357 6 361 c 128,-1,3
 12 365 12 365 18 365 c 128,-1,4
 24 365 24 365 29 358 c 0,5,6
 62 311 62 311 276 226 c 0,7,8
 347 198 347 198 354.5 196.5 c 128,-1,9
 362 195 362 195 362 182.5 c 128,-1,10
 362 170 362 170 351 167 c 0,11,12
 342 167 342 167 196.5 106.5 c 128,-1,13
 51 46 51 46 29 7 c 0,14,15
 25 0 25 0 18 0 c 0,16,17
 0 0 0 0 0 16 c 0,18,19
 0 20 0 20 3 25 c 0,20,21
 39 86 39 86 299 182 c 1,22,23
 296 183 296 183 259 198 c 0,24,25
 43 281 43 281 3 340 c 0,0,1
EndSplineSet
Validated: 1
EndChar

StartChar: fadein
Encoding: 59459 59459 45
GlifName: fadein
Width: 362
VWidth: 1000
Flags: W
HStem: 0 21G<341 353> 168.5 29.5<0.0164795 46.3615>
LayerCount: 2
Fore
SplineSet
362 14 m 0,0,1
 362 0 362 0 344 0 c 0,2,3
 338 0 338 0 333 7 c 0,4,5
 299 55 299 55 86 139 c 0,6,7
 15 167 15 167 7.5 168.5 c 128,-1,8
 0 170 0 170 0 182.5 c 128,-1,9
 0 195 0 195 11 198 c 0,10,11
 20 198 20 198 161.5 256.5 c 128,-1,12
 303 315 303 315 333 358 c 0,13,14
 338 365 338 365 344 365 c 0,15,16
 362 365 362 365 362 349 c 0,17,18
 362 344 362 344 359 340 c 0,19,20
 319 281 319 281 106 199 c 0,21,22
 67 184 67 184 63 182 c 1,23,24
 316 88 316 88 359 25 c 0,25,26
 362 21 362 21 362 14 c 0,0,1
EndSplineSet
Validated: 1
EndChar

StartChar: volumeswell
Encoding: 59461 59461 46
GlifName: volumeswell
Width: 724
VWidth: 1000
Flags: W
HStem: 0 21G<336.25 342.75 376 388.5> 167.5 30.5<-4.97803 45.4226 677.398 728.997>
LayerCount: 2
Fore
SplineSet
370 340 m 0,0,1
 367 344 367 344 367 350.5 c 128,-1,2
 367 357 367 357 372.5 361 c 128,-1,3
 378 365 378 365 384.5 365 c 128,-1,4
 391 365 391 365 396 358 c 0,5,6
 430 308 430 308 642 226 c 0,7,8
 714 198 714 198 721.5 196.5 c 128,-1,9
 729 195 729 195 729 182.5 c 128,-1,10
 729 170 729 170 718 167 c 0,11,12
 709 167 709 167 563.5 106.5 c 128,-1,13
 418 46 418 46 396 7 c 0,14,15
 392 0 392 0 385 0 c 0,16,17
 367 0 367 0 367 16 c 0,18,19
 367 20 367 20 370 25 c 0,20,21
 406 86 406 86 666 182 c 1,22,23
 663 183 663 183 626 198 c 0,24,25
 410 281 410 281 370 340 c 0,0,1
354 340 m 0,26,27
 314 281 314 281 101 199 c 0,28,29
 62 184 62 184 58 182 c 1,30,31
 311 88 311 88 354 25 c 0,32,33
 357 21 357 21 357 14.5 c 128,-1,34
 357 8 357 8 351.5 4 c 128,-1,35
 346 0 346 0 339.5 0 c 128,-1,36
 333 0 333 0 328 7 c 0,37,38
 294 57 294 57 82 139 c 0,39,40
 15 165 15 165 5 167.5 c 128,-1,41
 -5 170 -5 170 -5 184 c 128,-1,42
 -5 198 -5 198 5 198 c 128,-1,43
 15 198 15 198 156 256.5 c 128,-1,44
 297 315 297 315 328 358 c 0,45,46
 333 365 333 365 340 365 c 0,47,48
 357 365 357 365 357 349 c 0,49,50
 357 344 357 344 354 340 c 0,26,27
EndSplineSet
Validated: 1
EndChar

StartChar: wigglesawtooth
Encoding: 60091 60091 47
GlifName: wigglesawtooth
Width: 748
VWidth: 1000
Flags: W
LayerCount: 2
Fore
SplineSet
-17 556 m 0,0,1
 -17 571 -17 571 -1 571 c 0,2,3
 6 571 6 571 11 565 c 2,4,-1
 373 82 l 1,5,-1
 735 565 l 2,6,7
 740 571 740 571 746 571 c 128,-1,8
 752 571 752 571 758.5 566.5 c 128,-1,9
 765 562 765 562 765 557 c 128,-1,10
 765 552 765 552 761 546 c 2,11,-1
 385 46 l 1,12,13
 381 39 381 39 373 39 c 128,-1,14
 365 39 365 39 361 46 c 1,15,-1
 -15 546 l 2,16,17
 -17 549 -17 549 -17 556 c 0,0,1
EndSplineSet
Validated: 1
EndChar

StartChar: wigglesawtoothwide
Encoding: 60092 60092 48
GlifName: wigglesawtoothwide
Width: 1000
VWidth: 1000
Flags: W
LayerCount: 2
Fore
SplineSet
512 49 m 2,0,1
 507 44 507 44 500.5 44 c 128,-1,2
 494 44 494 44 489 49 c 2,3,-1
 -11 549 l 2,4,5
 -16 554 -16 554 -16 560 c 128,-1,6
 -16 566 -16 566 -11 571 c 128,-1,7
 -6 576 -6 576 0.5 576 c 128,-1,8
 7 576 7 576 12 571 c 2,9,-1
 501 83 l 1,10,-1
 989 571 l 2,11,12
 994 576 994 576 1000.5 576 c 128,-1,13
 1007 576 1007 576 1011.5 571.5 c 128,-1,14
 1016 567 1016 567 1016 560 c 128,-1,15
 1016 553 1016 553 1012 549 c 2,16,-1
 512 49 l 2,0,1
EndSplineSet
Validated: 1
EndChar

StartChar: wigglevibratolargefaster
Encoding: 60132 60132 49
GlifName: wigglevibratolargefaster
Width: 376
VWidth: 1000
Flags: W
LayerCount: 2
Fore
SplineSet
-38 196 m 2,0,-1
 -42 196 l 1,1,2
 -44 197 -44 197 -44 202 c 0,3,4
 -10 381 -10 381 48 440 c 0,5,6
 82 474 82 474 102 474 c 0,7,8
 137 474 137 474 164 416.5 c 128,-1,9
 191 359 191 359 204.5 289 c 128,-1,10
 218 219 218 219 239.5 155 c 128,-1,11
 261 91 261 91 286 82 c 1,12,13
 313 131 313 131 328 202 c 0,14,15
 332 216 332 216 350.5 229 c 128,-1,16
 369 242 369 242 380 242 c 2,17,-1
 384 242 l 1,18,19
 386 241 386 241 386 238 c 0,20,21
 373 177 373 177 357 136 c 128,-1,22
 341 95 341 95 307.5 61.5 c 128,-1,23
 274 28 274 28 248 28 c 0,24,25
 214 28 214 28 188 83.5 c 128,-1,26
 162 139 162 139 148 208 c 0,27,28
 111 396 111 396 70 418 c 1,29,30
 34 345 34 345 14 238 c 0,31,32
 13 228 13 228 -1.5 217 c 128,-1,33
 -16 206 -16 206 -23 201 c 128,-1,34
 -30 196 -30 196 -38 196 c 2,0,-1
EndSplineSet
Validated: 1
EndChar

StartChar: wigglevibratolargeslowest
Encoding: 60136 60136 50
GlifName: wigglevibratolargeslowest
Width: 763
VWidth: 1000
Flags: W
HStem: 34 52<535.798 630.284> 426 52<145.642 228.054>
LayerCount: 2
Fore
SplineSet
786 248 m 1,0,1
 792 245 792 245 792 243.5 c 128,-1,2
 792 242 792 242 790 240 c 0,3,4
 762 173 762 173 704 116 c 0,5,6
 622 34 622 34 562.5 34 c 128,-1,7
 503 34 503 34 457.5 74.5 c 128,-1,8
 412 115 412 115 381.5 172.5 c 128,-1,9
 351 230 351 230 321.5 287.5 c 128,-1,10
 292 345 292 345 250.5 385.5 c 128,-1,11
 209 426 209 426 158 426 c 0,12,13
 144 426 144 426 138 420 c 0,14,15
 119 408 119 408 80 355 c 128,-1,16
 41 302 41 302 16 240 c 0,17,18
 14 233 14 233 0.5 222 c 128,-1,19
 -13 211 -13 211 -18 206 c 0,20,21
 -28 200 -28 200 -34 200 c 1,22,-1
 -40 202 l 1,23,24
 -42 204 -42 204 -42 206 c 1,25,-1
 88 408 l 1,26,27
 158 478 158 478 210.5 478 c 128,-1,28
 263 478 263 478 308 437.5 c 128,-1,29
 353 397 353 397 383.5 339.5 c 128,-1,30
 414 282 414 282 443 224.5 c 128,-1,31
 472 167 472 167 513.5 126.5 c 128,-1,32
 555 86 555 86 606 86 c 0,33,34
 644 86 644 86 692 140 c 0,35,36
 717 170 717 170 734 210 c 0,37,38
 740 224 740 224 759 236 c 128,-1,39
 778 248 778 248 782 248 c 2,40,-1
 786 248 l 1,0,1
EndSplineSet
Validated: 1
EndChar

StartChar: uniE094
Encoding: 57492 57492 51
GlifName: uniE_094
Width: 138
Flags: W
VStem: 0 96<-173.476 171.498>
LayerCount: 2
Fore
SplineSet
213 -471 m 0,0,1
 213 -495 213 -495 189 -495 c 0,2,3
 172 -495 172 -495 126 -422.5 c 128,-1,4
 80 -350 80 -350 40 -232 c 128,-1,5
 0 -114 0 -114 0 -3 c 128,-1,6
 0 108 0 108 40 236 c 1,7,8
 83 358 83 358 129 427 c 0,9,10
 172 495 172 495 189 495 c 0,11,12
 213 495 213 495 213 471 c 0,13,14
 213 468 213 468 184 423 c 0,15,16
 155 382 155 382 125.5 272 c 128,-1,17
 96 162 96 162 96 0 c 128,-1,18
 96 -162 96 -162 126 -270.5 c 128,-1,19
 156 -379 156 -379 184.5 -423.5 c 128,-1,20
 213 -468 213 -468 213 -471 c 0,0,1
EndSplineSet
Validated: 1
EndChar

StartChar: uniE095
Encoding: 57493 57493 52
GlifName: uniE_095
Width: 128
Flags: W
VStem: 33 95<-170.747 172.235>
LayerCount: 2
Fore
SplineSet
-85 -471 m 0,0,1
 -85 -468 -85 -468 -56.5 -423.5 c 128,-1,2
 -28 -379 -28 -379 2.5 -268.5 c 128,-1,3
 33 -158 33 -158 33 0 c 128,-1,4
 33 158 33 158 3 270 c 128,-1,5
 -27 382 -27 382 -56 423 c 0,6,7
 -85 468 -85 468 -85 471 c 0,8,9
 -85 495 -85 495 -61 495 c 0,10,11
 -43 495 -43 495 0 427 c 0,12,13
 47 357 47 357 88 236 c 0,14,15
 128 108 128 108 128 -3 c 128,-1,16
 128 -114 128 -114 87 -233.5 c 128,-1,17
 46 -353 46 -353 1.5 -424 c 128,-1,18
 -43 -495 -43 -495 -61 -495 c 0,19,20
 -85 -495 -85 -495 -85 -471 c 0,0,1
EndSplineSet
Validated: 1
EndChar

StartChar: uniEBAE
Encoding: 60334 60334 53
GlifName: uniE_B_A_E_
Width: 128
VWidth: 0
Flags: W
HStem: 64 128<25.4922 102.508>
VStem: 0 128<89.4922 166.508>
LayerCount: 2
Fore
SplineSet
24 168 m 128,-1,1
 48 192 48 192 64 192 c 128,-1,2
 80 192 80 192 104 168 c 128,-1,3
 128 144 128 144 128 128 c 128,-1,4
 128 112 128 112 104 88 c 128,-1,5
 80 64 80 64 64 64 c 128,-1,6
 48 64 48 64 24 88 c 128,-1,7
 0 112 0 112 0 128 c 128,-1,0
 0 144 0 144 24 168 c 128,-1,1
EndSplineSet
Validated: 1
EndChar

StartChar: uniEBAD
Encoding: 60333 60333 56
GlifName: uniE_B_A_D_
Width: 48
VWidth: 0
Flags: W
HStem: 28 200<0 48>
VStem: 0 48<28 228>
LayerCount: 2
Fore
SplineSet
0 228 m 25,0,-1
 48 228 l 1,1,-1
 48 28 l 1,2,-1
 0 28 l 1,3,-1
 0 228 l 25,0,-1
EndSplineSet
Validated: 1
EndChar

StartChar: uniE910
Encoding: 59664 59664 57
GlifName: uniE_910
Width: 513
Flags: W
HStem: -269 25<187.737 324.115> -80 160<201.508 310.492> 243 25<187.904 324.096>
VStem: 0 100<-129.293 122.642> 176 160<-54.4922 54.4922> 412 100<-126.534 122.642>
CounterMasks: 1 1c
LayerCount: 2
Fore
SplineSet
176 0 m 128,-1,1
 176 32 176 32 200 56 c 128,-1,2
 224 80 224 80 256 80 c 128,-1,3
 288 80 288 80 312 56 c 128,-1,4
 336 32 336 32 336 0 c 128,-1,5
 336 -32 336 -32 312 -56 c 128,-1,6
 288 -80 288 -80 256 -80 c 128,-1,7
 224 -80 224 -80 200 -56 c 128,-1,0
 176 -32 176 -32 176 0 c 128,-1,1
256 -244 m 128,-1,9
 317 -244 317 -244 364.5 -210 c 128,-1,10
 412 -176 412 -176 412 -52 c 2,11,-1
 412 52 l 2,12,13
 412 174 412 174 364.5 208.5 c 128,-1,14
 317 243 317 243 256 243 c 128,-1,15
 195 243 195 243 147.5 208.5 c 128,-1,16
 100 174 100 174 100 52 c 2,17,-1
 100 -52 l 2,18,19
 100 -176 100 -176 147.5 -210 c 128,-1,8
 195 -244 195 -244 256 -244 c 128,-1,9
256 268 m 128,-1,21
 380 268 380 268 446 194 c 128,-1,22
 512 120 512 120 512 0 c 0,23,24
 512 -203 512 -203 348 -256 c 0,25,26
 308 -269 308 -269 256 -269 c 0,27,28
 155 -269 155 -269 83 -212 c 0,29,30
 0 -146 0 -146 0 0 c 0,31,32
 0 121 0 121 66 194.5 c 128,-1,20
 132 268 132 268 256 268 c 128,-1,21
EndSplineSet
Validated: 1
EndChar

StartChar: uniE911
Encoding: 59665 59665 58
GlifName: uniE_911
Width: 513
Flags: W
HStem: -269 25<187.737 324.115> 243 25<187.904 324.096>
VStem: 0 100<-129.293 122.642> 412 100<-126.534 122.642>
LayerCount: 2
Fore
SplineSet
256 -244 m 128,-1,1
 317 -244 317 -244 364.5 -210 c 128,-1,2
 412 -176 412 -176 412 -52 c 2,3,-1
 412 52 l 2,4,5
 412 174 412 174 364.5 208.5 c 128,-1,6
 317 243 317 243 256 243 c 128,-1,7
 195 243 195 243 147.5 208.5 c 128,-1,8
 100 174 100 174 100 52 c 2,9,-1
 100 -52 l 2,10,11
 100 -176 100 -176 147.5 -210 c 128,-1,0
 195 -244 195 -244 256 -244 c 128,-1,1
256 268 m 128,-1,13
 380 268 380 268 446 194 c 128,-1,14
 512 120 512 120 512 0 c 0,15,16
 512 -203 512 -203 348 -256 c 0,17,18
 308 -269 308 -269 256 -269 c 0,19,20
 155 -269 155 -269 83 -212 c 0,21,22
 0 -146 0 -146 0 0 c 0,23,24
 0 121 0 121 66 194.5 c 128,-1,12
 132 268 132 268 256 268 c 128,-1,13
EndSplineSet
Validated: 1
EndChar

StartChar: uniE912
Encoding: 59666 59666 59
GlifName: uniE_912
Width: 513
Flags: W
HStem: -268 25<185.215 237 275 326.503> 242 26<184.5 237 275 327.5>
VStem: 0 100<-126.615 123.685> 237 38<-438 -266.658 -243 242 266.666 438> 412 100<-126.615 123.685>
CounterMasks: 1 38
LayerCount: 2
Fore
SplineSet
275 -428 m 2,0,1
 275 -438 275 -438 264 -438 c 2,2,-1
 247 -438 l 2,3,4
 237 -438 237 -438 237 -428 c 2,5,-1
 237 -268 l 1,6,7
 145 -263 145 -263 83 -212 c 0,8,9
 0 -144 0 -144 0 0 c 0,10,11
 0 119 0 119 63 190.5 c 128,-1,12
 126 262 126 262 237 268 c 1,13,-1
 237 428 l 2,14,15
 237 438 237 438 247 438 c 2,16,-1
 264 438 l 2,17,18
 275 438 275 438 275 428 c 2,19,-1
 275 268 l 1,20,21
 386 262 386 262 449 191 c 128,-1,22
 512 120 512 120 512 0 c 0,23,24
 512 -75 512 -75 489.5 -129 c 128,-1,25
 467 -183 467 -183 429 -212 c 0,26,27
 388 -246 388 -246 351 -256 c 128,-1,28
 314 -266 314 -266 275 -268 c 1,29,-1
 275 -428 l 2,0,1
275 242 m 1,30,-1
 275 -243 l 1,31,32
 323 -239 323 -239 364 -210 c 0,33,34
 412 -176 412 -176 412 -52 c 2,35,-1
 412 52 l 2,36,37
 412 176 412 176 364 210 c 0,38,39
 326 238 326 238 275 242 c 1,30,-1
237 -243 m 1,40,-1
 237 242 l 1,41,42
 186 238 186 238 148 210 c 0,43,44
 100 176 100 176 100 52 c 2,45,-1
 100 -52 l 2,46,47
 100 -176 100 -176 148 -210 c 0,48,49
 189 -239 189 -239 237 -243 c 1,40,-1
EndSplineSet
Validated: 1
EndChar

StartChar: uniE913
Encoding: 59667 59667 60
GlifName: uniE_913
Width: 513
Flags: W
HStem: -268 25<185.215 237 275 326.503> 242 26<184.5 237 275 327.5>
VStem: 0 100<-123.685 123.685> 176 160<-54.4453 54.4453> 237 38<-438 -266.658 -243 -69.688 69.688 242 266.666 438> 412 100<-126.615 123.685>
LayerCount: 2
Fore
SplineSet
275 -428 m 2,0,1
 275 -438 275 -438 264 -438 c 2,2,-1
 247 -438 l 2,3,4
 237 -438 237 -438 237 -428 c 2,5,-1
 237 -268 l 1,6,7
 145 -263 145 -263 83 -212 c 0,8,9
 44 -180 44 -180 22 -125 c 128,-1,10
 0 -70 0 -70 0 0 c 0,11,12
 0 119 0 119 63 190.5 c 128,-1,13
 126 262 126 262 237 268 c 1,14,-1
 237 428 l 2,15,16
 237 438 237 438 247 438 c 2,17,-1
 264 438 l 2,18,19
 275 438 275 438 275 428 c 2,20,-1
 275 268 l 1,21,22
 386 262 386 262 449 191 c 128,-1,23
 512 120 512 120 512 0 c 0,24,25
 512 -70 512 -70 490 -128 c 0,26,27
 466 -183 466 -183 429 -212 c 0,28,29
 388 -246 388 -246 351 -256 c 128,-1,30
 314 -266 314 -266 275 -268 c 1,31,-1
 275 -428 l 2,0,1
176 0 m 128,-1,33
 176 32 176 32 196 52 c 128,-1,34
 216 72 216 72 237 78 c 1,35,-1
 237 242 l 1,36,37
 186 238 186 238 148 210 c 0,38,39
 100 176 100 176 100 52 c 2,40,-1
 100 -52 l 2,41,42
 100 -176 100 -176 148 -210 c 0,43,44
 189 -239 189 -239 237 -243 c 1,45,-1
 237 -78 l 1,46,47
 216 -72 216 -72 196 -52 c 128,-1,32
 176 -32 176 -32 176 0 c 128,-1,33
275 -78 m 1,48,-1
 275 -243 l 1,49,50
 323 -239 323 -239 364 -210 c 0,51,52
 412 -176 412 -176 412 -52 c 2,53,-1
 412 52 l 2,54,55
 412 176 412 176 364 210 c 0,56,57
 326 238 326 238 275 242 c 1,58,-1
 275 78 l 1,59,60
 296 72 296 72 316 52 c 128,-1,61
 336 32 336 32 336 0 c 128,-1,62
 336 -32 336 -32 316 -52 c 128,-1,63
 296 -72 296 -72 275 -78 c 1,48,-1
EndSplineSet
Validated: 1
EndChar

StartChar: uniE914
Encoding: 59668 59668 61
GlifName: uniE_914
Width: 435
Flags: W
HStem: -269 25<188.433 313.402> -80 160<201.508 310.492> 243 25<186.359 314.849>
VStem: 0 100<-128 124.03> 176 160<-54.4922 54.4922> 418 25<-126.754 -79.0161 78.0112 120.713>
LayerCount: 2
Fore
SplineSet
176 0 m 128,-1,1
 176 32 176 32 200 56 c 128,-1,2
 224 80 224 80 256 80 c 128,-1,3
 288 80 288 80 312 56 c 128,-1,4
 336 32 336 32 336 0 c 128,-1,5
 336 -32 336 -32 312 -56 c 128,-1,6
 288 -80 288 -80 256 -80 c 128,-1,7
 224 -80 224 -80 200 -56 c 128,-1,0
 176 -32 176 -32 176 0 c 128,-1,1
437 116 m 0,8,9
 443 101 443 101 443 89.5 c 128,-1,10
 443 78 443 78 430 78 c 0,11,12
 421 78 421 78 418 88 c 0,13,14
 399 157 399 157 357.5 200 c 128,-1,15
 316 243 316 243 256 243 c 0,16,17
 169 243 169 243 134.5 186.5 c 128,-1,18
 100 130 100 130 100 52 c 2,19,-1
 100 -52 l 2,20,21
 100 -176 100 -176 147.5 -210 c 128,-1,22
 195 -244 195 -244 254.5 -244 c 128,-1,23
 314 -244 314 -244 358 -200 c 128,-1,24
 402 -156 402 -156 418 -89 c 0,25,26
 420 -79 420 -79 430 -79 c 0,27,28
 443 -79 443 -79 443 -95.5 c 128,-1,29
 443 -112 443 -112 421.5 -152.5 c 128,-1,30
 400 -193 400 -193 382 -213 c 0,31,32
 332 -269 332 -269 256 -269 c 0,33,34
 158 -269 158 -269 85 -214 c 0,35,36
 0 -149 0 -149 0 0 c 0,37,38
 0 121 0 121 66 194.5 c 128,-1,39
 132 268 132 268 254.5 268 c 128,-1,40
 377 268 377 268 437 116 c 0,8,9
EndSplineSet
Validated: 1
EndChar

StartChar: uniE916
Encoding: 59670 59670 63
GlifName: uniE_916
Width: 435
Flags: W
HStem: -269 25<121.57 238.695> 28 155<56.0957 121.588> 243 25<117.199 240.293>
VStem: -8 25<-122.682 -79.0117> -1 145<50.174 158.248> 295 140<-128 123.136>
LayerCount: 2
Fore
SplineSet
123 159 m 128,-1,1
 144 135 144 135 144 101 c 128,-1,2
 144 67 144 67 118.5 47.5 c 128,-1,3
 93 28 93 28 65.5 28 c 128,-1,4
 38 28 38 28 18.5 49.5 c 128,-1,5
 -1 71 -1 71 -1 101 c 0,6,7
 -1 156 -1 156 49 212 c 128,-1,8
 99 268 99 268 179 268 c 0,9,10
 303 268 303 268 369 194 c 128,-1,11
 435 120 435 120 435 0 c 0,12,13
 435 -149 435 -149 350 -214 c 0,14,15
 277 -269 277 -269 179 -269 c 0,16,17
 58 -269 58 -269 -2 -118 c 0,18,19
 -8 -100 -8 -100 -8 -91 c 0,20,21
 -8 -79 -8 -79 5 -79 c 0,22,23
 14 -79 14 -79 17 -89 c 0,24,25
 34 -156 34 -156 77 -200 c 128,-1,26
 120 -244 120 -244 179 -244 c 128,-1,27
 238 -244 238 -244 266.5 -210.5 c 128,-1,28
 295 -177 295 -177 295 -52 c 2,29,-1
 295 52 l 2,30,31
 295 175 295 175 268 209 c 0,32,33
 240 243 240 243 179 243 c 0,34,35
 102 243 102 243 56 182 c 1,36,37
 59 183 59 183 70 183 c 0,38,0
 102 183 102 183 123 159 c 128,-1,1
EndSplineSet
Validated: 1
EndChar

StartChar: uniE917
Encoding: 59671 59671 64
GlifName: uniE_917
Width: 435
Flags: W
HStem: -268 25<186.689 237 275 317.451> 242 26<184.5 237 275 315.763>
VStem: 0 100<-125.989 125.791> 176 160<-54.4453 54.4453> 237 38<-438 -266.41 -243 -69.688 69.688 242 266.669 438> 418 25<-126.754 -79.0117 78.0156 124.479>
LayerCount: 2
Fore
SplineSet
275 -428 m 2,0,1
 275 -438 275 -438 264 -438 c 2,2,-1
 247 -438 l 2,3,4
 237 -438 237 -438 237 -428 c 2,5,-1
 237 -268 l 1,6,7
 149 -263 149 -263 83 -212 c 0,8,9
 44 -182 44 -182 22 -126 c 128,-1,10
 0 -70 0 -70 0 0 c 0,11,12
 0 121 0 121 63 191.5 c 128,-1,13
 126 262 126 262 237 268 c 1,14,-1
 237 428 l 2,15,16
 237 438 237 438 247 438 c 2,17,-1
 264 438 l 2,18,19
 275 438 275 438 275 428 c 2,20,-1
 275 267 l 1,21,22
 367 257 367 257 416 162 c 0,23,24
 443 110 443 110 443 94 c 128,-1,25
 443 78 443 78 430 78 c 0,26,27
 421 78 421 78 418 88 c 0,28,29
 399 157 399 157 360.5 196.5 c 128,-1,30
 322 236 322 236 275 242 c 1,31,-1
 275 78 l 1,32,33
 296 72 296 72 316 52 c 128,-1,34
 336 32 336 32 336 0 c 128,-1,35
 336 -32 336 -32 316 -52 c 128,-1,36
 296 -72 296 -72 275 -78 c 1,37,-1
 275 -243 l 1,38,39
 321 -239 321 -239 358 -200 c 0,40,41
 402 -156 402 -156 418 -89 c 0,42,43
 420 -79 420 -79 430 -79 c 0,44,45
 443 -79 443 -79 443 -91 c 0,46,47
 443 -118 443 -118 416 -162 c 1,48,49
 385 -225 385 -225 328 -253 c 0,50,51
 304 -265 304 -265 275 -268 c 1,52,-1
 275 -428 l 2,0,1
176 0 m 128,-1,54
 176 32 176 32 196 52 c 128,-1,55
 216 72 216 72 237 78 c 1,56,-1
 237 242 l 1,57,58
 164 236 164 236 132 183 c 128,-1,59
 100 130 100 130 100 52 c 2,60,-1
 100 -52 l 2,61,62
 100 -176 100 -176 148 -210 c 0,63,64
 189 -239 189 -239 237 -243 c 1,65,-1
 237 -78 l 1,66,67
 216 -72 216 -72 196 -52 c 128,-1,53
 176 -32 176 -32 176 0 c 128,-1,54
EndSplineSet
Validated: 1
EndChar

StartChar: uniE919
Encoding: 59673 59673 66
GlifName: uniE_919
Width: 435
Flags: W
HStem: -269 25<121.194 192> 28 155<56.0957 121.588> 243 25<119.549 192>
VStem: -1 145<50.174 158.248> 192 38<-358 -268 -236 236 268 358> 295 140<-122.405 122.111>
LayerCount: 2
Fore
SplineSet
123 159 m 128,-1,1
 144 135 144 135 144 101 c 128,-1,2
 144 67 144 67 118.5 47.5 c 128,-1,3
 93 28 93 28 65.5 28 c 128,-1,4
 38 28 38 28 18.5 49.5 c 128,-1,5
 -1 71 -1 71 -1 101 c 0,6,7
 -1 156 -1 156 49 212 c 128,-1,8
 99 268 99 268 179 268 c 2,9,-1
 192 268 l 1,10,-1
 192 348 l 1,11,12
 193 358 193 358 203 358 c 2,13,-1
 220 358 l 2,14,15
 230 358 230 358 230 348 c 2,16,-1
 230 265 l 1,17,18
 335 248 335 248 385 175.5 c 128,-1,19
 435 103 435 103 435 0.5 c 128,-1,20
 435 -102 435 -102 385.5 -175 c 128,-1,21
 336 -248 336 -248 230 -265 c 1,22,-1
 230 -348 l 2,23,24
 230 -358 230 -358 220 -358 c 2,25,-1
 203 -358 l 2,26,27
 192 -358 192 -358 192 -348 c 2,28,-1
 192 -268 l 1,29,30
 189 -269 189 -269 179 -269 c 0,31,32
 139 -269 139 -269 105.5 -252.5 c 128,-1,33
 72 -236 72 -236 53 -213 c 0,34,35
 17 -167 17 -167 -2 -118 c 0,36,37
 -8 -103 -8 -103 -8 -91 c 128,-1,38
 -8 -79 -8 -79 5 -79 c 0,39,40
 14 -79 14 -79 17 -89 c 0,41,42
 34 -156 34 -156 77 -200 c 128,-1,43
 120 -244 120 -244 179 -244 c 0,44,45
 187 -244 187 -244 192 -243 c 1,46,-1
 192 243 l 1,47,-1
 179 243 l 1,48,49
 102 241 102 241 56 182 c 1,50,51
 59 183 59 183 70 183 c 0,52,0
 102 183 102 183 123 159 c 128,-1,1
230 -236 m 1,53,54
 271 -221 271 -221 283 -177.5 c 128,-1,55
 295 -134 295 -134 295 -52 c 2,56,-1
 295 52 l 2,57,58
 295 134 295 134 283 177.5 c 128,-1,59
 271 221 271 221 230 236 c 1,60,-1
 230 -236 l 1,53,54
EndSplineSet
Validated: 1
EndChar

StartChar: uniE91A
Encoding: 59674 59674 67
GlifName: uniE_91A_
Width: 435
Flags: W
HStem: -269 25<121.029 247.434> -80 160<124.508 233.492> 243 25<120.469 248.27>
VStem: -8 25<-124.307 -79.0117 78.0156 124.259> 99 160<-54.4922 54.4922> 335 100<-126.534 122.518>
LayerCount: 2
Fore
SplineSet
259 0 m 128,-1,1
 259 -32 259 -32 235 -56 c 128,-1,2
 211 -80 211 -80 179 -80 c 128,-1,3
 147 -80 147 -80 123 -56 c 128,-1,4
 99 -32 99 -32 99 0 c 128,-1,5
 99 32 99 32 123 56 c 128,-1,6
 147 80 147 80 179 80 c 128,-1,7
 211 80 211 80 235 56 c 128,-1,0
 259 32 259 32 259 0 c 128,-1,1
179 268 m 0,8,9
 303 268 303 268 369 194 c 128,-1,10
 435 120 435 120 435 0 c 0,11,12
 435 -203 435 -203 271 -256 c 0,13,14
 231 -269 231 -269 185 -269 c 128,-1,15
 139 -269 139 -269 104 -252 c 0,16,17
 38 -220 38 -220 -2 -118 c 0,18,19
 -8 -103 -8 -103 -8 -91 c 128,-1,20
 -8 -79 -8 -79 5 -79 c 0,21,22
 14 -79 14 -79 17 -89 c 0,23,24
 34 -156 34 -156 77 -200 c 128,-1,25
 120 -244 120 -244 180 -244 c 128,-1,26
 240 -244 240 -244 287.5 -210 c 128,-1,27
 335 -176 335 -176 335 -52 c 2,28,-1
 335 52 l 2,29,30
 335 130 335 130 300.5 186.5 c 128,-1,31
 266 243 266 243 179 243 c 0,32,33
 119 243 119 243 77.5 200 c 128,-1,34
 36 157 36 157 17 88 c 0,35,36
 14 78 14 78 5 78 c 0,37,38
 -8 78 -8 78 -8 94 c 128,-1,39
 -8 110 -8 110 11.5 147.5 c 128,-1,40
 31 185 31 185 51.5 210 c 128,-1,41
 72 235 72 235 105.5 251.5 c 128,-1,42
 139 268 139 268 179 268 c 0,8,9
EndSplineSet
Validated: 1
EndChar

StartChar: uniE4E5
Encoding: 58597 58597 71
GlifName: uniE_4E_5
Width: 242
Flags: W
HStem: -150 74<-2 143.453>
VStem: -24 78<-253.75 -97.5> -6 128<-19 95.5> 121 128<179.75 287.5>
LayerCount: 2
Fore
SplineSet
4 54 m 2,0,1
 -6 67 -6 67 -6 82 c 0,2,3
 -6 109 -6 109 58 157 c 0,4,5
 121 206 121 206 121 269 c 0,6,7
 121 306 121 306 95 337 c 2,8,-1
 59 380 l 2,9,10
 55 384 55 384 55 390 c 128,-1,11
 55 396 55 396 61 401 c 0,12,13
 68 406 68 406 74 406 c 128,-1,14
 80 406 80 406 84 400 c 2,15,-1
 239 216 l 2,16,17
 249 203 249 203 249 187.5 c 128,-1,18
 249 172 249 172 232.5 154 c 128,-1,19
 216 136 216 136 186 112 c 0,20,21
 163 98 163 98 142.5 68 c 128,-1,22
 122 38 122 38 122 0 c 128,-1,23
 122 -38 122 -38 146 -67 c 2,24,-1
 232 -168 l 2,25,26
 235 -171 235 -171 236 -178 c 128,-1,27
 237 -185 237 -185 231 -190 c 128,-1,28
 225 -195 225 -195 221.5 -195 c 128,-1,29
 218 -195 218 -195 203.5 -183.5 c 128,-1,30
 189 -172 189 -172 162.5 -161 c 128,-1,31
 136 -150 136 -150 110 -150 c 128,-1,32
 84 -150 84 -150 69 -164 c 128,-1,33
 54 -178 54 -178 54 -228.5 c 128,-1,34
 54 -279 54 -279 83 -314 c 0,35,36
 86 -318 86 -318 84 -323 c 128,-1,37
 82 -328 82 -328 76 -328 c 128,-1,38
 70 -328 70 -328 45.5 -291 c 128,-1,39
 21 -254 21 -254 -1.5 -203.5 c 128,-1,40
 -24 -153 -24 -153 -24 -119 c 0,41,42
 -24 -76 -24 -76 20 -76 c 128,-1,43
 64 -76 64 -76 139 -108 c 1,44,-1
 4 54 l 2,0,1
EndSplineSet
Validated: 1
EndChar

StartChar: uniE4C4
Encoding: 58564 58564 72
GlifName: uniE_4C_4
Width: 500
VWidth: 1000
Flags: W
HStem: 0 128<177.147 272.853>
VStem: 161 128<16.1472 111.853>
LayerCount: 2
Fore
SplineSet
161 64 m 128,-1,1
 161 90 161 90 180 109 c 128,-1,2
 199 128 199 128 225 128 c 128,-1,3
 251 128 251 128 270 109 c 128,-1,4
 289 90 289 90 289 64 c 128,-1,5
 289 38 289 38 270 19 c 128,-1,6
 251 0 251 0 225 0 c 128,-1,7
 199 0 199 0 180 19 c 128,-1,0
 161 38 161 38 161 64 c 128,-1,1
17 0 m 0,8,9
 10 0 10 0 5 5 c 128,-1,10
 0 10 0 10 0 17 c 0,11,12
 0 21 0 21 2 25 c 2,13,-1
 234 540 l 2,14,15
 239 550 239 550 250 550 c 128,-1,16
 261 550 261 550 266 540 c 2,17,-1
 498 25 l 2,18,19
 500 21 500 21 500 17 c 0,20,21
 500 10 500 10 495 5 c 128,-1,22
 490 0 490 0 483 0 c 2,23,-1
 433 0 l 2,24,25
 422 0 422 0 417 10 c 2,26,-1
 224 434 l 1,27,-1
 33 10 l 2,28,29
 28 0 28 0 17 0 c 0,8,9
EndSplineSet
EndChar

StartChar: uniE261
Encoding: 57953 57953 73
GlifName: uniE_261
Width: 168
VWidth: 921
Flags: W
VStem: 0 32<-93 53 163 386.995> 136 32<-386.995 -163 -53 93>
LayerCount: 2
Fore
SplineSet
18 -208 m 1,0,1
 0 -213 0 -213 0 -194 c 2,2,-1
 0 366 l 2,3,4
 0 387 0 387 16 387 c 128,-1,5
 32 387 32 387 32 366 c 2,6,-1
 32 163 l 1,7,-1
 150 208 l 1,8,9
 168 213 168 213 168 194 c 2,10,-1
 168 -366 l 2,11,12
 168 -387 168 -387 152 -387 c 128,-1,13
 136 -387 136 -387 136 -366 c 2,14,-1
 136 -163 l 1,15,-1
 18 -208 l 1,0,1
32 -93 m 1,16,-1
 136 -53 l 1,17,-1
 136 93 l 1,18,-1
 32 53 l 1,19,-1
 32 -93 l 1,16,-1
EndSplineSet
Validated: 1
EndChar

StartChar: uniE048
Encoding: 57416 57416 74
GlifName: uniE_048
Width: 540
Flags: W
HStem: -1 21G<276 284> 105 31<295 329.312> 345 30<5.00122 110 185 265 295 375 450 554.999> 584 31<230.688 265>
VStem: 110 75<227.5 345 375 493.293> 265 30<-0.998779 107.027 136 345 375 584 612.973 720.999> 375 75<226.707 345 375 492.5>
CounterMasks: 1 0e
LayerCount: 2
Fore
SplineSet
295 14 m 2,0,1
 295 6 295 6 290 4 c 0,2,3
 288 -1 288 -1 280 -1 c 128,-1,4
 272 -1 272 -1 270 4 c 0,5,6
 265 6 265 6 265 14 c 2,7,-1
 265 105 l 1,8,9
 193 113 193 113 154 181 c 0,10,11
 113 248 113 248 110 345 c 1,12,-1
 20 345 l 2,13,14
 12 345 12 345 10 350 c 0,15,16
 5 352 5 352 5 360 c 128,-1,17
 5 368 5 368 10 370 c 0,18,19
 12 375 12 375 20 375 c 2,20,-1
 110 375 l 1,21,22
 113 471 113 471 154 538 c 0,23,24
 192 607 192 607 265 615 c 1,25,-1
 265 706 l 2,26,27
 265 714 265 714 270 716 c 0,28,29
 272 721 272 721 280 721 c 128,-1,30
 288 721 288 721 290 716 c 0,31,32
 295 714 295 714 295 706 c 2,33,-1
 295 615 l 1,34,35
 367 607 367 607 406 539 c 0,36,37
 447 472 447 472 450 375 c 1,38,-1
 540 375 l 2,39,40
 548 375 548 375 550 370 c 0,41,42
 555 368 555 368 555 360 c 128,-1,43
 555 352 555 352 550 350 c 0,44,45
 548 345 548 345 540 345 c 2,46,-1
 450 345 l 1,47,48
 447 249 447 249 406 182 c 0,49,50
 368 113 368 113 295 105 c 1,51,-1
 295 14 l 2,0,1
295 375 m 1,52,-1
 375 375 l 1,53,54
 375 517 375 517 338 561 c 0,55,56
 323 579 323 579 295 584 c 1,57,-1
 295 375 l 1,52,-1
295 345 m 1,58,-1
 295 136 l 1,59,60
 346 145 346 145 360.5 203.5 c 128,-1,61
 375 262 375 262 375 345 c 1,62,-1
 295 345 l 1,58,-1
265 375 m 1,63,-1
 265 584 l 1,64,65
 214 575 214 575 199.5 516.5 c 128,-1,66
 185 458 185 458 185 375 c 1,67,-1
 265 375 l 1,63,-1
265 345 m 1,68,-1
 185 345 l 1,69,70
 185 203 185 203 222 159 c 0,71,72
 237 141 237 141 265 136 c 1,73,-1
 265 345 l 1,68,-1
EndSplineSet
Validated: 1
EndChar

StartChar: uniEB86
Encoding: 60294 60294 75
GlifName: uniE_B_86
Width: 256
Flags: W
HStem: -20 40<-19.9951 105.959>
VStem: -20 276
LayerCount: 2
Fore
SplineSet
-20 0 m 128,-1,1
 -20 20 -20 20 0 20 c 0,2,3
 52 20 52 20 96.5 36 c 128,-1,4
 141 52 141 52 162.5 69 c 128,-1,5
 184 86 184 86 207 107 c 128,-1,6
 230 128 230 128 237 128 c 128,-1,7
 244 128 244 128 250 122.5 c 128,-1,8
 256 117 256 117 256 105 c 128,-1,9
 256 93 256 93 212 56 c 0,10,11
 173 21 173 21 115 0 c 1,12,13
 166 -18 166 -18 211 -55 c 128,-1,14
 256 -92 256 -92 256 -105 c 0,15,16
 256 -128 256 -128 236 -128 c 0,17,18
 231 -128 231 -128 201 -102 c 128,-1,19
 171 -76 171 -76 168 -74 c 0,20,21
 141 -52 141 -52 96.5 -36 c 128,-1,22
 52 -20 52 -20 0 -20 c 0,23,0
 -20 -20 -20 -20 -20 0 c 128,-1,1
EndSplineSet
Validated: 1
EndChar

StartChar: uniE240
Encoding: 57920 57920 76
GlifName: uniE_240
Width: 246
Flags: W
HStem: -20 20G<0 32>
VStem: 0 32<-96.1207 0> 160 43<-762.781 -697.725> 203 43<-682.272 -456.896>
LayerCount: 2
Fore
SplineSet
0 -256 m 5,0,-1
 0 0 l 5,1,-1
 32 0 l 5,2,3
 32 -57 32 -57 55 -116.5 c 132,-1,4
 78 -176 78 -176 103 -215.5 c 132,-1,5
 128 -255 128 -255 165 -315 c 4,6,7
 246 -446 246 -446 246 -548 c 132,-1,8
 246 -650 246 -650 203 -758 c 4,9,10
 195 -770 195 -770 184.5 -770 c 132,-1,11
 174 -770 174 -770 167 -763 c 132,-1,12
 160 -756 160 -756 160 -747 c 6,13,-1
 160 -742 l 5,14,15
 203 -643 203 -643 203 -546 c 4,16,17
 203 -496 203 -496 172.5 -437 c 132,-1,18
 142 -378 142 -378 109.5 -340.5 c 132,-1,19
 77 -303 77 -303 32 -256 c 5,20,-1
 0 -256 l 5,0,-1
EndSplineSet
Validated: 1
EndChar

StartChar: uniE442
Encoding: 58434 58434 77
GlifName: uniE_442
Width: 201
Flags: W
HStem: 129 32<78.4741 159.5>
VStem: 0 38<163.673 274> 9 27<-146 97.1763 114 180.772> 133 101<-15.6233 121.823>
LayerCount: 2
Fore
SplineSet
38 79 m 1,0,-1
 36 -146 l 1,1,2
 69 -120 69 -120 101 -54.5 c 128,-1,3
 133 11 133 11 133 63 c 0,4,5
 133 84 133 84 125 106.5 c 128,-1,6
 117 129 117 129 98.5 129 c 128,-1,7
 80 129 80 129 66.5 117 c 128,-1,8
 53 105 53 105 38 79 c 1,0,-1
-2 312 m 1,9,10
 -2 389 -2 389 -5 467 c 0,11,12
 -5 482 -5 482 21.5 482 c 128,-1,13
 48 482 48 482 48 467 c 0,14,15
 48 444 48 444 47 398 c 128,-1,16
 46 352 46 352 46 329 c 1,17,-1
 157 369 l 2,18,19
 164 371 164 371 171 367.5 c 128,-1,20
 178 364 178 364 180 357 c 0,21,22
 185 341 185 341 168 335 c 2,23,-1
 45 291 l 1,24,-1
 41 114 l 1,25,26
 66 139 66 139 86.5 150 c 128,-1,27
 107 161 107 161 142 161 c 128,-1,28
 177 161 177 161 205.5 129.5 c 128,-1,29
 234 98 234 98 234 50.5 c 128,-1,30
 234 3 234 3 182 -55 c 0,31,32
 160 -80 160 -80 110 -123.5 c 128,-1,33
 60 -167 60 -167 45.5 -181.5 c 128,-1,34
 31 -196 31 -196 28 -196 c 2,35,-1
 18 -196 l 2,36,37
 9 -196 9 -196 9 -184 c 2,38,-1
 0 274 l 1,39,-1
 -125 231 l 2,40,41
 -132 229 -132 229 -139 232 c 128,-1,42
 -146 235 -146 235 -148 242 c 128,-1,43
 -150 249 -150 249 -147 256 c 128,-1,44
 -144 263 -144 263 -137 265 c 2,45,-1
 -2 312 l 1,9,10
EndSplineSet
Validated: 1
EndChar

StartChar: uniE4F5
Encoding: 58613 58613 78
GlifName: uniE_4F_5
Width: 384
Flags: W
HStem: -26 186<1e-07 384> -26 52<-159.764 0 384 543.719>
LayerCount: 2
Fore
SplineSet
518 -26 m 2,0,-1
 -134 -26 l 2,1,2
 -144 -26 -144 -26 -152 -18.5 c 128,-1,3
 -160 -11 -160 -11 -160 0 c 128,-1,4
 -160 11 -160 11 -152 18 c 0,5,6
 -146 26 -146 26 -134 26 c 2,7,-1
 0 26 l 1,8,-1
 0 150 l 2,9,10
 0 160 0 160 10 160 c 2,11,-1
 374 160 l 2,12,13
 384 160 384 160 384 150 c 2,14,-1
 384 26 l 1,15,-1
 518 26 l 2,16,17
 528 26 528 26 536 18 c 128,-1,18
 544 10 544 10 544 0 c 128,-1,19
 544 -10 544 -10 536 -18 c 128,-1,20
 528 -26 528 -26 518 -26 c 2,0,-1
EndSplineSet
Validated: 1
EndChar

StartChar: uniE273
Encoding: 57971 57971 79
GlifName: uniE_273
Width: 166
Flags: W
VStem: 0 32<-93 53 163 386.995> 134 32<-350 -163 -53 93>
LayerCount: 2
Fore
SplineSet
32 -93 m 1,0,-1
 134 -53 l 1,1,-1
 134 93 l 1,2,-1
 32 53 l 1,3,-1
 32 -93 l 1,0,-1
18 -207 m 2,4,5
 0 -213 0 -213 0 -194 c 2,6,-1
 0 366 l 2,7,8
 0 387 0 387 16 387 c 128,-1,9
 32 387 32 387 32 366 c 2,10,-1
 32 163 l 1,11,-1
 148 207 l 2,12,13
 166 213 166 213 166 194 c 2,14,-1
 166 -350 l 1,15,16
 207 -334 207 -334 216.5 -327.5 c 128,-1,17
 226 -321 226 -321 232 -321 c 0,18,19
 248 -321 248 -321 248 -338 c 0,20,21
 248 -341 248 -341 243 -351 c 0,22,23
 193 -429 193 -429 169 -536 c 0,24,25
 166 -552 166 -552 159.5 -555 c 128,-1,26
 153 -558 153 -558 148 -558 c 0,27,28
 137 -558 137 -558 133 -540 c 0,29,30
 109 -433 109 -433 58 -351 c 0,31,32
 53 -341 53 -341 53 -338 c 0,33,34
 53 -321 53 -321 69 -321 c 0,35,36
 74 -321 74 -321 87 -328 c 128,-1,37
 100 -335 100 -335 134 -350 c 1,38,-1
 134 -163 l 1,39,-1
 18 -207 l 2,4,5
EndSplineSet
Validated: 1
EndChar

StartChar: uniE0A4
Encoding: 57508 57508 80
GlifName: uniE_0A_4
Width: 336
Flags: W
HStem: -141 282<130.668 208.038>
VStem: 0 337<-24.7771 25.4766>
LayerCount: 2
Fore
SplineSet
225 141 m 0,0,1
 273 141 273 141 305 117 c 128,-1,2
 337 93 337 93 337 48 c 0,3,4
 337 -21 337 -21 265.5 -81 c 128,-1,5
 194 -141 194 -141 112 -141 c 0,6,7
 64 -141 64 -141 31 -116 c 0,8,9
 0 -89 0 -89 0 -48 c 0,10,11
 0 19 0 19 71 80 c 128,-1,12
 142 141 142 141 225 141 c 0,0,1
EndSplineSet
Validated: 1
EndChar

StartChar: uniE4C5
Encoding: 58565 58565 81
GlifName: uniE_4C_5
Width: 500
VWidth: 1000
Flags: W
HStem: -128 128<227.147 322.853>
VStem: 211 128<-111.853 -16.1472>
LayerCount: 2
Fore
SplineSet
339 -64 m 128,-1,1
 339 -90 339 -90 320 -109 c 128,-1,2
 301 -128 301 -128 275 -128 c 128,-1,3
 249 -128 249 -128 230 -109 c 128,-1,4
 211 -90 211 -90 211 -64 c 128,-1,5
 211 -38 211 -38 230 -19 c 128,-1,6
 249 0 249 0 275 0 c 128,-1,7
 301 0 301 0 320 -19 c 128,-1,0
 339 -38 339 -38 339 -64 c 128,-1,1
483 0 m 0,8,9
 490 0 490 0 495 -5 c 128,-1,10
 500 -10 500 -10 500 -17 c 0,11,12
 500 -21 500 -21 498 -25 c 2,13,-1
 266 -540 l 2,14,15
 261 -550 261 -550 250 -550 c 128,-1,16
 239 -550 239 -550 234 -540 c 2,17,-1
 2 -25 l 2,18,19
 0 -21 0 -21 0 -17 c 0,20,21
 0 -10 0 -10 5 -5 c 128,-1,22
 10 0 10 0 17 0 c 2,23,-1
 67 0 l 2,24,25
 78 0 78 0 83 -10 c 2,26,-1
 276 -434 l 1,27,-1
 467 -10 l 2,28,29
 472 0 472 0 483 0 c 0,8,9
EndSplineSet
EndChar

StartChar: uniEB84
Encoding: 60292 60292 82
GlifName: uniE_B_84
Width: 128
Flags: W
HStem: -20 276
VStem: -20 40<-19.9951 105.959>
LayerCount: 2
Fore
SplineSet
0 -20 m 128,-1,1
 -20 -20 -20 -20 -20 0 c 0,2,3
 -20 52 -20 52 -36 96.5 c 128,-1,4
 -52 141 -52 141 -69 162.5 c 128,-1,5
 -86 184 -86 184 -107 207 c 128,-1,6
 -128 230 -128 230 -128 237 c 128,-1,7
 -128 244 -128 244 -122.5 250 c 128,-1,8
 -117 256 -117 256 -105 256 c 128,-1,9
 -93 256 -93 256 -56 212 c 0,10,11
 -21 173 -21 173 0 115 c 1,12,13
 18 166 18 166 54 211 c 0,14,15
 92 256 92 256 105 256 c 0,16,17
 128 256 128 256 128 236 c 0,18,19
 128 231 128 231 102 201 c 128,-1,20
 76 171 76 171 74 168 c 0,21,22
 52 141 52 141 36 96.5 c 128,-1,23
 20 52 20 52 20 0 c 0,24,0
 20 -20 20 -20 0 -20 c 128,-1,1
EndSplineSet
Validated: 1
EndChar

StartChar: uniEAA0
Encoding: 60064 60064 83
GlifName: uniE_A_A_0
Width: 214
Flags: W
HStem: 0 21G<140 150> 236 20G<68 78>
VStem: -15 248
LayerCount: 2
Fore
SplineSet
27 129 m 1,0,-1
 19 117 l 1,1,-1
 -15 139 l 1,2,-1
 57 247 l 2,3,4
 63 256 63 256 73 256 c 128,-1,5
 83 256 83 256 90 249 c 2,6,-1
 191 127 l 1,7,-1
 199 139 l 1,8,-1
 233 117 l 1,9,-1
 161 9 l 2,10,11
 155 0 155 0 145 0 c 128,-1,12
 135 0 135 0 128 7 c 2,13,-1
 27 129 l 1,0,-1
EndSplineSet
Validated: 1
EndChar

StartChar: uniE246
Encoding: 57926 57926 84
GlifName: uniE_246
Width: 246
Flags: W
VStem: 0 32<-629 -513 -379.598 -283 -148.441 -52 85.3247 178 304.758 395> 160 43<-960.805 -897.037> 186 44<-135.672 -4.72192> 196 44<-902.349 -674.984 -588.218 -451.333 -370.497 -219.77>
LayerCount: 2
Fore
SplineSet
32 178 m 5,0,-1
 32 165 l 6,1,2
 32 72 32 72 134 -67 c 4,3,4
 168 -114 168 -114 182 -136 c 5,5,6
 186 -121 186 -121 186 -93 c 4,7,8
 186 -29 186 -29 138.5 41 c 132,-1,9
 91 111 91 111 32 178 c 5,0,-1
32 395 m 5,10,11
 32 343 32 343 54 287.5 c 4,12,13
 75.1090909091 234.727272727 75.1090909091 234.727272727 102 193 c 6,14,-1
 160 103 l 6,15,16
 230 -6 230 -6 230 -99 c 4,17,18
 230 -142 230 -142 210 -188 c 5,19,20
 240 -249 240 -249 240 -305.5 c 132,-1,21
 240 -362 240 -362 210 -419 c 5,22,23
 240 -481 240 -481 240 -532 c 132,-1,24
 240 -583 240 -583 204 -627 c 5,25,26
 246 -701 246 -701 246 -766 c 4,27,28
 246 -855 246 -855 203 -950 c 4,29,30
 198 -961 198 -961 184.5 -961 c 4,31,32
 174 -961 174 -961 167 -953 c 132,-1,33
 160 -945 160 -945 160 -937 c 6,34,-1
 160 -933 l 5,35,36
 203 -850 203 -850 203 -765.5 c 4,37,38
 203 -687 203 -687 96 -574 c 4,39,40
 78 -555 78 -555 32 -513 c 5,41,-1
 32 -629 l 5,42,-1
 0 -629 l 5,43,-1
 0 395 l 5,44,-1
 32 395 l 5,10,11
32 -52 m 5,45,-1
 32 -66 l 6,46,47
 32 -137 32 -137 84 -224 c 4,48,49
 90 -234 90 -234 128 -288.5 c 132,-1,50
 166 -343 166 -343 184 -371 c 5,51,52
 196 -339 196 -339 196 -305 c 4,53,54
 196 -241 196 -241 148.5 -178 c 132,-1,55
 101 -115 101 -115 32 -52 c 5,45,-1
32 -283 m 5,56,-1
 32 -296 l 6,57,58
 32 -367 32 -367 79.5 -442.5 c 132,-1,59
 127 -518 127 -518 180 -589 c 5,60,61
 195 -564 195 -564 196 -536 c 4,62,63
 197 -474 197 -474 148.5 -409 c 4,64,65
 101 -346 101 -346 32 -283 c 5,56,-1
EndSplineSet
Validated: 33
EndChar

StartChar: uniE568
Encoding: 58728 58728 85
GlifName: uniE_568
Width: 546
VWidth: 1000
Flags: W
HStem: 0 104<385.627 459.64> 0 76<60.3975 160.903> 160 104<86.3605 160.373> 188 76<385.097 485.603>
VStem: 0 29<96.1311 170.427> 517 29<93.5735 167.869>
LayerCount: 2
Fore
SplineSet
410 264 m 0,0,1
 466 264 466 264 506 225.5 c 128,-1,2
 546 187 546 187 546 132 c 0,3,4
 546 78 546 78 513.5 39 c 128,-1,5
 481 0 481 0 432 0 c 0,6,7
 405 0 405 0 385 14.5 c 128,-1,8
 365 29 365 29 365 52 c 128,-1,9
 365 75 365 75 380.5 89.5 c 128,-1,10
 396 104 396 104 418 104 c 0,11,12
 452 104 452 104 465 73 c 1,13,14
 487 76 487 76 502 92.5 c 128,-1,15
 517 109 517 109 517 132 c 0,16,17
 517 156 517 156 498.5 172 c 128,-1,18
 480 188 480 188 454 188 c 0,19,20
 422 188 422 188 389.5 168.5 c 128,-1,21
 357 149 357 149 329 121.5 c 128,-1,22
 301 94 301 94 272.5 66.5 c 128,-1,23
 244 39 244 39 208.5 19.5 c 128,-1,24
 173 0 173 0 136 0 c 0,25,26
 80 0 80 0 40 38.5 c 128,-1,27
 0 77 0 77 0 132 c 0,28,29
 0 186 0 186 32.5 225 c 128,-1,30
 65 264 65 264 114 264 c 0,31,32
 141 264 141 264 161 249.5 c 128,-1,33
 181 235 181 235 181 212 c 128,-1,34
 181 189 181 189 165.5 174.5 c 128,-1,35
 150 160 150 160 128 160 c 0,36,37
 94 160 94 160 81 191 c 1,38,39
 59 188 59 188 44 171.5 c 128,-1,40
 29 155 29 155 29 132 c 0,41,42
 29 108 29 108 47.5 92 c 128,-1,43
 66 76 66 76 92 76 c 0,44,45
 124 76 124 76 156.5 95.5 c 128,-1,46
 189 115 189 115 217 142.5 c 128,-1,47
 245 170 245 170 273.5 197.5 c 128,-1,48
 302 225 302 225 337.5 244.5 c 128,-1,49
 373 264 373 264 410 264 c 0,0,1
EndSplineSet
EndChar

StartChar: uniE243
Encoding: 57923 57923 86
GlifName: uniE_243
Width: 307
Flags: W
VStem: 0 32<-29 46.0801 176 274.182 406 483> 251 43<342.993 489.696> 264 43<576.268 734.978>
LayerCount: 2
Fore
SplineSet
32 176 m 5,0,1
 188 266 188 266 231 345 c 4,2,3
 251 382 251 382 251 418.5 c 132,-1,4
 251 455 251 455 237 491 c 5,5,6
 226 477 226 477 178.5 433 c 132,-1,7
 131 389 131 389 103.5 359.5 c 132,-1,8
 76 330 76 330 54 287.5 c 132,-1,9
 32 245 32 245 32 201 c 6,10,-1
 32 176 l 5,0,1
307 650 m 4,11,12
 307 590 307 590 269 531 c 5,13,14
 294 478 294 478 294 424.5 c 132,-1,15
 294 371 294 371 266 319 c 132,-1,16
 238 267 238 267 202 233 c 6,17,-1
 124 157 l 5,18,19
 32 63 32 63 32 -29 c 5,20,-1
 0 -29 l 5,21,-1
 0 483 l 5,22,-1
 32 483 l 5,23,-1
 32 406 l 5,24,25
 264 527 264 527 264 650 c 4,26,27
 264 677 264 677 250 713 c 5,28,-1
 250 717 l 6,29,30
 250 727 250 727 257 734 c 132,-1,31
 264 741 264 741 274 741 c 4,32,33
 298 741 298 741 304 680 c 5,34,-1
 306 669 l 6,35,36
 307 662 307 662 307 650 c 4,11,12
EndSplineSet
Validated: 1
EndChar

StartChar: uniE4E7
Encoding: 58599 58599 87
GlifName: uniE_4E_7
Width: 307
Flags: W
HStem: -201 55<45.5 153.366> 55 55<125.75 232.066>
VStem: -27 135<-143.3 -68.1748> 53 134<112.7 187.825> 68 56<-521.705 -488.687>
LayerCount: 2
Fore
SplineSet
249 78 m 1,0,1
 185 55 185 55 145.5 55 c 128,-1,2
 106 55 106 55 79.5 77.5 c 128,-1,3
 53 100 53 100 53 133.5 c 128,-1,4
 53 167 53 167 75 188.5 c 128,-1,5
 97 210 97 210 127.5 210 c 128,-1,6
 158 210 158 210 171.5 193.5 c 128,-1,7
 185 177 185 177 187 164 c 128,-1,8
 189 151 189 151 196.5 130.5 c 128,-1,9
 204 110 204 110 217 110 c 128,-1,10
 230 110 230 110 251 135.5 c 128,-1,11
 272 161 272 161 278 172.5 c 128,-1,12
 284 184 284 184 293.5 183.5 c 128,-1,13
 303 183 303 183 307 174 c 1,14,-1
 124 -512 l 1,15,16
 114 -522 114 -522 96 -522 c 128,-1,17
 78 -522 78 -522 68 -512 c 1,18,-1
 171 -177 l 1,19,20
 104 -201 104 -201 65 -201 c 128,-1,21
 26 -201 26 -201 -0.5 -178.5 c 128,-1,22
 -27 -156 -27 -156 -27 -122.5 c 128,-1,23
 -27 -89 -27 -89 -5.5 -67.5 c 128,-1,24
 16 -46 16 -46 46.5 -46 c 128,-1,25
 77 -46 77 -46 91 -62.5 c 128,-1,26
 105 -79 105 -79 108 -98 c 0,27,28
 116 -146 116 -146 140 -146 c 0,29,30
 152 -146 152 -146 174 -118 c 0,31,32
 197 -92 197 -92 202 -77 c 2,33,-1
 249 78 l 1,0,1
EndSplineSet
Validated: 1
EndChar

StartChar: uniE282
Encoding: 57986 57986 88
GlifName: uniE_282
Width: 179
Flags: W
VStem: 0 179<-157.984 -97.2188 104.016 164.781> 66 40<-375.995 -193 -65 69 197 363.995>
LayerCount: 2
Fore
SplineSet
66 -193 m 1,0,-1
 22 -210 l 2,1,2
 0 -218 0 -218 0 -199 c 2,3,-1
 0 -117 l 2,4,5
 0 -106 0 -106 18 -99 c 2,6,-1
 66 -80 l 1,7,-1
 66 69 l 1,8,-1
 22 52 l 2,9,10
 0 44 0 44 0 63 c 2,11,-1
 0 145 l 2,12,13
 0 156 0 156 18 163 c 2,14,-1
 66 182 l 1,15,-1
 66 344 l 2,16,17
 66 364 66 364 86 364 c 128,-1,18
 106 364 106 364 106 344 c 2,19,-1
 106 197 l 1,20,-1
 157 218 l 1,21,22
 179 224 179 224 179 206 c 2,23,-1
 179 124 l 2,24,25
 179 113 179 113 159 105 c 2,26,-1
 106 84 l 1,27,-1
 106 -65 l 1,28,-1
 157 -45 l 1,29,30
 179 -39 179 -39 179 -56 c 2,31,-1
 179 -138 l 2,32,33
 179 -149 179 -149 159 -157 c 2,34,-1
 106 -178 l 1,35,-1
 106 -356 l 2,36,37
 106 -376 106 -376 86 -376 c 128,-1,38
 66 -376 66 -376 66 -356 c 2,39,-1
 66 -193 l 1,0,-1
EndSplineSet
Validated: 1
EndChar

StartChar: uniE272
Encoding: 57970 57970 89
GlifName: uniE_272
Width: 166
Flags: W
VStem: 0 32<-93 53 163 376> 134 32<-386.995 -163 -53 93>
LayerCount: 2
Fore
SplineSet
32 -93 m 1,0,-1
 134 -53 l 1,1,-1
 134 93 l 1,2,-1
 32 53 l 1,3,-1
 32 -93 l 1,0,-1
18 -207 m 2,4,5
 0 -213 0 -213 0 -194 c 2,6,-1
 0 376 l 1,7,8
 -40 361 -40 361 -50 354 c 128,-1,9
 -60 347 -60 347 -66 347 c 0,10,11
 -82 347 -82 347 -82 362 c 0,12,13
 -82 367 -82 367 -77 377 c 0,14,15
 -27 456 -27 456 -3 561 c 0,16,17
 0 578 0 578 6.5 581 c 128,-1,18
 13 584 13 584 18 584 c 0,19,20
 28 584 28 584 33 565 c 0,21,22
 65 445 65 445 108 377 c 0,23,24
 113 367 113 367 113 362 c 0,25,26
 113 347 113 347 97 347 c 0,27,28
 92 347 92 347 75.5 356 c 128,-1,29
 59 365 59 365 32 376 c 1,30,-1
 32 163 l 1,31,-1
 148 207 l 2,32,33
 166 213 166 213 166 194 c 2,34,-1
 166 -366 l 2,35,36
 166 -387 166 -387 150 -387 c 128,-1,37
 134 -387 134 -387 134 -366 c 2,38,-1
 134 -163 l 1,39,-1
 18 -207 l 2,4,5
EndSplineSet
Validated: 1
EndChar

StartChar: uniE651
Encoding: 58961 58961 91
GlifName: uniE_651
Width: 427
Flags: W
HStem: 0 21G<107 133> 230 68<54.4574 106.16> 296 66<322.816 375.359> 494 18<244.751 310.539>
VStem: -1 45<307.162 388.489> 128 18<324.008 364.998> 168 41<316.5 396.834> 258 53<172.794 223.316> 380 46<349.5 435.843>
LayerCount: 2
Fore
SplineSet
237 104 m 1,0,1
 152 -0 152 -0 114 0 c 0,2,3
 100 0 100 0 99 12 c 0,4,5
 99 36 99 36 148.5 77 c 128,-1,6
 198 118 198 118 227 123 c 1,7,8
 258 160 258 160 258 173 c 0,9,10
 258 199 258 199 213 253 c 128,-1,11
 168 307 168 307 168 326 c 128,-1,12
 168 345 168 345 193.5 410.5 c 128,-1,13
 219 476 219 476 229 493 c 1,14,15
 146 486 146 486 95 439 c 128,-1,16
 44 392 44 392 44 347 c 0,17,18
 44 321 44 321 58.5 309.5 c 128,-1,19
 73 298 73 298 86.5 298 c 128,-1,20
 100 298 100 298 114 316 c 128,-1,21
 128 334 128 334 128 358 c 0,22,23
 128 365 128 365 137 365 c 128,-1,24
 146 365 146 365 146 358 c 0,25,26
 146 309 146 309 119.5 269.5 c 128,-1,27
 93 230 93 230 65 230 c 128,-1,28
 37 230 37 230 18 252 c 128,-1,29
 -1 274 -1 274 -1 310 c 0,30,31
 -1 382 -1 382 70 447 c 128,-1,32
 141 512 141 512 256 512 c 0,33,34
 335 512 335 512 380.5 464.5 c 128,-1,35
 426 417 426 417 426 365 c 0,36,37
 426 334 426 334 409 315 c 128,-1,38
 392 296 392 296 373 296 c 0,39,40
 315 296 315 296 284 388 c 0,41,42
 283 391 283 391 286.5 394.5 c 128,-1,43
 290 398 290 398 294 398 c 128,-1,44
 298 398 298 398 300 395 c 0,45,46
 305 384 305 384 319 373 c 128,-1,47
 333 362 333 362 346 362 c 128,-1,48
 359 362 359 362 370 372 c 0,49,50
 380 382 380 382 380 399 c 0,51,52
 380 434 380 434 346 464 c 128,-1,53
 312 494 312 494 256 494 c 2,54,-1
 249 494 l 1,55,56
 240 478 240 478 224.5 434 c 128,-1,57
 209 390 209 390 209 383 c 0,58,59
 209 360 209 360 260 301 c 128,-1,60
 311 242 311 242 311 215 c 0,61,62
 311 199 311 199 252 123 c 1,63,64
 274 122 274 122 308 106 c 128,-1,65
 342 90 342 90 353 80.5 c 128,-1,66
 364 71 364 71 377 81 c 2,67,-1
 415 110 l 2,68,69
 418 113 418 113 423 108 c 128,-1,70
 428 103 428 103 428 98 c 128,-1,71
 428 93 428 93 373 47.5 c 128,-1,72
 318 2 318 2 300 2 c 0,73,74
 290 2 290 2 272 50.5 c 128,-1,75
 254 99 254 99 237 104 c 1,0,1
EndSplineSet
Validated: 1
EndChar

StartChar: uniE274
Encoding: 57972 57972 92
GlifName: uniE_274
Width: 261
Flags: W
VStem: 0 85<-222.508 -207 39.4922 55> 46 39<-391.995 -223 -94 39 168 341.995> 174 87<-60 -45.3652 202 217.666> 174 40<-346.995 -173 -45 89 218 426>
LayerCount: 2
Fore
SplineSet
269 401 m 1,0,-1
 214 427 l 1,1,-1
 214 218 l 1,2,-1
 239 227 l 1,3,4
 261 233 261 233 261 215 c 2,5,-1
 261 134 l 2,6,7
 261 120 261 120 241 114 c 1,8,-1
 214 104 l 1,9,-1
 214 -45 l 1,10,-1
 239 -35 l 1,11,12
 261 -29 261 -29 261 -47 c 2,13,-1
 261 -128 l 2,14,15
 261 -142 261 -142 241 -148 c 1,16,-1
 214 -159 l 1,17,-1
 214 -328 l 2,18,19
 214 -347 214 -347 194 -347 c 128,-1,20
 174 -347 174 -347 174 -328 c 2,21,-1
 174 -173 l 1,22,-1
 85 -207 l 1,23,-1
 85 -372 l 2,24,25
 85 -392 85 -392 65.5 -392 c 128,-1,26
 46 -392 46 -392 46 -372 c 2,27,-1
 46 -223 l 1,28,-1
 22 -232 l 2,29,30
 0 -241 0 -241 0 -220 c 2,31,-1
 0 -139 l 2,32,33
 0 -128 0 -128 18 -121 c 2,34,-1
 46 -110 l 1,35,-1
 46 39 l 1,36,-1
 22 30 l 2,37,38
 0 21 0 21 0 42 c 2,39,-1
 0 123 l 2,40,41
 0 134 0 134 18 142 c 1,42,-1
 46 152 l 1,43,-1
 46 322 l 2,44,45
 46 342 46 342 65.5 342 c 128,-1,46
 85 342 85 342 85 322 c 2,47,-1
 85 168 l 1,48,-1
 174 202 l 1,49,-1
 174 426 l 1,50,51
 147 414 147 414 136.5 407.5 c 128,-1,52
 126 401 126 401 122 401 c 0,53,54
 108 401 108 401 108 416 c 0,55,56
 108 418 108 418 113 428 c 0,57,58
 158 498 158 498 179 594 c 0,59,60
 183 609 183 609 187.5 611.5 c 128,-1,61
 192 614 192 614 198 614 c 0,62,63
 208 614 208 614 212 598 c 0,64,65
 239 491 239 491 279 428 c 0,66,67
 284 418 284 418 284 416 c 0,68,69
 284 401 284 401 269 401 c 1,0,-1
85 -94 m 1,70,-1
 174 -60 l 1,71,-1
 174 89 l 1,72,-1
 85 55 l 1,73,-1
 85 -94 l 1,70,-1
EndSplineSet
Validated: 1
EndChar

StartChar: uniE083
Encoding: 57475 57475 93
GlifName: uniE_083
Width: 340
Flags: W
HStem: -256 24<106.926 191.85> 0 30<75.0308 206.138> 232 24<103.221 193.006>
VStem: 0 93<-202.045 -127> 12 81<139 209.998> 222 119<-189.781 -35.8496> 222 105<50.8955 205.405>
LayerCount: 2
Fore
SplineSet
158 -232 m 0,0,1
 222 -232 222 -232 222 -113 c 2,2,-1
 222 -96 l 2,3,4
 222 -67 222 -67 220 -47.5 c 128,-1,5
 218 -28 218 -28 206.5 -14 c 128,-1,6
 195 0 195 0 171 0 c 2,7,-1
 89 0 l 2,8,9
 75 0 75 0 75 14 c 128,-1,10
 75 28 75 28 89 30 c 1,11,-1
 171 30 l 2,12,13
 199 30 199 30 210 46 c 128,-1,14
 221 62 221 62 222 98 c 1,15,-1
 222 139 l 2,16,17
 222 232 222 232 154 232 c 0,18,19
 93 232 93 232 93 199 c 0,20,21
 93 188 93 188 111.5 175 c 128,-1,22
 130 162 130 162 130 151 c 0,23,24
 130 126 130 126 112.5 108.5 c 128,-1,25
 95 91 95 91 70.5 91 c 128,-1,26
 46 91 46 91 29 109 c 128,-1,27
 12 127 12 127 12 151 c 0,28,29
 12 198 12 198 54 228 c 0,30,31
 98 256 98 256 163.5 256 c 128,-1,32
 229 256 229 256 278 227.5 c 128,-1,33
 327 199 327 199 327 139 c 0,34,35
 327 96 327 96 318 73.5 c 128,-1,36
 309 51 309 51 298 46 c 0,37,38
 269 34 269 34 269 15 c 0,39,40
 269 2 269 2 305 -22 c 0,41,42
 317 -29 317 -29 329 -53.5 c 128,-1,43
 341 -78 341 -78 341 -113 c 0,44,45
 341 -182 341 -182 289.5 -219 c 128,-1,46
 238 -256 238 -256 165.5 -256 c 128,-1,47
 93 -256 93 -256 48 -224 c 0,48,49
 0 -194 0 -194 0 -140 c 0,50,51
 0 -114 0 -114 20 -92 c 0,52,53
 41 -73 41 -73 68.5 -73 c 128,-1,54
 96 -73 96 -73 114 -93 c 0,55,56
 134 -112 134 -112 134 -140 c 0,57,58
 134 -153 134 -153 114 -168 c 0,59,60
 93 -182 93 -182 93 -198 c 128,-1,61
 93 -214 93 -214 112 -223 c 128,-1,62
 131 -232 131 -232 158 -232 c 0,0,1
EndSplineSet
Validated: 1
EndChar

StartChar: uniE0C0
Encoding: 57536 57536 94
GlifName: uniE_0C_0
Width: 336
Flags: W
HStem: -115 230<7e-08 62.375>
VStem: 0 337<-108.296 -68.1875>
LayerCount: 2
Fore
SplineSet
327 -74 m 2,0,1
 337 -81 337 -81 337 -91.5 c 128,-1,2
 337 -102 337 -102 330.5 -108.5 c 128,-1,3
 324 -115 324 -115 314 -115 c 2,4,-1
 23 -115 l 2,5,6
 14 -115 14 -115 7 -108.5 c 128,-1,7
 0 -102 0 -102 0 -93 c 2,8,-1
 0 93 l 2,9,10
 0 102 0 102 6.5 108.5 c 128,-1,11
 13 115 13 115 21 115 c 128,-1,12
 29 115 29 115 35 112 c 2,13,-1
 327 -74 l 2,0,1
EndSplineSet
Validated: 1
EndChar

StartChar: uniEAA4
Encoding: 60068 60068 95
GlifName: uniE_A_A_4
Width: 256
Flags: W
HStem: 199 114<159.047 225> 292 114<31.25 96.2478>
LayerCount: 2
Fore
SplineSet
297 368 m 0,0,1
 313 368 313 368 313 352 c 0,2,3
 313 345 313 345 309 341 c 2,4,-1
 200 210 l 2,5,6
 191 199 191 199 176.5 199 c 128,-1,7
 162 199 162 199 139 226 c 128,-1,8
 116 253 116 253 98 268 c 0,9,10
 74 292 74 292 45.5 292 c 128,-1,11
 17 292 17 292 -3 275 c 1,12,-1
 -29 243 l 2,13,14
 -34 237 -34 237 -40.5 237 c 128,-1,15
 -47 237 -47 237 -52 242 c 128,-1,16
 -57 247 -57 247 -57 253 c 128,-1,17
 -57 259 -57 259 -53 263 c 2,18,-1
 56 395 l 2,19,20
 64 406 64 406 79 406 c 128,-1,21
 94 406 94 406 117 379.5 c 128,-1,22
 140 353 140 353 161.5 333 c 128,-1,23
 183 313 183 313 211 313 c 128,-1,24
 239 313 239 313 259 330 c 1,25,-1
 285 362 l 2,26,27
 290 368 290 368 297 368 c 0,0,1
EndSplineSet
Validated: 1
EndChar

StartChar: uniE564
Encoding: 58724 58724 96
GlifName: uniE_564
Width: 212
Flags: W
LayerCount: 2
Fore
SplineSet
-170 -534 m 2,0,-1
 199 -237 l 2,1,2
 207 -231 207 -231 215.5 -231 c 128,-1,3
 224 -231 224 -231 231.5 -237.5 c 128,-1,4
 239 -244 239 -244 239 -256.5 c 128,-1,5
 239 -269 239 -269 229 -275 c 1,6,-1
 -138 -572 l 1,7,8
 -148 -578 -148 -578 -156.5 -578 c 128,-1,9
 -165 -578 -165 -578 -172 -570 c 128,-1,10
 -179 -562 -179 -562 -179 -551 c 128,-1,11
 -179 -540 -179 -540 -170 -534 c 2,0,-1
EndSplineSet
Validated: 1
EndChar

StartChar: uniE4E9
Encoding: 58601 58601 97
GlifName: uniE_4E_9
Width: 358
Flags: W
HStem: -457 55<5.5 126.473> -201 55<67.25 186.75> 55 55<125.5 231.705> 311 55<187.25 293.748>
VStem: -69 135<-399.3 -324.175> -7 135<-144.231 -68.1748> 53 134<111.769 187.825> 115 135<367.769 443.825>
LayerCount: 2
Fore
SplineSet
308 334 m 1,0,1
 245 311 245 311 206.5 311 c 128,-1,2
 168 311 168 311 141.5 333.5 c 128,-1,3
 115 356 115 356 115 389.5 c 128,-1,4
 115 423 115 423 136 444.5 c 128,-1,5
 157 466 157 466 187 466 c 128,-1,6
 217 466 217 466 232 449.5 c 128,-1,7
 247 433 247 433 250 416 c 0,8,9
 251 397 251 397 259 382 c 0,10,11
 266 366 266 366 282 366 c 0,12,13
 290 366 290 366 305.5 388.5 c 128,-1,14
 321 411 321 411 328 425.5 c 128,-1,15
 335 440 335 440 344 440 c 128,-1,16
 353 440 353 440 358 430 c 1,17,-1
 118 -768 l 1,18,19
 108 -778 108 -778 90 -778 c 128,-1,20
 72 -778 72 -778 61 -768 c 1,21,-1
 136 -432 l 1,22,23
 70 -457 70 -457 27 -457 c 128,-1,24
 -16 -457 -16 -457 -42.5 -434.5 c 128,-1,25
 -69 -412 -69 -412 -69 -378.5 c 128,-1,26
 -69 -345 -69 -345 -47 -323.5 c 128,-1,27
 -25 -302 -25 -302 5.5 -302 c 128,-1,28
 36 -302 36 -302 49.5 -318.5 c 128,-1,29
 63 -335 63 -335 66 -354 c 0,30,31
 74 -402 74 -402 98 -402 c 0,32,33
 110 -402 110 -402 133.5 -372.5 c 128,-1,34
 157 -343 157 -343 160 -328 c 2,35,-1
 194 -177 l 1,36,37
 131 -201 131 -201 88.5 -201 c 128,-1,38
 46 -201 46 -201 19.5 -178.5 c 128,-1,39
 -7 -156 -7 -156 -7 -122.5 c 128,-1,40
 -7 -89 -7 -89 14.5 -67.5 c 128,-1,41
 36 -46 36 -46 66.5 -46 c 128,-1,42
 97 -46 97 -46 111 -62.5 c 128,-1,43
 125 -79 125 -79 128 -96 c 0,44,45
 129 -115 129 -115 137 -130 c 0,46,47
 144 -146 144 -146 157 -146 c 128,-1,48
 170 -146 170 -146 192 -118 c 0,49,50
 213 -88 213 -88 216 -74 c 2,51,-1
 251 79 l 1,52,53
 184 55 184 55 145 55 c 128,-1,54
 106 55 106 55 79.5 77.5 c 128,-1,55
 53 100 53 100 53 133.5 c 128,-1,56
 53 167 53 167 75 188.5 c 128,-1,57
 97 210 97 210 127.5 210 c 128,-1,58
 158 210 158 210 171.5 193.5 c 128,-1,59
 185 177 185 177 187 160 c 128,-1,60
 189 143 189 143 198 126 c 0,61,62
 204 110 204 110 217.5 110 c 128,-1,63
 231 110 231 110 250 138 c 128,-1,64
 269 166 269 166 273 179 c 1,65,-1
 308 334 l 1,0,1
EndSplineSet
Validated: 1
EndChar

StartChar: uniE610
Encoding: 58896 58896 98
GlifName: uniE_610
Width: 384
Flags: W
HStem: 0 21G<8 24 366.5 373.5> 205 136<32 354>
VStem: 0 32<0.00366211 205> 354 32<4.64099 205>
LayerCount: 2
Fore
SplineSet
32 15 m 2,0,1
 32 0 32 0 16 0 c 128,-1,2
 0 0 0 0 0 15 c 2,3,-1
 0 331 l 2,4,5
 0 341 0 341 11 341 c 2,6,-1
 375 341 l 2,7,8
 386 341 386 341 386 331 c 2,9,-1
 386 15 l 2,10,11
 386 9 386 9 381.5 4.5 c 128,-1,12
 377 0 377 0 370 0 c 128,-1,13
 363 0 363 0 358.5 4.5 c 128,-1,14
 354 9 354 9 354 15 c 2,15,-1
 354 205 l 1,16,-1
 32 205 l 1,17,-1
 32 15 l 2,0,1
EndSplineSet
Validated: 1
EndChar

StartChar: uniE624
Encoding: 58916 58916 99
GlifName: uniE_624
Width: 203
Flags: W
HStem: 0 21G<96.5 107.5> 302 31<71.8986 133.21>
VStem: 0 54<122.599 285.964> 80 44<7.73499 87.2129> 151 53<123.758 285.964>
LayerCount: 2
Fore
SplineSet
124 77 m 1,0,-1
 127 25 l 2,1,2
 128 15 128 15 120.5 7.5 c 128,-1,3
 113 0 113 0 102 0 c 128,-1,4
 91 0 91 0 83.5 7.5 c 128,-1,5
 76 15 76 15 77 25 c 2,6,-1
 80 77 l 1,7,-1
 80 79 l 1,8,9
 43 88 43 88 21.5 123.5 c 128,-1,10
 0 159 0 159 0 208.5 c 128,-1,11
 0 258 0 258 28.5 295.5 c 128,-1,12
 57 333 57 333 102 333 c 128,-1,13
 147 333 147 333 175.5 295.5 c 128,-1,14
 204 258 204 258 204 208.5 c 128,-1,15
 204 159 204 159 181.5 123.5 c 128,-1,16
 159 88 159 88 124 79 c 1,17,-1
 124 77 l 1,0,-1
151 205 m 128,-1,19
 151 302 151 302 102.5 302 c 128,-1,20
 54 302 54 302 54 205 c 128,-1,21
 54 108 54 108 102.5 108 c 128,-1,18
 151 108 151 108 151 205 c 128,-1,19
EndSplineSet
Validated: 1
EndChar

StartChar: uniE093
Encoding: 57491 57491 100
GlifName: uniE_093
Width: 180
Flags: W
VStem: 102 52<-126.346 126.017>
LayerCount: 2
Fore
SplineSet
38 -256 m 0,0,1
 38 -255 38 -255 53.5 -231 c 128,-1,2
 69 -207 69 -207 85.5 -147.5 c 128,-1,3
 102 -88 102 -88 102 0 c 128,-1,4
 102 88 102 88 85.5 148 c 128,-1,5
 69 208 69 208 53.5 231.5 c 128,-1,6
 38 255 38 255 38 256 c 0,7,8
 38 269 38 269 51 269 c 0,9,10
 60 269 60 269 85 231.5 c 128,-1,11
 110 194 110 194 132 125.5 c 128,-1,12
 154 57 154 57 154 -2 c 128,-1,13
 154 -61 154 -61 132 -126.5 c 128,-1,14
 110 -192 110 -192 85 -230.5 c 128,-1,15
 60 -269 60 -269 51 -269 c 0,16,17
 38 -269 38 -269 38 -256 c 0,0,1
EndSplineSet
Validated: 1
EndChar

StartChar: uniE0D9
Encoding: 57561 57561 101
GlifName: uniE_0D_9
Width: 372
Flags: W
HStem: -140 21G<33 51> -108 25<108.562 141.292> 83 31<226.053 286.36>
VStem: 299 74<49.3618 117.493>
LayerCount: 2
Fore
SplineSet
299 56 m 0,0,1
 299 83 299 83 271 83 c 128,-1,2
 243 83 243 83 172.5 36.5 c 128,-1,3
 102 -10 102 -10 88 -26 c 128,-1,4
 74 -42 74 -42 74 -56 c 0,5,6
 74 -83 74 -83 101.5 -83 c 128,-1,7
 129 -83 129 -83 199.5 -36.5 c 128,-1,8
 270 10 270 10 284.5 26 c 128,-1,9
 299 42 299 42 299 56 c 0,0,1
128 114 m 1,10,-1
 208 108 l 1,11,12
 231 108 231 108 274 124 c 0,13,14
 312 141 312 141 330.5 141 c 128,-1,15
 349 141 349 141 361 127.5 c 128,-1,16
 373 114 373 114 373 99 c 128,-1,17
 373 84 373 84 354 54 c 0,18,19
 336 29 336 29 330.5 13.5 c 128,-1,20
 325 -2 325 -2 323.5 -28 c 128,-1,21
 322 -54 322 -54 318 -71 c 128,-1,22
 314 -88 314 -88 296 -101 c 128,-1,23
 278 -114 278 -114 245 -114 c 1,24,-1
 165 -108 l 1,25,26
 138 -108 138 -108 99 -124 c 128,-1,27
 60 -140 60 -140 42 -140 c 128,-1,28
 24 -140 24 -140 12 -127 c 128,-1,29
 0 -114 0 -114 0 -97.5 c 128,-1,30
 0 -81 0 -81 20 -54 c 0,31,32
 37 -28 37 -28 42.5 -13 c 128,-1,33
 48 2 48 2 49 25.5 c 128,-1,34
 50 49 50 49 53.5 68 c 128,-1,35
 57 87 57 87 76 100.5 c 128,-1,36
 95 114 95 114 128 114 c 1,10,-1
EndSplineSet
Validated: 1
EndChar

StartChar: uniE092
Encoding: 57490 57490 102
GlifName: uniE_092
Width: 180
Flags: W
VStem: 26 52<-126.346 128.276>
LayerCount: 2
Fore
SplineSet
142 -256 m 0,0,1
 142 -269 142 -269 129 -269 c 0,2,3
 120 -269 120 -269 95 -230.5 c 128,-1,4
 70 -192 70 -192 48 -126.5 c 128,-1,5
 26 -61 26 -61 26 -2 c 128,-1,6
 26 57 26 57 48 128 c 0,7,8
 73 198 73 198 96.5 233.5 c 128,-1,9
 120 269 120 269 129 269 c 0,10,11
 142 269 142 269 142 256 c 0,12,13
 142 255 142 255 126.5 231.5 c 128,-1,14
 111 208 111 208 94.5 148 c 128,-1,15
 78 88 78 88 78 0 c 128,-1,16
 78 -88 78 -88 94.5 -147.5 c 128,-1,17
 111 -207 111 -207 126.5 -231 c 128,-1,18
 142 -255 142 -255 142 -256 c 0,0,1
EndSplineSet
Validated: 1
EndChar

StartChar: uniE522
Encoding: 58658 58658 103
GlifName: uniE_522
Width: 437
Flags: W
HStem: -170 33<-43.9023 21.8481> 251 34<62.2183 127 263 332.843> 446 32<311.939 378.506>
VStem: -102 58<-136.835 -97.1938> 379 58<405.357 445.809>
LayerCount: 2
Fore
SplineSet
48 -63 m 128,-1,1
 49 -61 49 -61 54 -42 c 2,2,-1
 127 251 l 1,3,-1
 74 251 l 2,4,5
 67 251 67 251 62 256 c 0,6,7
 58 262 58 262 58 268 c 128,-1,8
 58 274 58 274 62 280 c 0,9,10
 69 285 69 285 74 285 c 2,11,-1
 136 285 l 1,12,13
 162 363 162 363 221.5 420.5 c 128,-1,14
 281 478 281 478 350 478 c 0,15,16
 386 478 386 478 411.5 460.5 c 128,-1,17
 437 443 437 443 437 413 c 128,-1,18
 437 383 437 383 424 359 c 0,19,20
 409 336 409 336 388 336 c 128,-1,21
 367 336 367 336 354 349 c 128,-1,22
 341 362 341 362 341 378.5 c 128,-1,23
 341 395 341 395 360 407.5 c 128,-1,24
 379 420 379 420 379 435 c 0,25,26
 379 446 379 446 357 446 c 2,27,-1
 354 446 l 1,28,29
 352 445 352 445 342 445 c 0,30,31
 306 445 306 445 282 372 c 0,32,33
 281 367 281 367 277.5 351.5 c 128,-1,34
 274 336 274 336 269.5 315 c 128,-1,35
 265 294 265 294 263 285 c 1,36,-1
 321 285 l 2,37,38
 328 285 328 285 333 280 c 128,-1,39
 338 275 338 275 338 268 c 128,-1,40
 338 261 338 261 333 256 c 128,-1,41
 328 251 328 251 321 251 c 2,42,-1
 254 251 l 1,43,-1
 203 86 l 2,44,45
 176 -3 176 -3 113.5 -86.5 c 128,-1,46
 51 -170 51 -170 -15 -170 c 0,47,48
 -50 -170 -50 -170 -76 -152 c 128,-1,49
 -102 -134 -102 -134 -102 -103 c 128,-1,50
 -102 -72 -102 -72 -88.5 -50 c 128,-1,51
 -75 -28 -75 -28 -53.5 -28 c 128,-1,52
 -32 -28 -32 -28 -19 -41 c 128,-1,53
 -6 -54 -6 -54 -6 -70.5 c 128,-1,54
 -6 -87 -6 -87 -25 -99.5 c 128,-1,55
 -44 -112 -44 -112 -44 -127 c 0,56,57
 -44 -137 -44 -137 -21 -137 c 2,58,-1
 -15 -137 l 2,59,60
 1 -137 1 -137 12 -128.5 c 128,-1,61
 23 -120 23 -120 24 -120 c 0,62,63
 39 -97 39 -97 42 -85 c 2,64,-1
 46 -69 l 2,65,0
 47 -65 47 -65 48 -63 c 128,-1,1
EndSplineSet
Validated: 1
EndChar

StartChar: uniE520
Encoding: 58656 58656 104
GlifName: uniE_520
Width: 407
Flags: W
HStem: -141 15<-68.9121 18.3899 122.639 179.868> -4 38<192.611 261.769> 235 48<83.0952 147 243.925 311.656>
VStem: 312 95<105.357 234.846>
LayerCount: 2
Fore
SplineSet
288 235 m 0,0,1
 260 235 260 235 237 204.5 c 128,-1,2
 214 174 214 174 202 136 c 128,-1,3
 190 98 190 98 190 72 c 0,4,5
 190 34 190 34 219 34 c 0,6,7
 245 34 245 34 263.5 54.5 c 128,-1,8
 282 75 282 75 297 128 c 128,-1,9
 312 181 312 181 312 208 c 128,-1,10
 312 235 312 235 288 235 c 0,0,1
119 -112 m 2,11,12
 119 -126 119 -126 165 -126 c 0,13,14
 180 -128 180 -128 180 -134.5 c 128,-1,15
 180 -141 180 -141 173 -141 c 0,16,17
 83 -136 83 -136 55 -136 c 128,-1,18
 27 -136 27 -136 -61 -141 c 0,19,20
 -69 -141 -69 -141 -69 -134.5 c 128,-1,21
 -69 -128 -69 -128 -59 -126 c 128,-1,22
 -49 -124 -49 -124 -2 -124 c 0,23,24
 20 -124 20 -124 23 -111 c 1,25,-1
 131 202 l 2,26,27
 134 211 134 211 134 217 c 0,28,29
 134 235 134 235 114 235 c 128,-1,30
 94 235 94 235 69 205.5 c 128,-1,31
 44 176 44 176 30 141 c 0,32,33
 26 132 26 132 17.5 132 c 128,-1,34
 9 132 9 132 9 139 c 128,-1,35
 9 146 9 146 22 172 c 0,36,37
 75 283 75 283 134 283 c 0,38,39
 160 283 160 283 179 269.5 c 128,-1,40
 198 256 198 256 204 232 c 1,41,42
 224 255 224 255 252 269 c 128,-1,43
 280 283 280 283 304 283 c 0,44,45
 353 283 353 283 380 251.5 c 128,-1,46
 407 220 407 220 407 172 c 0,47,48
 407 88 407 88 352.5 42 c 128,-1,49
 298 -4 298 -4 255 -4 c 128,-1,50
 212 -4 212 -4 188 10 c 0,51,52
 179 15 179 15 170 15 c 128,-1,53
 161 15 161 15 157 5 c 2,54,-1
 119 -107 l 1,55,-1
 119 -112 l 2,11,12
EndSplineSet
Validated: 1
EndChar

StartChar: uniE062
Encoding: 57442 57442 105
GlifName: uniE_062
Width: 688
Flags: W
HStem: -180 104<585.47 658.53> -89 211<80.66 176.974> 76 104<585.47 658.53> 243 26<178.468 298.423>
VStem: 0 217<-44.9336 80.4941> 413 125<-111.014 121.757> 570 104<-164.53 -91.4705 91.4705 164.53>
LayerCount: 2
Fore
SplineSet
570 128 m 128,-1,1
 570 150 570 150 585 165 c 128,-1,2
 600 180 600 180 622 180 c 128,-1,3
 644 180 644 180 659 165 c 128,-1,4
 674 150 674 150 674 128 c 128,-1,5
 674 106 674 106 659 91 c 128,-1,6
 644 76 644 76 622 76 c 128,-1,7
 600 76 600 76 585 91 c 128,-1,0
 570 106 570 106 570 128 c 128,-1,1
570 -128 m 128,-1,9
 570 -106 570 -106 585 -91 c 128,-1,10
 600 -76 600 -76 622 -76 c 128,-1,11
 644 -76 644 -76 659 -91 c 128,-1,12
 674 -106 674 -106 674 -128 c 128,-1,13
 674 -150 674 -150 659 -165 c 128,-1,14
 644 -180 644 -180 622 -180 c 128,-1,15
 600 -180 600 -180 585 -165 c 128,-1,8
 570 -150 570 -150 570 -128 c 128,-1,9
238 269 m 0,16,17
 371 269 371 269 456 202 c 1,18,19
 538 132 538 132 538 12 c 0,20,21
 538 -61 538 -61 507 -133.5 c 128,-1,22
 476 -206 476 -206 426 -260 c 0,23,24
 335 -361 335 -361 177.5 -443 c 128,-1,25
 20 -525 20 -525 3.5 -525 c 128,-1,26
 -13 -525 -13 -525 -13 -512 c 0,27,28
 -13 -507 -13 -507 -9 -503 c 0,29,30
 42 -473 42 -473 103 -434 c 128,-1,31
 164 -395 164 -395 227 -341.5 c 128,-1,32
 290 -288 290 -288 324.5 -242.5 c 128,-1,33
 359 -197 359 -197 388 -130 c 0,34,35
 413 -63 413 -63 413 2 c 0,36,37
 413 99 413 99 365 171 c 128,-1,38
 317 243 317 243 238 243 c 0,39,40
 182 243 182 243 140 205.5 c 128,-1,41
 98 168 98 168 80 114 c 1,42,43
 99 122 99 122 115 122 c 0,44,45
 157 122 157 122 187 91 c 128,-1,46
 217 60 217 60 217 18 c 128,-1,47
 217 -24 217 -24 188 -58 c 0,48,49
 157 -89 157 -89 113.5 -89 c 128,-1,50
 70 -89 70 -89 34 -58 c 0,51,52
 0 -24 0 -24 0 19 c 0,53,54
 0 122 0 122 69.5 195.5 c 128,-1,55
 139 269 139 269 238 269 c 0,16,17
EndSplineSet
Validated: 1
EndChar

StartChar: uniE4D1
Encoding: 58577 58577 106
GlifName: uniE_4D_1
Width: 457
Flags: W
HStem: 0 21G<6 56.5 150 200>
LayerCount: 2
Fore
SplineSet
156 0 m 2,0,1
 144 0 144 0 144 14 c 0,2,3
 144 17 144 17 145 19 c 2,4,-1
 382 494 l 2,5,6
 390 512 390 512 412 512 c 2,7,-1
 445 512 l 2,8,9
 457 512 457 512 457 500 c 0,10,11
 457 495 457 495 456 494 c 2,12,-1
 218 19 l 1,13,14
 211 2 211 2 189 0 c 1,15,-1
 156 0 l 2,0,1
1 19 m 2,16,-1
 239 494 l 2,17,18
 247 512 247 512 268 512 c 2,19,-1
 301 512 l 2,20,21
 312 512 312 512 313 503.5 c 128,-1,22
 314 495 314 495 313 494 c 2,23,-1
 75 19 l 1,24,25
 68 2 68 2 45 0 c 1,26,-1
 12 0 l 2,27,28
 0 0 0 0 0 12 c 0,29,30
 0 18 0 18 1 19 c 2,16,-1
EndSplineSet
Validated: 1
EndChar

StartChar: uniE047
Encoding: 57415 57415 107
GlifName: uniE_047
Width: 512
Flags: W
HStem: 0 31<319.239 406.216> 302 62<58.2822 101.718> 404 62<410.282 453.718> 737 31<105.752 192.761>
VStem: 0 80<576.725 693.887> 49 62<311.282 354.718> 177 115<575.595 673.207> 220 115<95.6602 192.405> 401 62<413.282 456.718> 432 80<74.1127 191.275>
LayerCount: 2
Fore
SplineSet
401 435 m 128,-1,1
 401 448 401 448 410 457 c 128,-1,2
 419 466 419 466 432 466 c 128,-1,3
 445 466 445 466 454 457 c 128,-1,4
 463 448 463 448 463 435 c 128,-1,5
 463 422 463 422 454 413 c 128,-1,6
 445 404 445 404 432 404 c 128,-1,7
 419 404 419 404 410 413 c 128,-1,0
 401 422 401 422 401 435 c 128,-1,1
49 333 m 128,-1,9
 49 346 49 346 58 355 c 128,-1,10
 67 364 67 364 80 364 c 128,-1,11
 93 364 93 364 102 355 c 128,-1,12
 111 346 111 346 111 333 c 128,-1,13
 111 320 111 320 102 311 c 128,-1,14
 93 302 93 302 80 302 c 128,-1,15
 67 302 67 302 58 311 c 128,-1,8
 49 320 49 320 49 333 c 128,-1,9
177 620 m 0,16,17
 177 667 177 667 218 685 c 1,18,19
 212 708 212 708 192 722.5 c 128,-1,20
 172 737 172 737 145 737 c 128,-1,21
 118 737 118 737 99 714.5 c 128,-1,22
 80 692 80 692 80 660 c 0,23,24
 80 537 80 537 256 436 c 1,25,-1
 451 768 l 1,26,-1
 512 768 l 1,27,-1
 303 411 l 1,28,29
 398 359 398 359 455 299 c 128,-1,30
 512 239 512 239 512 165.5 c 128,-1,31
 512 92 512 92 468.5 46 c 128,-1,32
 425 0 425 0 365.5 0 c 128,-1,33
 306 0 306 0 262 45 c 0,34,35
 220 90 220 90 220 151 c 128,-1,36
 220 212 220 212 275 212 c 0,37,38
 304 212 304 212 319.5 193 c 128,-1,39
 335 174 335 174 335 148 c 0,40,41
 335 101 335 101 294 83 c 1,42,43
 300 60 300 60 320 45.5 c 128,-1,44
 340 31 340 31 367 31 c 128,-1,45
 394 31 394 31 413 53.5 c 128,-1,46
 432 76 432 76 432 108 c 0,47,48
 432 231 432 231 256 332 c 1,49,-1
 61 0 l 1,50,-1
 0 0 l 1,51,-1
 209 357 l 1,52,53
 114 409 114 409 57 469 c 128,-1,54
 0 529 0 529 0 602.5 c 128,-1,55
 0 676 0 676 43 722 c 0,56,57
 87 768 87 768 146.5 768 c 128,-1,58
 206 768 206 768 250 724 c 0,59,60
 292 679 292 679 292 617.5 c 128,-1,61
 292 556 292 556 237 556 c 0,62,63
 207 556 207 556 192 575 c 128,-1,64
 177 594 177 594 177 620 c 0,16,17
EndSplineSet
Validated: 1
EndChar

StartChar: uniE4E1
Encoding: 58593 58593 108
GlifName: uniE_4E_1
Width: 152
Flags: W
HStem: 236 20G<5 148.5>
VStem: 0 154<-256 256>
LayerCount: 2
Fore
SplineSet
143 -256 m 2,0,-1
 10 -256 l 2,1,2
 0 -256 0 -256 0 -246 c 2,3,-1
 0 246 l 2,4,5
 0 256 0 256 10 256 c 2,6,-1
 143 256 l 2,7,8
 154 256 154 256 154 246 c 2,9,-1
 154 -246 l 2,10,11
 154 -256 154 -256 143 -256 c 2,0,-1
EndSplineSet
Validated: 1
EndChar

StartChar: uniE086
Encoding: 57478 57478 109
GlifName: uniE_086
Width: 348
Flags: W
HStem: -256 24<138.673 212.238> 6 24<138.066 212.602> 232 24<153.498 229.702>
VStem: 0 120<-129.863 -2.4668 16 120.531> 237 111<-192.63 -32.0947> 242 94<125.789 209.569>
LayerCount: 2
Fore
SplineSet
226 -24 m 0,0,1
 214 6 214 6 175 6 c 128,-1,2
 136 6 136 6 127 -24 c 0,3,4
 120 -46 120 -46 120 -98 c 2,5,-1
 120 -128 l 2,6,7
 120 -180 120 -180 127 -202 c 0,8,9
 136 -232 136 -232 176 -232 c 128,-1,10
 216 -232 216 -232 226.5 -198 c 128,-1,11
 237 -164 237 -164 237 -109 c 128,-1,12
 237 -54 237 -54 226 -24 c 0,0,1
120 16 m 1,13,14
 150 28 150 28 174 30 c 0,15,16
 254 30 254 30 302 -6 c 0,17,18
 348 -43 348 -43 348 -112.5 c 128,-1,19
 348 -182 348 -182 301 -219 c 128,-1,20
 254 -256 254 -256 173 -256 c 128,-1,21
 92 -256 92 -256 46 -180 c 128,-1,22
 0 -104 0 -104 0 -1 c 128,-1,23
 0 102 0 102 54 180 c 0,24,25
 109 256 109 256 195 256 c 0,26,27
 251 256 251 256 293.5 227 c 128,-1,28
 336 198 336 198 336 151 c 0,29,30
 336 122 336 122 316 103 c 0,31,32
 298 83 298 83 270 83 c 128,-1,33
 242 83 242 83 222 103 c 128,-1,34
 202 123 202 123 202 151 c 0,35,36
 202 162 202 162 222 176 c 0,37,38
 242 188 242 188 242 201.5 c 128,-1,39
 242 215 242 215 228 224 c 0,40,41
 212 232 212 232 195 232 c 0,42,43
 149 232 149 232 134 195 c 0,44,45
 118 159 118 159 118 90 c 0,46,47
 118 70 118 70 119 53 c 128,-1,48
 120 36 120 36 120 16 c 1,13,14
EndSplineSet
Validated: 1
EndChar

StartChar: uniE4E0
Encoding: 58592 58592 110
GlifName: uniE_4E_0
Width: 460
Flags: W
HStem: 236 20G<5 148.5 312 456>
VStem: 0 154<-256 256> 307 154<-256 256>
LayerCount: 2
Fore
SplineSet
451 -256 m 2,0,-1
 317 -256 l 2,1,2
 307 -256 307 -256 307 -246 c 2,3,-1
 307 246 l 2,4,5
 307 256 307 256 317 256 c 2,6,-1
 451 256 l 2,7,8
 461 256 461 256 461 246 c 2,9,-1
 461 -246 l 2,10,11
 461 -256 461 -256 451 -256 c 2,0,-1
143 -256 m 2,12,-1
 10 -256 l 2,13,14
 0 -256 0 -256 0 -246 c 2,15,-1
 0 246 l 2,16,17
 0 256 0 256 10 256 c 2,18,-1
 143 256 l 2,19,20
 154 256 154 256 154 246 c 2,21,-1
 154 -246 l 2,22,23
 154 -256 154 -256 143 -256 c 2,12,-1
EndSplineSet
Validated: 1
EndChar

StartChar: uniE4C9
Encoding: 58569 58569 111
GlifName: uniE_4C_9
Width: 750
VWidth: 1000
Flags: W
HStem: -400 125<35 715> -225 75<160 590> -120 120<333.049 416.951>
VStem: 0 35<-275 -0.00415039> 125 35<-150 -0.00415039> 315 120<-101.951 -18.0487> 590 35<-150 -0.00415039> 715 35<-275 -0.00415039>
LayerCount: 2
Fore
SplineSet
315 -60 m 128,-1,1
 315 -35 315 -35 332.5 -17.5 c 128,-1,2
 350 0 350 0 375 0 c 128,-1,3
 400 0 400 0 417.5 -17.5 c 128,-1,4
 435 -35 435 -35 435 -60 c 128,-1,5
 435 -85 435 -85 417.5 -102.5 c 128,-1,6
 400 -120 400 -120 375 -120 c 128,-1,7
 350 -120 350 -120 332.5 -102.5 c 128,-1,0
 315 -85 315 -85 315 -60 c 128,-1,1
134 -225 m 2,8,9
 125 -225 125 -225 125 -216 c 2,10,-1
 125 -17 l 2,11,12
 125 0 125 0 142 0 c 0,13,14
 160 0 160 0 160 -17 c 2,15,-1
 160 -150 l 1,16,-1
 590 -150 l 1,17,-1
 590 -17 l 2,18,19
 590 0 590 0 608 0 c 0,20,21
 625 0 625 0 625 -17 c 2,22,-1
 625 -216 l 2,23,24
 625 -225 625 -225 616 -225 c 2,25,-1
 134 -225 l 2,8,9
9 -400 m 2,26,27
 0 -400 0 -400 0 -391 c 2,28,-1
 0 -17 l 2,29,30
 0 0 0 0 17 0 c 0,31,32
 35 0 35 0 35 -17 c 2,33,-1
 35 -275 l 1,34,-1
 715 -275 l 1,35,-1
 715 -17 l 2,36,37
 715 0 715 0 733 0 c 0,38,39
 750 0 750 0 750 -17 c 2,40,-1
 750 -391 l 2,41,42
 750 -400 750 -400 741 -400 c 2,43,-1
 9 -400 l 2,26,27
EndSplineSet
EndChar

StartChar: uniE4E8
Encoding: 58600 58600 112
GlifName: uniE_4E_8
Width: 332
Flags: W
HStem: -201 55<18.5 138.926> 55 55<85.5 193.146> 311 55<157.5 263.017>
VStem: -56 135<-143.506 -68.1747> 13 135<112.7 187.825> 84 134.5<368.494 443.825>
CounterMasks: 1 e0
LayerCount: 2
Fore
SplineSet
110 334 m 0,0,1
 84 357 84 357 84 390 c 128,-1,2
 84 423 84 423 105.5 444.5 c 128,-1,3
 127 466 127 466 157 466 c 128,-1,4
 187 466 187 466 202 449 c 128,-1,5
 217 432 217 432 218.5 416.5 c 128,-1,6
 220 401 220 401 228 382 c 0,7,8
 237 366 237 366 248.5 366 c 128,-1,9
 260 366 260 366 280 390 c 0,10,11
 298 416 298 416 303.5 428 c 128,-1,12
 309 440 309 440 319 439.5 c 128,-1,13
 329 439 329 439 333 430 c 1,14,-1
 112 -512 l 1,15,16
 102 -522 102 -522 84 -522 c 128,-1,17
 66 -522 66 -522 55 -512 c 1,18,-1
 143 -177 l 1,19,20
 80 -201 80 -201 39 -201 c 128,-1,21
 -2 -201 -2 -201 -30 -178 c 0,22,23
 -56 -155 -56 -155 -56 -122 c 128,-1,24
 -56 -89 -56 -89 -34.5 -67.5 c 128,-1,25
 -13 -46 -13 -46 16.5 -46 c 128,-1,26
 46 -46 46 -46 61.5 -62.5 c 128,-1,27
 77 -79 77 -79 79 -98 c 0,28,29
 84 -146 84 -146 111 -146 c 0,30,31
 122 -146 122 -146 145 -118 c 0,32,33
 166 -90 166 -90 171 -74 c 2,34,-1
 211 79 l 1,35,36
 144 55 144 55 105 55 c 128,-1,37
 66 55 66 55 39.5 77.5 c 128,-1,38
 13 100 13 100 13 133.5 c 128,-1,39
 13 167 13 167 35 188.5 c 128,-1,40
 57 210 57 210 87.5 210 c 128,-1,41
 118 210 118 210 131.5 193.5 c 128,-1,42
 145 177 145 177 148 158 c 0,43,44
 156 110 156 110 180 110 c 0,45,46
 191 110 191 110 212 138 c 0,47,48
 233 163 233 163 238 179 c 2,49,-1
 279 334 l 1,50,51
 216 311 216 311 177 311 c 128,-1,52
 138 311 138 311 110 334 c 0,0,1
EndSplineSet
Validated: 1
EndChar

StartChar: uniE0D8
Encoding: 57560 57560 113
GlifName: uniE_0D_8
Width: 506
Flags: W
HStem: -141 64<217.049 311.79> -55.5 110<20.7834 127.496 367.173 485.278> 77 64<195.39 288.832>
VStem: 0 188<-38.1628 37.9933> 318 189<-37.9933 37.8812>
LayerCount: 2
Fore
SplineSet
214 77 m 128,-1,1
 202 77 202 77 195 63.5 c 128,-1,2
 188 50 188 50 188 8 c 128,-1,3
 188 -34 188 -34 201.5 -45 c 128,-1,4
 215 -56 215 -56 248 -66.5 c 128,-1,5
 281 -77 281 -77 293.5 -77 c 128,-1,6
 306 -77 306 -77 312 -63.5 c 128,-1,7
 318 -50 318 -50 318 -8 c 128,-1,8
 318 34 318 34 304.5 45 c 128,-1,9
 291 56 291 56 258.5 66.5 c 128,-1,0
 226 77 226 77 214 77 c 128,-1,1
507 0 m 128,-1,11
 507 -26 507 -26 486 -38 c 0,12,13
 463 -48 463 -48 428.5 -54 c 128,-1,14
 394 -60 394 -60 379 -70 c 0,15,16
 363 -78 363 -78 340 -98 c 0,17,18
 314 -118 314 -118 295.5 -129.5 c 128,-1,19
 277 -141 277 -141 254 -141 c 128,-1,20
 231 -141 231 -141 211.5 -129.5 c 128,-1,21
 192 -118 192 -118 165.5 -97 c 128,-1,22
 139 -76 139 -76 126 -69 c 128,-1,23
 113 -62 113 -62 79 -55.5 c 128,-1,24
 45 -49 45 -49 20 -38 c 0,25,26
 0 -26 0 -26 0 0 c 128,-1,27
 0 26 0 26 20 38 c 0,28,29
 45 49 45 49 78.5 54.5 c 128,-1,30
 112 60 112 60 128 70 c 0,31,32
 129 70 129 70 147 83.5 c 128,-1,33
 165 97 165 97 178 106 c 0,34,35
 223 141 223 141 250.5 141 c 128,-1,36
 278 141 278 141 296.5 129.5 c 128,-1,37
 315 118 315 118 339 98 c 128,-1,38
 363 78 363 78 378.5 70 c 128,-1,39
 394 62 394 62 428.5 55 c 128,-1,40
 463 48 463 48 486 38 c 0,41,10
 507 26 507 26 507 0 c 128,-1,11
EndSplineSet
Validated: 1
EndChar

StartChar: uniE0BC
Encoding: 57532 57532 114
GlifName: uniE_0B_C_
Width: 355
Flags: W
HStem: -115 44<71 286>
LayerCount: 2
Fore
SplineSet
71 -71 m 1,0,-1
 286 -71 l 1,1,-1
 178 58 l 1,2,-1
 71 -71 l 1,0,-1
23 -115 m 2,3,4
 14 -115 14 -115 7 -108.5 c 128,-1,5
 0 -102 0 -102 0 -94.5 c 128,-1,6
 0 -87 0 -87 5 -79 c 1,7,-1
 161 108 l 2,8,9
 167 116 167 116 177.5 116 c 128,-1,10
 188 116 188 116 196 108 c 1,11,-1
 350 -79 l 1,12,13
 355 -87 355 -87 355 -94.5 c 128,-1,14
 355 -102 355 -102 349 -108.5 c 128,-1,15
 343 -115 343 -115 334 -115 c 2,16,-1
 23 -115 l 2,3,4
EndSplineSet
Validated: 1
EndChar

StartChar: uniE264
Encoding: 57956 57956 115
GlifName: uniE_264
Width: 384
Flags: W
HStem: 126 31<73.4248 151.25 265.978 341>
VStem: -4 47<145.088 470.985> 9 25<-150 95.78 109 170.681> 126 100<-22.9305 108.128 109 123.637> 188 47<145.088 470.985> 198 28<-150 -24 128 264.71> 318 99<-14.9953 116.411>
LayerCount: 2
Fore
SplineSet
9 -180 m 2,0,-1
 -4 456 l 2,1,2
 -4 471 -4 471 19.5 471 c 128,-1,3
 43 471 43 471 43 456 c 2,4,-1
 35 109 l 1,5,6
 62 136 62 136 81.5 146.5 c 128,-1,7
 101 157 101 157 134.5 157 c 128,-1,8
 168 157 168 157 195 128 c 1,9,-1
 188 456 l 2,10,11
 188 471 188 471 211.5 471 c 128,-1,12
 235 471 235 471 235 456 c 2,13,-1
 227 109 l 1,14,15
 255 136 255 136 274 146.5 c 128,-1,16
 293 157 293 157 325 157 c 128,-1,17
 357 157 357 157 387 125.5 c 128,-1,18
 417 94 417 94 417 44 c 0,19,20
 417 -20 417 -20 272 -142 c 0,21,22
 218 -191 218 -191 216 -191 c 2,23,-1
 210 -191 l 2,24,25
 201 -191 201 -191 201 -180 c 2,26,-1
 198 -24 l 1,27,28
 182 -50 182 -50 147 -82.5 c 128,-1,29
 112 -115 112 -115 80.5 -142.5 c 128,-1,30
 49 -170 49 -170 37 -180.5 c 128,-1,31
 25 -191 25 -191 24 -191 c 2,32,-1
 18 -191 l 2,33,34
 9 -191 9 -191 9 -180 c 2,0,-1
34 77 m 1,35,-1
 31 -150 l 1,36,37
 62 -121 62 -121 94 -53.5 c 128,-1,38
 126 14 126 14 126 62 c 0,39,40
 126 86 126 86 118 106 c 128,-1,41
 110 126 110 126 93 126 c 128,-1,42
 76 126 76 126 62.5 114 c 128,-1,43
 49 102 49 102 34 77 c 1,35,-1
226 77 m 1,44,-1
 223 -150 l 1,45,46
 254 -121 254 -121 286 -53.5 c 128,-1,47
 318 14 318 14 318 62 c 0,48,49
 318 86 318 86 310 106 c 128,-1,50
 302 126 302 126 285 126 c 128,-1,51
 268 126 268 126 254.5 114 c 128,-1,52
 241 102 241 102 226 77 c 1,44,-1
EndSplineSet
Validated: 1
EndChar

StartChar: uniE280
Encoding: 57984 57984 116
GlifName: uniE_280
Width: 202
Flags: W
HStem: 129 32<41.75 123.407>
VStem: -33 101<-15.7415 121.786> 153 53<133.176 481.908> 162 30<-146 101.52 114 148.824>
LayerCount: 2
Fore
SplineSet
162 79 m 17,0,1
 146 106 146 106 133 117.5 c 128,-1,2
 120 129 120 129 102 129 c 128,-1,3
 84 129 84 129 76 107.5 c 128,-1,4
 68 86 68 86 68 63 c 0,5,6
 68 11 68 11 100 -55 c 128,-1,7
 132 -121 132 -121 165 -146 c 1,8,-1
 162 79 l 17,0,1
192 -185 m 18,9,10
 192 -195 192 -195 183 -195 c 2,11,-1
 173 -195 l 2,12,13
 168 -195 168 -195 154.5 -181.5 c 128,-1,14
 141 -168 141 -168 91 -124 c 128,-1,15
 41 -80 41 -80 19 -55 c 0,16,17
 -33 3 -33 3 -33 50.5 c 128,-1,18
 -33 98 -33 98 -4.5 129.5 c 128,-1,19
 24 161 24 161 59.5 161 c 128,-1,20
 95 161 95 161 114.5 150.5 c 128,-1,21
 134 140 134 140 160 114 c 1,22,-1
 153 467 l 2,23,24
 153 482 153 482 179.5 482 c 128,-1,25
 206 482 206 482 206 467 c 2,26,-1
 192 -185 l 18,9,10
EndSplineSet
Validated: 1
EndChar

StartChar: uniEB7E
Encoding: 60286 60286 117
GlifName: uniE_B_7E_
Width: 256
Flags: W
HStem: -10 20<-9.99756 55>
VStem: -10 266
LayerCount: 2
Fore
SplineSet
252 -93 m 1,0,-1
 254 -110 l 1,1,2
 256 -115 256 -115 256 -118 c 0,3,4
 256 -128 256 -128 246 -128 c 0,5,6
 242 -128 242 -128 238 -124 c 0,7,8
 210 -88 210 -88 128 -49 c 128,-1,9
 46 -10 46 -10 0 -10 c 0,10,11
 -10 -10 -10 -10 -10 0 c 128,-1,12
 -10 10 -10 10 0 10 c 0,13,14
 46 10 46 10 128 49 c 128,-1,15
 210 88 210 88 238 124 c 0,16,17
 242 128 242 128 246 128 c 0,18,19
 256 128 256 128 256 118 c 0,20,21
 256 115 256 115 254 110 c 1,22,-1
 252 93 l 1,23,24
 250 86 250 86 249 75 c 128,-1,25
 248 64 248 64 244 36 c 1,26,-1
 243 0 l 1,27,-1
 244 -36 l 1,28,-1
 248 -68 l 2,29,30
 250 -86 250 -86 252 -93 c 1,0,-1
EndSplineSet
Validated: 1
EndChar

StartChar: uniEB82
Encoding: 60290 60290 119
GlifName: uniE_B_82
Width: 256
Flags: W
HStem: -20 40<-104.315 19.9951>
VStem: -256 276
LayerCount: 2
Fore
SplineSet
20 0 m 128,-1,1
 20 -20 20 -20 0 -20 c 0,2,3
 -96 -20 -96 -20 -172 -78 c 0,4,5
 -202 -101 -202 -101 -217 -114.5 c 128,-1,6
 -232 -128 -232 -128 -237.5 -128 c 128,-1,7
 -243 -128 -243 -128 -249.5 -122.5 c 128,-1,8
 -256 -117 -256 -117 -256 -108 c 0,9,10
 -256 -92 -256 -92 -213 -55.5 c 128,-1,11
 -170 -19 -170 -19 -115 0 c 1,12,13
 -170 20 -170 20 -213 57 c 128,-1,14
 -256 94 -256 94 -256 106 c 0,15,16
 -256 128 -256 128 -236 128 c 0,17,18
 -230 128 -230 128 -207 107 c 128,-1,19
 -184 86 -184 86 -162.5 69 c 128,-1,20
 -141 52 -141 52 -95.5 36 c 128,-1,21
 -50 20 -50 20 0 20 c 0,22,0
 20 20 20 20 20 0 c 128,-1,1
EndSplineSet
Validated: 1
EndChar

StartChar: uniE664
Encoding: 58980 58980 120
GlifName: uniE_664
Width: 256
Flags: W
HStem: 0 21G<118.5 137.5>
LayerCount: 2
Fore
SplineSet
128 0 m 128,-1,1
 109 0 109 0 109 19 c 1,2,-1
 1 359 l 2,3,4
 0 360 0 360 0 367 c 128,-1,5
 0 374 0 374 6 378 c 0,6,7
 10 384 10 384 22 384 c 128,-1,8
 34 384 34 384 38 371 c 2,9,-1
 104 160 l 1,10,-1
 128 54 l 1,11,-1
 152 160 l 1,12,-1
 218 371 l 1,13,14
 221 384 221 384 233.5 384 c 128,-1,15
 246 384 246 384 250 378 c 0,16,17
 256 374 256 374 256 367.5 c 128,-1,18
 256 361 256 361 255 359 c 2,19,-1
 147 19 l 1,20,0
 147 0 147 0 128 0 c 128,-1,1
EndSplineSet
Validated: 1
EndChar

StartChar: uniE652
Encoding: 58962 58962 122
GlifName: uniE_652
Width: 203
Flags: W
HStem: 1 21G<64.75 84.25> 260 34<48.3372 108.508>
VStem: -1 34<142.588 234.514> 113 34<202.583 254.93>
LayerCount: 2
Fore
SplineSet
202 108 m 0,0,1
 207 105 207 105 207 100.5 c 128,-1,2
 207 96 207 96 183 73 c 128,-1,3
 159 50 159 50 126.5 25.5 c 128,-1,4
 94 1 94 1 74.5 1 c 128,-1,5
 55 1 55 1 40 20 c 0,6,7
 26 39 26 39 11 88 c 1,8,9
 7 85 7 85 2 89 c 0,10,11
 -2 95 -2 95 -2 97.5 c 128,-1,12
 -2 100 -2 100 6 108 c 1,13,14
 -1 135 -1 135 -1 159 c 0,15,16
 -1 212 -1 212 26.5 253 c 128,-1,17
 54 294 54 294 97 294 c 0,18,19
 121 294 121 294 134 279.5 c 128,-1,20
 147 265 147 265 147 248 c 0,21,22
 147 203 147 203 67 135 c 1,23,-1
 56 126 l 1,24,25
 81 81 81 81 95 64.5 c 128,-1,26
 109 48 109 48 124 56 c 0,27,28
 162 78 162 78 194 110 c 0,29,30
 198 114 198 114 202 108 c 0,0,1
102 250 m 0,31,32
 93 260 93 260 77 260 c 128,-1,33
 61 260 61 260 48 246 c 0,34,35
 33 234 33 234 33 204.5 c 128,-1,36
 33 175 33 175 47 142 c 1,37,38
 113 198 113 198 113 227 c 0,39,40
 113 242 113 242 102 250 c 0,31,32
EndSplineSet
Validated: 1
EndChar

StartChar: uniE653
Encoding: 58963 58963 123
GlifName: uniE_653
Width: 340
Flags: W
HStem: 0 36<193.693 259.163> 430 19<-3.99414 35.3165>
VStem: 114 54<63.9307 216.748> 273 70<63.1068 221.968>
LayerCount: 2
Fore
SplineSet
2 449 m 0,0,1
 46 449 46 449 154 393 c 128,-1,2
 262 337 262 337 312 250 c 0,3,4
 343 198 343 198 343 143.5 c 128,-1,5
 343 89 343 89 308 45 c 0,6,7
 275 0 275 0 228.5 0 c 128,-1,8
 182 0 182 0 148 46.5 c 128,-1,9
 114 93 114 93 114 139.5 c 128,-1,10
 114 186 114 186 142.5 226.5 c 128,-1,11
 171 267 171 267 213 287 c 1,12,13
 173 342 173 342 116.5 380.5 c 128,-1,14
 60 419 60 419 0 430 c 0,15,16
 -4 431 -4 431 -4 440 c 128,-1,17
 -4 449 -4 449 2 449 c 0,0,1
224 271 m 1,18,19
 197 256 197 256 182.5 219.5 c 128,-1,20
 168 183 168 183 168 143 c 128,-1,21
 168 103 168 103 184 70 c 0,22,23
 199 36 199 36 225 36 c 0,24,25
 273 36 273 36 273 116.5 c 128,-1,26
 273 197 273 197 224 271 c 1,18,19
EndSplineSet
Validated: 1
EndChar

StartChar: uniE8C8
Encoding: 59592 59592 124
GlifName: uniE_8C_8
Width: 272
Flags: W
HStem: 0 24<-74.1328 74.1562> 256 24<-239 239> 512 24<-74.2153 74.1328>
VStem: -272 33<179.008 256 280 358.641> 239 33<178.729 256 280 356.992>
CounterMasks: 1 e0
LayerCount: 2
Fore
SplineSet
272 267 m 128,-1,1
 272 155 272 155 192 78 c 0,2,3
 114 0 114 0 0 0 c 128,-1,4
 -114 0 -114 0 -193 78.5 c 128,-1,5
 -272 157 -272 157 -272 268 c 128,-1,6
 -272 379 -272 379 -193 457.5 c 128,-1,7
 -114 536 -114 536 0 536 c 128,-1,8
 114 536 114 536 193 457.5 c 128,-1,0
 272 379 272 379 272 267 c 128,-1,1
239 256 m 1,9,-1
 -239 256 l 1,10,11
 -234 158 -234 158 -165 92 c 0,12,13
 -97 24 -97 24 0 24 c 128,-1,14
 97 24 97 24 166 92 c 128,-1,15
 235 160 235 160 239 256 c 1,9,-1
-239 280 m 1,16,-1
 239 280 l 1,17,18
 234 378 234 378 165 444 c 0,19,20
 97 512 97 512 0 512 c 128,-1,21
 -97 512 -97 512 -166 444 c 128,-1,22
 -235 376 -235 376 -239 280 c 1,16,-1
EndSplineSet
Validated: 1
EndChar

StartChar: uniE248
Encoding: 57928 57928 125
GlifName: uniE_248
Width: 244
Flags: W
VStem: 0 32<-630 -519 -381.945 -282 -146.339 -43 90.1743 194 329.312 432 561.729 650> 160 43<-961.805 -898.116> 186 44<114.688 244.977> 196 44<-903.559 -672.701 -590.155 -450.019 -364.162 -210.992 -126.162 27.0076>
LayerCount: 2
Fore
SplineSet
32 432 m 1,0,-1
 32 412 l 2,1,2
 32 343 32 343 82 258 c 0,3,4
 98 231 98 231 126 192.5 c 128,-1,5
 154 154 154 154 180 114 c 1,6,7
 185 136 185 136 186 161 c 0,8,9
 187 203 187 203 158 260 c 0,10,11
 127 322 127 322 104 349 c 0,12,13
 71 389 71 389 32 432 c 1,0,-1
32 650 m 1,14,15
 32 561 32 561 102 450 c 1,16,-1
 160 360 l 1,17,18
 230 248 230 248 230 161 c 0,19,20
 230 114 230 114 210 62 c 1,21,22
 240 0 240 0 240 -57 c 128,-1,23
 240 -114 240 -114 210 -176 c 1,24,25
 240 -238 240 -238 240 -295 c 128,-1,26
 240 -352 240 -352 210 -414 c 1,27,28
 240 -476 240 -476 240 -529 c 128,-1,29
 240 -582 240 -582 204 -630 c 1,30,31
 246 -704 246 -704 246 -768 c 0,32,33
 246 -856 246 -856 203 -951 c 0,34,35
 198 -962 198 -962 184.5 -962 c 0,36,37
 174 -962 174 -962 167 -954 c 128,-1,38
 160 -946 160 -946 160 -938 c 2,39,-1
 160 -934 l 1,40,41
 203 -852 203 -852 203 -768 c 0,42,43
 203 -706 203 -706 156 -646 c 128,-1,44
 109 -586 109 -586 32 -519 c 1,45,-1
 32 -630 l 1,46,-1
 0 -630 l 1,47,-1
 0 650 l 1,48,-1
 32 650 l 1,14,15
32 194 m 1,49,-1
 32 174 l 2,50,51
 32 99 32 99 83 18 c 0,52,53
 107 -20 107 -20 134 -58 c 0,54,55
 182 -126 182 -126 183 -127 c 1,56,57
 196 -91 196 -91 196 -50.5 c 128,-1,58
 196 -10 196 -10 167 40.5 c 128,-1,59
 138 91 138 91 107 123.5 c 128,-1,60
 76 156 76 156 32 194 c 1,49,-1
32 -43 m 1,61,-1
 32 -64 l 2,62,63
 32 -136 32 -136 83 -220 c 0,64,65
 97 -243 97 -243 138.5 -302 c 128,-1,66
 180 -361 180 -361 183 -365 c 1,67,68
 196 -329 196 -329 196 -288.5 c 128,-1,69
 196 -248 196 -248 167 -197.5 c 128,-1,70
 138 -147 138 -147 104 -111.5 c 128,-1,71
 70 -76 70 -76 32 -43 c 1,61,-1
32 -282 m 1,72,-1
 32 -302 l 2,73,74
 32 -368 32 -368 80 -452 c 0,75,76
 92 -473 92 -473 134.5 -530.5 c 128,-1,77
 177 -588 177 -588 179 -591 c 1,78,79
 195 -564 195 -564 196 -531 c 0,80,81
 197 -488 197 -488 167 -435.5 c 0,82,83
 138 -385 138 -385 107 -352.5 c 128,-1,84
 76 -320 76 -320 32 -282 c 1,72,-1
EndSplineSet
Validated: 33
EndChar

StartChar: uniE59E
Encoding: 58782 58782 126
GlifName: uniE_59E_
Width: 213
Flags: W
HStem: 0 21G<181.25 191.75> 236 20G<109.25 119.75>
VStem: 0 301
LayerCount: 2
Fore
SplineSet
170 7 m 2,0,-1
 69 129 l 1,1,-1
 37 81 l 2,2,3
 31 72 31 72 21.5 72 c 128,-1,4
 12 72 12 72 6 78 c 128,-1,5
 0 84 0 84 0 91 c 128,-1,6
 0 98 0 98 3 103 c 2,7,-1
 98 247 l 2,8,9
 104 256 104 256 114.5 256 c 128,-1,10
 125 256 125 256 131 249 c 2,11,-1
 232 127 l 1,12,-1
 264 175 l 2,13,14
 270 184 270 184 279.5 184 c 128,-1,15
 289 184 289 184 295 178 c 128,-1,16
 301 172 301 172 301 165 c 128,-1,17
 301 158 301 158 298 153 c 2,18,-1
 203 9 l 2,19,20
 197 0 197 0 186.5 0 c 128,-1,21
 176 0 176 0 170 7 c 2,0,-1
EndSplineSet
Validated: 1
EndChar

StartChar: uniE247
Encoding: 57927 57927 127
GlifName: uniE_247
Width: 307
Flags: W
VStem: 0 32<-384 -298.182 -174 -75.5485 51 149.189 282 370.654 512 640> 225 43<29.8264 155> 248 43<239.886 371.169> 256 43<438.313 549.421> 264 43<607.081 740.984>
LayerCount: 2
Fore
SplineSet
265 217 m 5,0,1
 268 167 268 167 268 119 c 4,2,3
 268 24 268 24 185 -86 c 4,4,5
 162 -115 162 -115 122 -167 c 4,6,7
 32 -284 32 -284 32 -379 c 6,8,-1
 32 -384 l 5,9,-1
 0 -384 l 5,10,-1
 0 640 l 5,11,-1
 32 640 l 5,12,-1
 32 512 l 5,13,14
 164 532 164 532 226 589 c 4,15,16
 264 624 264 624 264 667 c 4,17,18
 264 684 264 684 261 700 c 132,-1,19
 258 716 258 716 258 723 c 132,-1,20
 258 730 258 730 266 735 c 4,21,22
 272 741 272 741 285 741 c 132,-1,23
 298 741 298 741 302.5 724.5 c 132,-1,24
 307 708 307 708 307 667.5 c 132,-1,25
 307 627 307 627 288 593 c 5,26,27
 299 547 299 547 299 505 c 132,-1,28
 299 463 299 463 280 425 c 5,29,30
 291 368 291 368 291 317.5 c 132,-1,31
 291 267 291 267 265 217 c 5,0,1
32 -174 m 5,32,33
 174 -45 174 -45 208 37 c 4,34,35
 225 78 225 78 225 118 c 6,36,-1
 225 155 l 5,37,38
 208 132 208 132 162 82.5 c 132,-1,39
 116 33 116 33 98 10 c 4,40,41
 74 -16 74 -16 53 -62.5 c 132,-1,42
 32 -109 32 -109 32 -154 c 6,43,-1
 32 -174 l 5,32,33
32 51 m 5,44,45
 187 156 187 156 228 242 c 4,46,47
 248 284 248 284 248 312.5 c 132,-1,48
 248 341 248 341 244 372 c 5,49,50
 226 350 226 350 179 305.5 c 132,-1,51
 132 261 132 261 105 234 c 132,-1,52
 78 207 78 207 55 164 c 132,-1,53
 32 121 32 121 32 77 c 6,54,-1
 32 51 l 5,44,45
32 282 m 5,55,56
 256 392 256 392 256 508 c 4,57,58
 256 533 256 533 252 550 c 5,59,60
 233 531 233 531 175 490 c 132,-1,61
 117 449 117 449 110 444 c 4,62,63
 79 421 79 421 55.5 384.5 c 132,-1,64
 32 348 32 348 32 307 c 6,65,-1
 32 282 l 5,55,56
EndSplineSet
Validated: 1
EndChar

StartChar: uniE565
Encoding: 58725 58725 128
GlifName: uniE_565
Width: 275
Flags: W
HStem: 228 322
LayerCount: 2
Fore
SplineSet
-211 504 m 2,0,1
 -223 510 -223 510 -223 522 c 128,-1,2
 -223 534 -223 534 -216 542 c 128,-1,3
 -209 550 -209 550 -201.5 550 c 128,-1,4
 -194 550 -194 550 -186 547 c 1,5,-1
 288 275 l 2,6,7
 301 268 301 268 301 255.5 c 128,-1,8
 301 243 301 243 293.5 235.5 c 128,-1,9
 286 228 286 228 277.5 228 c 128,-1,10
 269 228 269 228 263 231 c 2,11,-1
 -211 504 l 2,0,1
EndSplineSet
Validated: 1
EndChar

StartChar: uniE525
Encoding: 58661 58661 129
GlifName: uniE_525
Width: 276
Flags: W
HStem: -15 72<91.6346 258.747> 0 21G<3.5 7.5> 10 58<41.083 193.072> 174 84<40.6783 165.475>
VStem: 262 15<66.7654 117.038>
LayerCount: 2
Fore
SplineSet
262 86 m 0,0,1
 262 97 262 97 257 112 c 1,2,3
 257 119 257 119 265 119 c 0,4,5
 277 119 277 119 277 78 c 128,-1,6
 277 37 277 37 261 11 c 0,7,8
 247 -15 247 -15 223.5 -15 c 128,-1,9
 200 -15 200 -15 132 -2.5 c 128,-1,10
 64 10 64 10 45 10 c 128,-1,11
 26 10 26 10 17 5 c 128,-1,12
 8 0 8 0 7 0 c 0,13,14
 0 0 0 0 0 7 c 0,15,16
 0 11 0 11 3 14 c 2,17,-1
 209 206 l 1,18,19
 190 200 190 200 112 187 c 128,-1,20
 34 174 34 174 33 174 c 0,21,22
 15 174 15 174 15 190 c 0,23,24
 15 215 15 215 41.5 236.5 c 128,-1,25
 68 258 68 258 99 258 c 128,-1,26
 130 258 130 258 170.5 249.5 c 128,-1,27
 211 241 211 241 227 241 c 128,-1,28
 243 241 243 241 251.5 246.5 c 128,-1,29
 260 252 260 252 261 252 c 0,30,31
 268 252 268 252 268 244 c 0,32,33
 268 242 268 242 266 238 c 1,34,-1
 71 57 l 1,35,36
 95 68 95 68 110.5 68 c 128,-1,37
 126 68 126 68 163 62.5 c 128,-1,38
 200 57 200 57 225 57 c 0,39,40
 262 57 262 57 262 86 c 0,0,1
EndSplineSet
Validated: 1
EndChar

StartChar: uniE271
Encoding: 57969 57969 130
GlifName: uniE_271
Width: 178
Flags: W
HStem: 129 32<53.6726 136>
VStem: -28 53<116.724 481.908> -13 24<-471.952 -434.899 -266 -182.719 -146 84.2763> 110 101<-13.9341 121.706>
LayerCount: 2
Fore
SplineSet
79 -53.5 m 128,-1,1
 110 11 110 11 110 70 c 128,-1,2
 110 129 110 129 76 129 c 0,3,4
 58 129 58 129 45 117.5 c 128,-1,5
 32 106 32 106 16 79 c 1,6,-1
 13 -146 l 1,7,0
 48 -118 48 -118 79 -53.5 c 128,-1,1
-13 -266 m 1,8,-1
 -28 467 l 2,9,10
 -28 482 -28 482 -1.5 482 c 128,-1,11
 25 482 25 482 25 467 c 2,12,-1
 18 114 l 1,13,14
 46 142 46 142 64 151.5 c 128,-1,15
 82 161 82 161 118 161 c 128,-1,16
 154 161 154 161 182.5 129.5 c 128,-1,17
 211 98 211 98 211 51 c 128,-1,18
 211 4 211 4 158 -55 c 0,19,20
 135 -80 135 -80 86 -124.5 c 128,-1,21
 37 -169 37 -169 29 -177 c 128,-1,22
 21 -185 21 -185 12 -191 c 1,23,24
 12 -205 12 -205 11.5 -229 c 128,-1,25
 11 -253 11 -253 11 -266 c 1,26,27
 20 -264 20 -264 47.5 -250 c 128,-1,28
 75 -236 75 -236 82 -236 c 0,29,30
 98 -236 98 -236 98 -252 c 0,31,32
 98 -255 98 -255 93 -265 c 0,33,34
 42 -347 42 -347 18 -454 c 0,35,36
 14 -472 14 -472 0 -472 c 128,-1,37
 -14 -472 -14 -472 -18 -450 c 0,38,39
 -36 -353 -36 -353 -92 -265 c 0,40,41
 -97 -255 -97 -255 -97 -252 c 0,42,43
 -97 -236 -97 -236 -81 -236 c 0,44,45
 -75 -236 -75 -236 -48.5 -250 c 128,-1,46
 -22 -264 -22 -264 -13 -266 c 1,8,-1
EndSplineSet
Validated: 1
EndChar

StartChar: uniE069
Encoding: 57449 57449 131
GlifName: uniE_069
Width: 512
Flags: W
HStem: 236 20G<176 281.5 402.5 507>
VStem: 171 116<-256 256> 397 115<-256 256>
LayerCount: 2
Fore
SplineSet
502 -256 m 2,0,-1
 408 -256 l 2,1,2
 397 -256 397 -256 397 -246 c 2,3,-1
 397 246 l 2,4,5
 397 256 397 256 408 256 c 2,6,-1
 502 256 l 2,7,8
 512 256 512 256 512 246 c 2,9,-1
 512 -246 l 2,10,11
 512 -256 512 -256 502 -256 c 2,0,-1
276 -256 m 2,12,-1
 181 -256 l 2,13,14
 171 -256 171 -256 171 -246 c 2,15,-1
 171 246 l 2,16,17
 171 256 171 256 181 256 c 2,18,-1
 276 256 l 2,19,20
 287 256 287 256 287 246 c 2,21,-1
 287 -246 l 2,22,23
 287 -256 287 -256 276 -256 c 2,12,-1
EndSplineSet
Validated: 1
EndChar

StartChar: uniE4A6
Encoding: 58534 58534 132
GlifName: uniE_4A_6
Width: 102
Flags: W
HStem: 0 269<37.8214 66.1786>
VStem: 0 104<186.035 255.077> 39 26<0.00317383 51.9645>
LayerCount: 2
Fore
SplineSet
39 13 m 1,0,-1
 0 225 l 1,1,2
 0 242 0 242 14.5 255.5 c 128,-1,3
 29 269 29 269 52 269 c 128,-1,4
 75 269 75 269 89.5 255.5 c 128,-1,5
 104 242 104 242 104 225 c 1,6,-1
 65 13 l 1,7,8
 64 0 64 0 52 0 c 128,-1,9
 40 0 40 0 39 13 c 1,0,-1
EndSplineSet
Validated: 1
EndChar

StartChar: uniE4E3
Encoding: 58595 58595 133
GlifName: uniE_4E_3
Width: 384
Flags: W
HStem: -160 160<0 384>
LayerCount: 2
Fore
SplineSet
374 -160 m 2,0,-1
 10 -160 l 2,1,2
 0 -160 0 -160 0 -150 c 2,3,-1
 0 -10 l 2,4,5
 0 0 0 0 10 0 c 2,6,-1
 374 0 l 2,7,8
 384 0 384 0 384 -10 c 2,9,-1
 384 -150 l 2,10,11
 384 -160 384 -160 374 -160 c 2,0,-1
EndSplineSet
Validated: 1
EndChar

StartChar: uniE650
Encoding: 58960 58960 134
GlifName: uniE_650
Width: 818
Flags: W
HStem: 0 36<668.766 734.348> 1 55<492.498 532.989> 230 68<54.4574 106.16> 260 34<458.013 516.672> 296 66<322.824 375.359> 430 19<471.094 514.391> 494 18<244.751 310.539>
VStem: -1 45<307.162 388.489> 128 18<324.008 363.999> 168 41<316.5 396.834> 258 53<172.794 223.316> 380 46<349.5 435.843> 409 33<142.739 231.978> 521 36<200.139 255.402> 590 53<83.1453 216.499> 750 69<62.574 217.063>
LayerCount: 2
Fore
SplineSet
237 104 m 1,0,1
 153 0 153 0 114 0 c 0,2,3
 99 0 99 0 99 13 c 0,4,5
 99 35 99 35 148 76.5 c 128,-1,6
 197 118 197 118 227 123 c 1,7,8
 258 160 258 160 258 173 c 0,9,10
 258 199 258 199 213 253 c 128,-1,11
 168 307 168 307 168 326 c 128,-1,12
 168 345 168 345 193.5 410.5 c 128,-1,13
 219 476 219 476 229 493 c 1,14,15
 146 486 146 486 95 439 c 128,-1,16
 44 392 44 392 44 347 c 0,17,18
 44 321 44 321 58.5 309.5 c 128,-1,19
 73 298 73 298 86.5 298 c 128,-1,20
 100 298 100 298 114 316 c 128,-1,21
 128 334 128 334 128 358 c 0,22,23
 128 364 128 364 137 364 c 128,-1,24
 146 364 146 364 146 358 c 0,25,26
 146 309 146 309 119.5 269.5 c 128,-1,27
 93 230 93 230 65 230 c 128,-1,28
 37 230 37 230 18 252 c 128,-1,29
 -1 274 -1 274 -1 310 c 0,30,31
 -1 382 -1 382 70 447 c 128,-1,32
 141 512 141 512 256 512 c 0,33,34
 335 512 335 512 380.5 464.5 c 128,-1,35
 426 417 426 417 426 365 c 0,36,37
 426 334 426 334 409 315 c 128,-1,38
 392 296 392 296 373 296 c 0,39,40
 315 296 315 296 284 388 c 0,41,42
 283 391 283 391 286.5 394.5 c 128,-1,43
 290 398 290 398 294 398 c 128,-1,44
 298 398 298 398 305 388 c 0,45,46
 322 362 322 362 341 362 c 128,-1,47
 360 362 360 362 370 372 c 128,-1,48
 380 382 380 382 380 399 c 0,49,50
 380 434 380 434 346 464 c 128,-1,51
 312 494 312 494 256 494 c 2,52,-1
 249 494 l 1,53,54
 240 478 240 478 224.5 434 c 128,-1,55
 209 390 209 390 209 383 c 0,56,57
 209 360 209 360 260 301 c 128,-1,58
 311 242 311 242 311 215 c 0,59,60
 311 199 311 199 252 123 c 1,61,62
 272 122 272 122 307 106 c 128,-1,63
 342 90 342 90 356 78 c 0,64,65
 364 72 364 72 377 81 c 2,66,-1
 415 110 l 1,67,68
 409 140 409 140 409 159 c 0,69,70
 409 208 409 208 435.5 251 c 128,-1,71
 462 294 462 294 507 294 c 0,72,73
 532 294 532 294 544.5 279.5 c 128,-1,74
 557 265 557 265 557 248 c 0,75,76
 557 201 557 201 476 135 c 2,77,-1
 465 126 l 1,78,79
 471 116 471 116 478.5 100.5 c 128,-1,80
 486 85 486 85 495 75.5 c 128,-1,81
 504 66 504 66 508 60.5 c 128,-1,82
 512 55 512 55 520 56 c 1,83,-1
 533 56 l 1,84,85
 545 59 545 59 596 103 c 1,86,87
 590 126 590 126 590 146 c 0,88,89
 590 186 590 186 618.5 226.5 c 128,-1,90
 647 267 647 267 689 287 c 1,91,92
 650 340 650 340 591.5 381.5 c 128,-1,93
 533 423 533 423 476 430 c 0,94,95
 468 431 468 431 471 440 c 128,-1,96
 474 449 474 449 479 449 c 0,97,98
 591 449 591 449 719 332 c 0,99,100
 819 240 819 240 819 145 c 0,101,102
 819 89 819 89 784.5 44.5 c 128,-1,103
 750 0 750 0 703 0 c 0,104,105
 670 0 670 0 643 24 c 128,-1,106
 616 48 616 48 602 84 c 1,107,108
 538 25 538 25 518.5 13 c 128,-1,109
 499 1 499 1 482 1 c 0,110,111
 444 1 444 1 421 88 c 1,112,113
 417 85 417 85 401.5 72 c 128,-1,114
 386 59 386 59 371 47 c 2,115,-1
 356 35 l 2,116,117
 315 2 315 2 301.5 2 c 128,-1,118
 288 2 288 2 272 50.5 c 128,-1,119
 256 99 256 99 237 104 c 1,0,1
510 250 m 0,120,121
 501 260 501 260 485 260 c 128,-1,122
 469 260 469 260 456 246 c 0,123,124
 442 234 442 234 442 204 c 128,-1,125
 442 174 442 174 457 142 c 1,126,127
 520 196 520 196 521 227 c 0,128,129
 521 242 521 242 510 250 c 0,120,121
699 271 m 1,130,131
 671 256 671 256 657 220 c 128,-1,132
 643 184 643 184 643 143.5 c 128,-1,133
 643 103 643 103 659 69.5 c 128,-1,134
 675 36 675 36 701.5 36 c 128,-1,135
 728 36 728 36 738 60 c 0,136,137
 750 82 750 82 750 119 c 0,138,139
 749 194 749 194 699 271 c 1,130,131
EndSplineSet
Validated: 1
EndChar

StartChar: uniE082
Encoding: 57474 57474 135
GlifName: uniE_082
Width: 375
Flags: W
HStem: -256 81<219 315.29> -188 73<67.6492 134.754> 232 24<130.548 203.94>
VStem: 0 24<-255.976 -213.48> 12 105<111 204.25> 241 119<22.3945 180.563>
LayerCount: 2
Fore
SplineSet
234 -256 m 0,0,1
 204 -256 204 -256 180 -245 c 128,-1,2
 156 -234 156 -234 144 -220 c 0,3,4
 117 -188 117 -188 89 -188 c 128,-1,5
 61 -188 61 -188 43.5 -203.5 c 128,-1,6
 26 -219 26 -219 24 -245 c 0,7,8
 22 -256 22 -256 11 -256 c 128,-1,9
 0 -256 0 -256 0 -245 c 0,10,11
 0 -176 0 -176 62 -122 c 0,12,13
 92 -96 92 -96 115 -79 c 128,-1,14
 138 -62 138 -62 171 -34 c 0,15,16
 241 26 241 26 241 108 c 0,17,18
 241 159 241 159 224 196 c 0,19,20
 206 232 206 232 169 232 c 0,21,22
 146 232 146 232 131.5 222 c 128,-1,23
 117 212 117 212 117 196.5 c 128,-1,24
 117 181 117 181 135 160 c 128,-1,25
 153 139 153 139 153 125 c 0,26,27
 153 95 153 95 132.5 74.5 c 128,-1,28
 112 54 112 54 82.5 54 c 128,-1,29
 53 54 53 54 32 75 c 0,30,31
 12 97 12 97 12 125 c 0,32,33
 12 182 12 182 58 219 c 128,-1,34
 104 256 104 256 175 256 c 128,-1,35
 246 256 246 256 303 215 c 128,-1,36
 360 174 360 174 360 108 c 0,37,38
 360 17 360 17 299 -22 c 0,39,40
 246 -56 246 -56 187 -79.5 c 128,-1,41
 128 -103 128 -103 105 -118 c 1,42,43
 118 -115 118 -115 132 -115 c 0,44,45
 177 -115 177 -115 228 -145 c 128,-1,46
 279 -175 279 -175 309 -175 c 128,-1,47
 339 -175 339 -175 347 -155.5 c 128,-1,48
 355 -136 355 -136 364 -136 c 0,49,50
 376 -136 376 -136 376 -148 c 0,51,52
 376 -176 376 -176 336.5 -216 c 128,-1,53
 297 -256 297 -256 234 -256 c 0,0,1
EndSplineSet
Validated: 1
EndChar

StartChar: uniE4A7
Encoding: 58535 58535 136
GlifName: uniE_4A_7
Width: 102
Flags: W
HStem: -269 269<37.8214 66.1786>
VStem: 0 104<-255.077 -186.035> 39 26<-51.9645 -0.00317383>
LayerCount: 2
Fore
SplineSet
39 -13 m 1,0,1
 40 0 40 0 52 0 c 128,-1,2
 64 0 64 0 65 -13 c 1,3,-1
 104 -225 l 1,4,5
 104 -242 104 -242 89.5 -255.5 c 128,-1,6
 75 -269 75 -269 52 -269 c 128,-1,7
 29 -269 29 -269 14.5 -255.5 c 128,-1,8
 0 -242 0 -242 0 -225 c 1,9,-1
 39 -13 l 1,0,1
EndSplineSet
Validated: 1
EndChar

StartChar: uniE08B
Encoding: 57483 57483 137
GlifName: uniE_08B_
Width: 435
Flags: W
HStem: -268 24<243 313.222> 28 155<313.449 378.904> 243 25<243 315.027>
VStem: 0 140<-121.208 123.347> 205 38<-358 -268 -236 236 268 358> 291 145<50.2617 158.248> 418 25<-126.754 -79.0117>
LayerCount: 2
Fore
SplineSet
416 49 m 0,0,1
 398 28 398 28 370 28 c 128,-1,2
 342 28 342 28 316.5 47.5 c 128,-1,3
 291 67 291 67 291 101 c 128,-1,4
 291 135 291 135 311.5 159 c 128,-1,5
 332 183 332 183 365 183 c 0,6,7
 376 183 376 183 379 182 c 1,8,9
 333 241 333 241 256 243 c 1,10,-1
 243 243 l 1,11,-1
 243 -243 l 1,12,13
 246 -243 246 -243 250 -244 c 1,14,-1
 256 -244 l 2,15,16
 316 -244 316 -244 358.5 -200.5 c 128,-1,17
 401 -157 401 -157 418 -89 c 0,18,19
 421 -79 421 -79 430 -79 c 0,20,21
 443 -79 443 -79 443 -91 c 0,22,23
 443 -118 443 -118 416 -162 c 1,24,25
 385 -225 385 -225 328 -253 c 0,26,27
 295 -269 295 -269 256 -269 c 0,28,29
 252 -269 252 -269 250 -268 c 1,30,-1
 243 -268 l 1,31,-1
 243 -348 l 2,32,33
 243 -358 243 -358 232 -358 c 2,34,-1
 215 -358 l 2,35,36
 205 -358 205 -358 205 -348 c 2,37,-1
 205 -265 l 1,38,39
 100 -248 100 -248 50 -175 c 128,-1,40
 0 -102 0 -102 0 1.5 c 128,-1,41
 0 105 0 105 50 176 c 0,42,43
 97 248 97 248 205 265 c 1,44,-1
 205 348 l 2,45,46
 205 358 205 358 215 358 c 2,47,-1
 232 358 l 2,48,49
 242 358 242 358 243 348 c 1,50,-1
 243 268 l 1,51,-1
 256 268 l 2,52,53
 338 268 338 268 387 212 c 128,-1,54
 436 156 436 156 436 101 c 0,55,56
 436 69 436 69 416 49 c 0,0,1
205 -236 m 1,57,-1
 205 236 l 1,58,59
 164 221 164 221 152 177.5 c 128,-1,60
 140 134 140 134 140 52 c 2,61,-1
 140 -52 l 2,62,63
 140 -134 140 -134 152 -177.5 c 128,-1,64
 164 -221 164 -221 205 -236 c 1,57,-1
EndSplineSet
Validated: 1
EndChar

StartChar: uniE56E
Encoding: 58734 58734 138
GlifName: uniE_56E_
Width: 710
VWidth: 1000
Flags: W
HStem: 0 250
LayerCount: 2
Fore
SplineSet
19 71 m 0,0,1
 0 71 0 71 0 90 c 0,2,3
 0 96 0 96 97 241 c 0,4,5
 104 250 104 250 113 250 c 0,6,7
 121 250 121 250 128 243 c 2,8,-1
 227 124 l 1,9,-1
 305 241 l 1,10,11
 312 250 312 250 321 250 c 0,12,13
 329 250 329 250 336 243 c 2,14,-1
 435 124 l 1,15,-1
 513 241 l 1,16,17
 520 250 520 250 530 250 c 0,18,19
 538 250 538 250 545 243 c 2,20,-1
 643 124 l 1,21,-1
 674 170 l 1,22,23
 681 179 681 179 691 179 c 0,24,25
 710 179 710 179 710 160 c 0,26,27
 710 153 710 153 707 149 c 5,28,-1
 613 9 l 5,29,30
 606 0 606 0 597 0 c 0,31,32
 589 0 589 0 582 7 c 2,33,-1
 483 126 l 1,34,-1
 405 9 l 1,35,36
 398 0 398 0 389 0 c 0,37,38
 381 0 381 0 374 7 c 2,39,-1
 275 126 l 1,40,-1
 197 9 l 1,41,42
 190 0 190 0 180 0 c 0,43,44
 172 0 172 0 165 7 c 2,45,-1
 67 126 l 1,46,47
 40 86 40 86 33.5 78.5 c 128,-1,48
 27 71 27 71 19 71 c 0,0,1
EndSplineSet
EndChar

StartChar: uniE4E2
Encoding: 58594 58594 139
GlifName: uniE_4E_2
Width: 152
Flags: W
HStem: 0 21G<5 148.5> 236 20G<5 148.5>
VStem: 0 154<0 256>
LayerCount: 2
Fore
SplineSet
143 0 m 2,0,-1
 10 0 l 2,1,2
 0 0 0 0 0 10 c 2,3,-1
 0 246 l 2,4,5
 0 256 0 256 10 256 c 2,6,-1
 143 256 l 2,7,8
 154 256 154 256 154 246 c 2,9,-1
 154 10 l 2,10,11
 154 0 154 0 143 0 c 2,0,-1
EndSplineSet
Validated: 1
EndChar

StartChar: uniE05C
Encoding: 57436 57436 140
GlifName: uniE_05C_
Width: 697
Flags: W
HStem: -512 29<388.117 491.633> -239 164<319 379.5> -72 29<419.292 519.398> 43 29<419.57 519.398> 75 164<319 379.5> 483 29<385.759 491.633>
VStem: 0 142<-512 512> 184 42<-512 -19 19 512> 269 106<-443.822 -350.5 350.5 453.25> 312 28<-238.996 -152.848 152.848 238.996> 568 128<-380.741 -163.774 163.774 380.741>
LayerCount: 2
Fore
SplineSet
326 0 m 128,-1,1
 326 -75 326 -75 372 -75 c 0,2,3
 387 -75 387 -75 415.5 -59 c 128,-1,4
 444 -43 444 -43 462 -43 c 0,5,6
 557 -43 557 -43 627 -104 c 0,7,8
 696 -167 696 -167 696 -256 c 0,9,10
 696 -512 696 -512 425 -512 c 0,11,12
 360 -512 360 -512 314.5 -470.5 c 128,-1,13
 269 -429 269 -429 269 -367 c 0,14,15
 269 -334 269 -334 292 -311 c 128,-1,16
 315 -288 315 -288 347 -288 c 128,-1,17
 379 -288 379 -288 402 -311 c 128,-1,18
 425 -334 425 -334 425 -367 c 0,19,20
 425 -387 425 -387 400 -405.5 c 128,-1,21
 375 -424 375 -424 375 -443 c 128,-1,22
 375 -462 375 -462 389.5 -472.5 c 128,-1,23
 404 -483 404 -483 425 -483 c 0,24,25
 508 -483 508 -483 538 -426 c 128,-1,26
 568 -369 568 -369 568 -269 c 128,-1,27
 568 -169 568 -169 550 -124 c 0,28,29
 531 -72 531 -72 462 -72 c 0,30,31
 410 -72 410 -72 374 -117 c 0,32,33
 340 -163 340 -163 340 -224 c 0,34,35
 340 -239 340 -239 326 -239 c 128,-1,36
 312 -239 312 -239 312 -224 c 0,37,38
 312 -105 312 -105 226 -19 c 1,39,-1
 226 -502 l 2,40,41
 226 -512 226 -512 216 -512 c 2,42,-1
 195 -512 l 2,43,44
 184 -512 184 -512 184 -502 c 2,45,-1
 184 502 l 2,46,47
 184 512 184 512 195 512 c 2,48,-1
 216 512 l 2,49,50
 226 512 226 512 226 502 c 2,51,-1
 226 19 l 1,52,53
 312 105 312 105 312 224 c 0,54,55
 312 239 312 239 326 239 c 128,-1,56
 340 239 340 239 340 224 c 0,57,58
 340 163 340 163 374 117 c 0,59,60
 410 72 410 72 462 72 c 0,61,62
 531 72 531 72 550 124 c 0,63,64
 568 169 568 169 568 269 c 128,-1,65
 568 369 568 369 538 426 c 128,-1,66
 508 483 508 483 425 483 c 0,67,68
 404 483 404 483 390 472 c 0,69,70
 375 463 375 463 375 443.5 c 128,-1,71
 375 424 375 424 400 405.5 c 128,-1,72
 425 387 425 387 425 367 c 0,73,74
 425 334 425 334 402 311 c 128,-1,75
 379 288 379 288 347 288 c 128,-1,76
 315 288 315 288 292 311 c 128,-1,77
 269 334 269 334 269 367 c 0,78,79
 269 428 269 428 314 470 c 0,80,81
 360 512 360 512 425 512 c 0,82,83
 696 512 696 512 696 256 c 0,84,85
 696 167 696 167 627 104 c 0,86,87
 557 43 557 43 462 43 c 0,88,89
 445 43 445 43 416 59 c 128,-1,90
 387 75 387 75 372 75 c 0,91,0
 326 75 326 75 326 0 c 128,-1,1
132 -512 m 2,92,-1
 10 -512 l 2,93,94
 0 -512 0 -512 0 -502 c 2,95,-1
 0 502 l 2,96,97
 0 512 0 512 10 512 c 2,98,-1
 132 512 l 2,99,100
 142 512 142 512 142 502 c 2,101,-1
 142 -502 l 2,102,103
 142 -512 142 -512 132 -512 c 2,92,-1
EndSplineSet
Validated: 1
EndChar

StartChar: uniE262
Encoding: 57954 57954 141
GlifName: uniE_262
Width: 254
VWidth: 921
Flags: W
VStem: 0 77<-215.649 -204 40.3511 52> 47 30<-387.995 -216 -94 40 162 333.995> 172 30<-338.995 -166 -43 90 213 382.995>
LayerCount: 2
Fore
SplineSet
232 225 m 1,0,1
 254 231 254 231 254 214 c 2,2,-1
 254 134 l 2,3,4
 254 122 254 122 235 115 c 2,5,-1
 202 102 l 1,6,-1
 202 -43 l 1,7,-1
 232 -31 l 1,8,9
 254 -25 254 -25 254 -42 c 2,10,-1
 254 -122 l 2,11,12
 254 -134 254 -134 235 -141 c 2,13,-1
 202 -154 l 1,14,-1
 202 -320 l 2,15,16
 202 -339 202 -339 187 -339 c 128,-1,17
 172 -339 172 -339 172 -320 c 2,18,-1
 172 -166 l 1,19,-1
 77 -204 l 1,20,-1
 77 -369 l 2,21,22
 77 -388 77 -388 62 -388 c 128,-1,23
 47 -388 47 -388 47 -369 c 2,24,-1
 47 -216 l 1,25,-1
 21 -227 l 2,26,27
 0 -236 0 -236 0 -215 c 2,28,-1
 0 -136 l 2,29,30
 0 -126 0 -126 18 -118 c 2,31,-1
 47 -106 l 1,32,-1
 47 40 l 1,33,-1
 21 29 l 2,34,35
 0 20 0 20 0 41 c 2,36,-1
 0 120 l 2,37,38
 0 130 0 130 18 138 c 2,39,-1
 47 150 l 1,40,-1
 47 315 l 2,41,42
 47 334 47 334 62 334 c 128,-1,43
 77 334 77 334 77 315 c 2,44,-1
 77 162 l 1,45,-1
 172 201 l 1,46,-1
 172 364 l 2,47,48
 172 383 172 383 187 383 c 128,-1,49
 202 383 202 383 202 364 c 2,50,-1
 202 213 l 1,51,-1
 232 225 l 1,0,1
77 52 m 1,52,-1
 77 -94 l 1,53,-1
 172 -55 l 1,54,-1
 172 90 l 1,55,-1
 77 52 l 1,52,-1
EndSplineSet
Validated: 1
EndChar

StartChar: uniE440
Encoding: 58432 58432 142
GlifName: uniE_440
Width: 201
Flags: W
HStem: 129 32<78.4741 159.5>
VStem: 0 41<124.199 222 278 336> 9 27<-146 97.1763 114 139.356> 133 101<-15.6233 121.762>
LayerCount: 2
Fore
SplineSet
38 79 m 1,0,-1
 36 -146 l 1,1,2
 69 -120 69 -120 101 -54.5 c 128,-1,3
 133 11 133 11 133 63 c 0,4,5
 133 88 133 88 125 108.5 c 128,-1,6
 117 129 117 129 98.5 129 c 128,-1,7
 80 129 80 129 66.5 117 c 128,-1,8
 53 105 53 105 38 79 c 1,0,-1
-141 302 m 0,9,10
 -147 320 -147 320 -131 325 c 1,11,-1
 -3 374 l 1,12,13
 -4 390 -4 390 -4 421 c 128,-1,14
 -4 452 -4 452 -5 467 c 0,15,16
 -5 482 -5 482 21.5 482 c 128,-1,17
 48 482 48 482 48 468 c 128,-1,18
 48 454 48 454 47 430 c 128,-1,19
 46 406 46 406 46 393 c 1,20,-1
 168 439 l 2,21,22
 186 445 186 445 191.5 428 c 128,-1,23
 197 411 197 411 181 406 c 1,24,-1
 46 354 l 1,25,-1
 44 278 l 1,26,27
 63 285 63 285 104 300 c 128,-1,28
 145 315 145 315 168 324 c 0,29,30
 175 326 175 326 182 323 c 128,-1,31
 189 320 189 320 191 313 c 0,32,33
 197 295 197 295 181 290 c 0,34,35
 67 247 67 247 44 238 c 1,36,37
 44 177 44 177 41 114 c 1,38,39
 66 139 66 139 86.5 150 c 128,-1,40
 107 161 107 161 142 161 c 128,-1,41
 177 161 177 161 205.5 129.5 c 128,-1,42
 234 98 234 98 234 50.5 c 128,-1,43
 234 3 234 3 182 -55 c 0,44,45
 160 -80 160 -80 110 -123.5 c 128,-1,46
 60 -167 60 -167 45.5 -181.5 c 128,-1,47
 31 -196 31 -196 28 -196 c 2,48,-1
 18 -196 l 2,49,50
 9 -196 9 -196 9 -184 c 2,51,-1
 0 222 l 1,52,53
 -38 207 -38 207 -118 177 c 0,54,55
 -136 171 -136 171 -141.5 188 c 128,-1,56
 -147 205 -147 205 -131 210 c 0,57,58
 -48 242 -48 242 0 260 c 1,59,-1
 -2 336 l 1,60,-1
 -118 291 l 2,61,62
 -125 289 -125 289 -132 292 c 128,-1,63
 -139 295 -139 295 -141 302 c 0,9,10
EndSplineSet
Validated: 1
EndChar

StartChar: uniE003
Encoding: 57347 57347 143
GlifName: uniE_003
Width: 466
Flags: W
HStem: 0 112<7.21973 163.359>
LayerCount: 2
Fore
SplineSet
450 389 m 0,0,1
 466 389 466 389 466 373 c 0,2,3
 466 368 466 368 463 364 c 128,-1,4
 460 360 460 360 422 302.5 c 128,-1,5
 384 245 384 245 365.5 217.5 c 128,-1,6
 347 190 347 190 303.5 137.5 c 128,-1,7
 260 85 260 85 230 61.5 c 128,-1,8
 200 38 200 38 158.5 19 c 128,-1,9
 117 0 117 0 75 0 c 2,10,-1
 0 0 l 1,11,-1
 0 87 l 2,12,13
 0 98 0 98 7 105 c 128,-1,14
 14 112 14 112 25 112 c 2,15,-1
 75 112 l 2,16,17
 187 112 187 112 283 198 c 0,18,19
 363 269 363 269 437 382 c 0,20,21
 441 389 441 389 450 389 c 0,0,1
EndSplineSet
Validated: 1
EndChar

StartChar: uniE5B0
Encoding: 58800 58800 144
GlifName: uniE_5B_0
Width: 469
Flags: W
HStem: 0 21G<182.25 192.75 395.25 405.75> 236 20G<110.25 120.75 323.25 333.75> 537 22<683.685 778.997>
LayerCount: 2
Fore
SplineSet
766 537 m 0,0,1
 672 537 672 537 633 498 c 128,-1,2
 594 459 594 459 571 338 c 128,-1,3
 548 217 548 217 498 129 c 1,4,-1
 417 9 l 2,5,6
 411 0 411 0 400.5 0 c 128,-1,7
 390 0 390 0 384 7 c 2,8,-1
 284 129 l 1,9,-1
 204 9 l 2,10,11
 198 0 198 0 187.5 0 c 128,-1,12
 177 0 177 0 171 7 c 2,13,-1
 70 129 l 1,14,-1
 38 81 l 2,15,16
 32 72 32 72 22.5 72 c 128,-1,17
 13 72 13 72 7 78 c 128,-1,18
 1 84 1 84 1 91 c 128,-1,19
 1 98 1 98 4 103 c 2,20,-1
 99 247 l 2,21,22
 105 256 105 256 115.5 256 c 128,-1,23
 126 256 126 256 132 249 c 2,24,-1
 232 127 l 1,25,-1
 312 247 l 2,26,27
 318 256 318 256 328.5 256 c 128,-1,28
 339 256 339 256 345 249 c 2,29,-1
 446 127 l 1,30,31
 507 222 507 222 543 392 c 0,32,33
 560 468 560 468 612 520 c 0,34,35
 651 559 651 559 766 559 c 0,36,37
 779 559 779 559 779 548 c 128,-1,38
 779 537 779 537 766 537 c 0,0,1
EndSplineSet
Validated: 1
EndChar

StartChar: uniE4C8
Encoding: 58568 58568 145
GlifName: uniE_4C_8
Width: 750
VWidth: 1000
Flags: W
HStem: 0 120<333.049 416.951> 150 75<160 590> 275 125<35 715>
VStem: 0 35<0.00415039 275> 125 35<0.00415039 150> 315 120<18.0487 101.951> 590 35<0.00415039 150> 715 35<0.00415039 275>
LayerCount: 2
Fore
SplineSet
315 60 m 128,-1,1
 315 85 315 85 332.5 102.5 c 128,-1,2
 350 120 350 120 375 120 c 128,-1,3
 400 120 400 120 417.5 102.5 c 128,-1,4
 435 85 435 85 435 60 c 128,-1,5
 435 35 435 35 417.5 17.5 c 128,-1,6
 400 0 400 0 375 0 c 128,-1,7
 350 0 350 0 332.5 17.5 c 128,-1,0
 315 35 315 35 315 60 c 128,-1,1
134 225 m 2,8,-1
 616 225 l 2,9,10
 625 225 625 225 625 216 c 2,11,-1
 625 17 l 2,12,13
 625 0 625 0 608 0 c 0,14,15
 590 0 590 0 590 17 c 2,16,-1
 590 150 l 1,17,-1
 160 150 l 1,18,-1
 160 17 l 2,19,20
 160 0 160 0 142 0 c 0,21,22
 125 0 125 0 125 17 c 2,23,-1
 125 216 l 2,24,25
 125 225 125 225 134 225 c 2,8,-1
9 400 m 2,26,-1
 741 400 l 2,27,28
 750 400 750 400 750 391 c 2,29,-1
 750 17 l 2,30,31
 750 0 750 0 733 0 c 0,32,33
 715 0 715 0 715 17 c 2,34,-1
 715 275 l 1,35,-1
 35 275 l 1,36,-1
 35 17 l 2,37,38
 35 0 35 0 17 0 c 0,39,40
 0 0 0 0 0 17 c 2,41,-1
 0 391 l 2,42,43
 0 400 0 400 9 400 c 2,26,-1
EndSplineSet
EndChar

StartChar: uniE242
Encoding: 57922 57922 146
GlifName: uniE_242
Width: 246
Flags: W
HStem: -20 20G<0 32>
VStem: 0 32<-512 -435 -299.082 -218 -84.2931 0> 160 43<-890.781 -836.359> 203 43<-819.302 -613.752 -528.421 -410.354>
LayerCount: 2
Fore
SplineSet
32 0 m 5,0,1
 32 -88.4666666667 32 -88.4666666667 106 -197 c 6,2,-1
 166 -285 l 5,3,4
 196 -326 196 -326 218 -378 c 132,-1,5
 240 -430 240 -430 240 -479 c 132,-1,6
 240 -528 240 -528 216 -579 c 5,7,8
 246 -640 246 -640 246 -698 c 4,9,10
 246 -800 246 -800 203 -886 c 4,11,12
 197 -898 197 -898 184.5 -898 c 4,13,14
 174 -898 174 -898 167 -891 c 132,-1,15
 160 -884 160 -884 160 -875 c 6,16,-1
 160 -870 l 5,17,18
 203 -785 203 -785 203 -698 c 4,19,20
 203 -630 203 -630 144 -554 c 4,21,22
 109 -509 109 -509 87.5 -487.5 c 132,-1,23
 66 -466 66 -466 32 -435 c 5,24,-1
 32 -512 l 5,25,-1
 0 -512 l 5,26,-1
 0 0 l 5,27,-1
 32 0 l 5,0,1
189 -529 m 5,28,29
 196 -508 196 -508 196 -477 c 4,30,31
 196 -414 196 -414 140 -337 c 5,32,33
 88 -272 88 -272 32 -218 c 5,34,35
 32 -289 32 -289 86 -380 c 4,36,37
 99 -402 99 -402 135.5 -451 c 132,-1,38
 172 -500 172 -500 189 -529 c 5,28,29
EndSplineSet
Validated: 1
EndChar

StartChar: uniE245
Encoding: 57925 57925 147
GlifName: uniE_245
Width: 307
Flags: W
VStem: 0 32<-256 -177.188 -41 48.8865 189 278.218 420 512> 243 43<135.894 264.494> 256 43<349.456 495.052> 264 43<579.587 737.413>
LayerCount: 2
Fore
SplineSet
32 -41 m 5,0,1
 74 -12 74 -12 102 9 c 4,2,3
 243 113 243 113 243 212 c 4,4,5
 243 238 243 238 232 265 c 5,6,7
 211 239 211 239 164 194.5 c 132,-1,8
 117 150 117 150 96 127 c 132,-1,9
 75 104 75 104 53.5 61 c 132,-1,10
 32 18 32 18 32 -26 c 6,11,-1
 32 -41 l 5,0,1
307 651 m 4,12,13
 307 592 307 592 269 534 c 5,14,15
 299 478 299 478 299 420.5 c 132,-1,16
 299 363 299 363 261 304 c 5,17,18
 286 258 286 258 286 210 c 132,-1,19
 286 162 286 162 260.5 111 c 132,-1,20
 235 60 235 60 196 18 c 6,21,-1
 122 -62 l 6,22,23
 32 -159 32 -159 32 -256 c 5,24,-1
 0 -256 l 5,25,-1
 0 512 l 5,26,-1
 32 512 l 5,27,-1
 32 420 l 5,28,29
 264 529 264 529 264 651 c 4,30,31
 264 678 264 678 250 714 c 5,32,-1
 250 718 l 6,33,34
 250 727 250 727 257 734 c 132,-1,35
 264 741 264 741 274 741 c 4,36,37
 307 741 307 741 307 651 c 4,12,13
32 189 m 5,38,39
 256 302 256 302 256 421 c 4,40,41
 256 457 256 457 238 496 c 5,42,43
 217 469 217 469 172.5 429 c 132,-1,44
 128 389 128 389 103 363.5 c 132,-1,45
 78 338 78 338 55 293.5 c 132,-1,46
 32 249 32 249 32 205 c 6,47,-1
 32 189 l 5,38,39
EndSplineSet
Validated: 1
EndChar

StartChar: uniE5E7
Encoding: 58855 58855 148
GlifName: uniE_5E_7
Width: 204
Flags: W
HStem: 0 31<67.0515 136.948> 225 31<67.0515 136.948>
VStem: 0 44<47.625 208.375> 160 44<47.625 208.375>
LayerCount: 2
Fore
SplineSet
204 128 m 128,-1,1
 204 77 204 77 176 38 c 0,2,3
 146 0 146 0 102 0 c 128,-1,4
 58 0 58 0 28 38 c 0,5,6
 0 77 0 77 0 128 c 128,-1,7
 0 179 0 179 28 218 c 0,8,9
 58 256 58 256 102 256 c 128,-1,10
 146 256 146 256 176 218 c 0,11,0
 204 179 204 179 204 128 c 128,-1,1
160 128 m 128,-1,13
 160 168 160 168 146 196 c 0,14,15
 133 225 133 225 102 225 c 128,-1,16
 71 225 71 225 58 196 c 0,17,18
 44 168 44 168 44 128 c 128,-1,19
 44 88 44 88 58 60 c 0,20,21
 71 31 71 31 102 31 c 128,-1,22
 133 31 133 31 146 60 c 0,23,12
 160 88 160 88 160 128 c 128,-1,13
EndSplineSet
Validated: 1
EndChar

StartChar: uniE4E6
Encoding: 58598 58598 149
GlifName: uniE_4E_6
Width: 256
Flags: W
HStem: 55 55<70 178.004>
VStem: -3 135.5<112.7 187.825> 74 56<-265.705 -236.049> 225 31<149.538 183.482>
LayerCount: 2
Fore
SplineSet
194 78 m 1,0,1
 130 55 130 55 90 55 c 128,-1,2
 50 55 50 55 23.5 77.5 c 128,-1,3
 -3 100 -3 100 -3 133.5 c 128,-1,4
 -3 167 -3 167 19 188.5 c 128,-1,5
 41 210 41 210 71 210 c 128,-1,6
 101 210 101 210 116 193 c 128,-1,7
 131 176 131 176 132.5 160.5 c 128,-1,8
 134 145 134 145 142 126 c 0,9,10
 151 110 151 110 163.5 110 c 128,-1,11
 176 110 176 110 197 133.5 c 128,-1,12
 218 157 218 157 225 170.5 c 128,-1,13
 232 184 232 184 242 183.5 c 128,-1,14
 252 183 252 183 256 174 c 1,15,-1
 130 -256 l 1,16,17
 120 -266 120 -266 102 -266 c 128,-1,18
 84 -266 84 -266 74 -256 c 1,19,-1
 194 78 l 1,0,1
EndSplineSet
Validated: 1
EndChar

StartChar: uniE612
Encoding: 58898 58898 150
GlifName: uniE_612
Width: 332
Flags: W
HStem: 0 21G<158 176>
LayerCount: 2
Fore
SplineSet
167 0 m 128,-1,1
 149 0 149 0 149 18 c 1,2,-1
 1 510 l 2,3,4
 0 512 0 512 0 517 c 0,5,6
 0 532 0 532 16.5 532 c 128,-1,7
 33 532 33 532 36 520 c 2,8,-1
 167 83 l 1,9,-1
 298 520 l 2,10,11
 301 532 301 532 317.5 532 c 128,-1,12
 334 532 334 532 334 517 c 0,13,14
 334 512 334 512 333 510 c 2,15,-1
 185 18 l 1,16,0
 185 0 185 0 167 0 c 128,-1,1
EndSplineSet
Validated: 1
EndChar

StartChar: uniE4C6
Encoding: 58566 58566 151
GlifName: uniE_4C_6
Width: 625
VWidth: 1000
Flags: W
HStem: 0 128<264.147 359.853> 277 98<34 590>
VStem: 0 34<0.00415039 277> 248 128<16.1472 111.853> 590 35<0.00415039 277>
LayerCount: 2
Fore
SplineSet
248 64 m 128,-1,1
 248 90 248 90 267 109 c 128,-1,2
 286 128 286 128 312 128 c 128,-1,3
 338 128 338 128 357 109 c 128,-1,4
 376 90 376 90 376 64 c 128,-1,5
 376 38 376 38 357 19 c 128,-1,6
 338 0 338 0 312 0 c 128,-1,7
 286 0 286 0 267 19 c 128,-1,0
 248 38 248 38 248 64 c 128,-1,1
8 375 m 2,8,-1
 616 375 l 2,9,10
 625 375 625 375 625 366 c 2,11,-1
 625 17 l 2,12,13
 625 0 625 0 607 0 c 0,14,15
 590 0 590 0 590 17 c 2,16,-1
 590 277 l 1,17,-1
 34 277 l 1,18,-1
 34 17 l 2,19,20
 34 0 34 0 17 0 c 128,-1,21
 0 0 0 0 0 17 c 2,22,-1
 0 366 l 2,23,24
 0 375 0 375 8 375 c 2,8,-1
EndSplineSet
EndChar

StartChar: uniE654
Encoding: 58964 58964 152
GlifName: uniE_654
Width: 70
Flags: W
HStem: 0 72<2.92456 69.0754>
VStem: 0 72<2.92456 69.0754>
LayerCount: 2
Fore
SplineSet
0 36 m 128,-1,1
 0 50 0 50 11 61 c 128,-1,2
 22 72 22 72 36 72 c 128,-1,3
 50 72 50 72 61 61 c 128,-1,4
 72 50 72 50 72 36 c 128,-1,5
 72 22 72 22 61 11 c 128,-1,6
 50 0 50 0 36 0 c 128,-1,7
 22 0 22 0 11 11 c 128,-1,0
 0 22 0 22 0 36 c 128,-1,1
EndSplineSet
Validated: 1
EndChar

StartChar: uniE631
Encoding: 58929 58929 153
GlifName: uniE_631
Width: 271
Flags: W
HStem: 0 33<80.1156 191.884> 238 33<79.1016 120 152 192.879>
VStem: 0 33<79.7155 191.622> 120 32<120.004 238 268.319 356.996> 239 33<79.7155 191.622>
CounterMasks: 1 38
LayerCount: 2
Fore
SplineSet
152 136 m 2,0,1
 152 120 152 120 136 120 c 128,-1,2
 120 120 120 120 120 136 c 2,3,-1
 120 238 l 1,4,5
 84 232 84 232 58.5 203.5 c 128,-1,6
 33 175 33 175 33 134 c 128,-1,7
 33 93 33 93 63 63 c 128,-1,8
 93 33 93 33 136 33 c 128,-1,9
 179 33 179 33 209 63 c 128,-1,10
 239 93 239 93 239 134 c 128,-1,11
 239 175 239 175 213.5 203.5 c 128,-1,12
 188 232 188 232 152 238 c 1,13,-1
 152 136 l 2,0,1
120 271 m 1,14,-1
 120 341 l 2,15,16
 120 357 120 357 136 357 c 128,-1,17
 152 357 152 357 152 341 c 2,18,-1
 152 271 l 1,19,20
 202 265 202 265 237 226 c 128,-1,21
 272 187 272 187 272 133 c 128,-1,22
 272 79 272 79 232.5 39.5 c 128,-1,23
 193 0 193 0 136 0 c 128,-1,24
 79 0 79 0 39.5 39.5 c 128,-1,25
 0 79 0 79 0 133 c 128,-1,26
 0 187 0 187 34 226 c 0,27,28
 70 265 70 265 120 271 c 1,14,-1
EndSplineSet
Validated: 1
EndChar

StartChar: uniE4AD
Encoding: 58541 58541 154
GlifName: uniE_4A_D_
Width: 256
Flags: W
HStem: -282 282
VStem: 231 25<-7 -0.0117188>
LayerCount: 2
Fore
SplineSet
243 0 m 0,0,1
 256 0 256 0 256 -12 c 0,2,3
 256 -17 256 -17 255 -18 c 2,4,-1
 139 -274 l 2,5,6
 136 -282 136 -282 128 -282 c 128,-1,7
 120 -282 120 -282 117 -274 c 2,8,-1
 1 -18 l 2,9,10
 0 -17 0 -17 0 -12 c 0,11,12
 0 0 0 0 13 0 c 2,13,-1
 81 0 l 2,14,15
 89 0 89 0 93 -7 c 2,16,-1
 163 -161 l 1,17,-1
 231 -7 l 2,18,19
 235 0 235 0 243 0 c 0,0,1
EndSplineSet
Validated: 1
EndChar

StartChar: uniE8C7
Encoding: 59591 59591 156
GlifName: uniE_8C_7
Width: 529
Flags: W
HStem: 0 24<-107.81 107.81> 256 24<-419 419> 512 24<-496 496> 768 24<-419 419> 1024 24<-107.172 107.172>
VStem: -528 32<400.262 512 536 643.107> 496 32<404.893 512 536 647.525>
LayerCount: 2
Fore
SplineSet
457 786 m 0,0,1
 528 665 528 665 528 523.5 c 128,-1,2
 528 382 528 382 457.5 260.5 c 128,-1,3
 387 139 387 139 264 70 c 0,4,5
 145 0 145 0 0 0 c 128,-1,6
 -145 0 -145 0 -264 70 c 0,7,8
 -387 139 -387 139 -457.5 260.5 c 128,-1,9
 -528 382 -528 382 -528 523.5 c 128,-1,10
 -528 665 -528 665 -457 786 c 0,11,12
 -388 906 -388 906 -265 977 c 128,-1,13
 -142 1048 -142 1048 0 1048 c 128,-1,14
 142 1048 142 1048 265 977 c 128,-1,15
 388 906 388 906 457 786 c 0,0,1
419 256 m 1,16,-1
 -419 256 l 1,17,18
 -352 151 -352 151 -241 87.5 c 128,-1,19
 -130 24 -130 24 0 24 c 128,-1,20
 130 24 130 24 241 87.5 c 128,-1,21
 352 151 352 151 419 256 c 1,16,-1
432 280 m 1,22,23
 491 392 491 392 496 512 c 1,24,-1
 -496 512 l 1,25,26
 -493 390 -493 390 -432 280 c 1,27,-1
 432 280 l 1,22,23
-432 768 m 1,28,29
 -491 656 -491 656 -496 536 c 1,30,-1
 496 536 l 1,31,32
 493 658 493 658 432 768 c 1,33,-1
 -432 768 l 1,28,29
-419 792 m 1,34,-1
 419 792 l 1,35,36
 352 897 352 897 241 960.5 c 128,-1,37
 130 1024 130 1024 -0 1024 c 128,-1,38
 -130 1024 -130 1024 -241 960.5 c 128,-1,39
 -352 897 -352 897 -419 792 c 1,34,-1
EndSplineSet
Validated: 1
EndChar

StartChar: uniE4C0
Encoding: 58560 58560 157
GlifName: uniE_4C_0
Width: 658
VWidth: 1000
Flags: W
HStem: -17 129<283.596 374.404> 264 97<222.383 435.617>
VStem: -1 35<-16.9834 63.7887> 264 130<2.0802 92.4043> 624 35<-16.9834 63.7887>
CounterMasks: 1 38
LayerCount: 2
Fore
SplineSet
264 47 m 128,-1,1
 264 74 264 74 283 93 c 128,-1,2
 302 112 302 112 329 112 c 128,-1,3
 356 112 356 112 375 93 c 128,-1,4
 394 74 394 74 394 47 c 128,-1,5
 394 20 394 20 375 1.5 c 128,-1,6
 356 -17 356 -17 329 -17 c 128,-1,7
 302 -17 302 -17 283 1.5 c 128,-1,0
 264 20 264 20 264 47 c 128,-1,1
329 361 m 128,-1,9
 389 361 389 361 441 336.5 c 128,-1,10
 493 312 493 312 527.5 274 c 128,-1,11
 562 236 562 236 589 192.5 c 128,-1,12
 616 149 616 149 630.5 107 c 128,-1,13
 645 65 645 65 652 36.5 c 128,-1,14
 659 8 659 8 659 -3 c 0,15,16
 659 -17 659 -17 642 -17 c 0,17,18
 627 -17 627 -17 624 0 c 0,19,20
 604 113 604 113 521.5 188.5 c 128,-1,21
 439 264 439 264 329 264 c 128,-1,22
 219 264 219 264 136.5 188.5 c 128,-1,23
 54 113 54 113 34 0 c 0,24,25
 31 -17 31 -17 16 -17 c 0,26,27
 -1 -17 -1 -17 -1 -3 c 0,28,29
 -1 8 -1 8 6 36.5 c 128,-1,30
 13 65 13 65 27.5 107 c 128,-1,31
 42 149 42 149 69 192.5 c 128,-1,32
 96 236 96 236 130.5 274 c 128,-1,33
 165 312 165 312 217 336.5 c 128,-1,8
 269 361 269 361 329 361 c 128,-1,9
EndSplineSet
EndChar

StartChar: uniE044
Encoding: 57412 57412 158
GlifName: uniE_044
Width: 116
Flags: W
HStem: -58 116<17.533 98.467>
VStem: 0 116<-40.467 40.467>
LayerCount: 2
Fore
SplineSet
0 0 m 128,-1,1
 0 24 0 24 17 41 c 128,-1,2
 34 58 34 58 58 58 c 128,-1,3
 82 58 82 58 99 41 c 128,-1,4
 116 24 116 24 116 0 c 128,-1,5
 116 -24 116 -24 99 -41 c 128,-1,6
 82 -58 82 -58 58 -58 c 128,-1,7
 34 -58 34 -58 17 -41 c 128,-1,0
 0 -24 0 -24 0 0 c 128,-1,1
EndSplineSet
EndChar

StartChar: uniE5E5
Encoding: 58853 58853 159
GlifName: uniE_5E_5
Width: 282
Flags: W
HStem: 0 21G<135.5 146.5> 115 52<0.236328 115 167 281.764>
VStem: 115 52<0.236328 115 167 281.764>
LayerCount: 2
Fore
SplineSet
141 0 m 128,-1,1
 130 0 130 0 122.5 8 c 128,-1,2
 115 16 115 16 115 26 c 2,3,-1
 115 115 l 1,4,-1
 26 115 l 2,5,6
 14 115 14 115 8 123 c 0,7,8
 0 130 0 130 0 141 c 128,-1,9
 0 152 0 152 8 159.5 c 128,-1,10
 16 167 16 167 26 167 c 2,11,-1
 115 167 l 1,12,-1
 115 256 l 2,13,14
 115 268 115 268 123 274 c 0,15,16
 130 282 130 282 141 282 c 128,-1,17
 152 282 152 282 159 274 c 0,18,19
 167 268 167 268 167 256 c 2,20,-1
 167 167 l 1,21,-1
 256 167 l 2,22,23
 268 167 268 167 274 159 c 0,24,25
 282 152 282 152 282 141 c 128,-1,26
 282 130 282 130 274 123 c 0,27,28
 268 115 268 115 256 115 c 2,29,-1
 167 115 l 1,30,-1
 167 26 l 2,31,32
 167 14 167 14 159 8 c 0,33,0
 152 0 152 0 141 0 c 128,-1,1
EndSplineSet
Validated: 1
EndChar

StartChar: uniEAAE
Encoding: 60078 60078 160
GlifName: uniE_A_A_E_
Width: 257
Flags: W
HStem: -61.5 325
LayerCount: 2
Fore
SplineSet
-63 162 m 2,0,-1
 -36 130 l 2,1,2
 -24 116 -24 116 -10 116 c 128,-1,3
 4 116 4 116 22 130 c 2,4,-1
 40 144 l 1,5,6
 52 156 52 156 56 158 c 1,7,-1
 12 252 l 2,8,9
 8 260 8 260 11.5 263.5 c 128,-1,10
 15 267 15 267 20 266 c 128,-1,11
 25 265 25 265 73 216 c 128,-1,12
 121 167 121 167 132 162 c 0,13,14
 194 134 194 134 220 108 c 0,15,16
 222 106 222 106 222.5 101.5 c 128,-1,17
 223 97 223 97 219 96 c 0,18,19
 192 89 192 89 133.5 40.5 c 128,-1,20
 75 -8 75 -8 50.5 -34 c 128,-1,21
 26 -60 26 -60 18 -61.5 c 128,-1,22
 10 -63 10 -63 10 -56 c 0,23,24
 10 -54 10 -54 13 -48 c 2,25,-1
 51 32 l 1,26,27
 26 38 26 38 7 52 c 1,28,-1
 -87 142 l 1,29,30
 -96 153 -96 153 -85 164 c 128,-1,31
 -74 175 -74 175 -63 162 c 2,0,-1
EndSplineSet
Validated: 1
EndChar

StartChar: uniE614
Encoding: 58900 58900 161
GlifName: uniE_614
Width: 272
Flags: W
HStem: 0 20<89.2129 182.787> 252 20<89.2129 182.787>
VStem: 0 20<89.2129 182.787> 252 20<89.2129 182.787>
LayerCount: 2
Fore
SplineSet
136 272 m 128,-1,1
 193 272 193 272 232.5 232.5 c 128,-1,2
 272 193 272 193 272 136 c 128,-1,3
 272 79 272 79 232.5 39.5 c 128,-1,4
 193 0 193 0 136 0 c 128,-1,5
 79 0 79 0 39.5 39.5 c 128,-1,6
 0 79 0 79 0 136 c 128,-1,7
 0 193 0 193 39.5 232.5 c 128,-1,0
 79 272 79 272 136 272 c 128,-1,1
136 252 m 128,-1,9
 88 252 88 252 54 218 c 128,-1,10
 20 184 20 184 20 136 c 128,-1,11
 20 88 20 88 54 54 c 128,-1,12
 88 20 88 20 136 20 c 128,-1,13
 184 20 184 20 218 54 c 128,-1,14
 252 88 252 88 252 136 c 128,-1,15
 252 184 252 184 218 218 c 128,-1,8
 184 252 184 252 136 252 c 128,-1,9
EndSplineSet
Validated: 1
EndChar

StartChar: uniE658
Encoding: 58968 58968 163
GlifName: uniE_658
Width: 214
Flags: W
VStem: 0 215
LayerCount: 2
Fore
SplineSet
127 169 m 1,0,-1
 52 173 l 1,1,2
 17 173 17 173 0 159 c 1,3,-1
 36 221 l 1,4,5
 52 234 52 234 88 236 c 1,6,-1
 163 231 l 1,7,8
 199 231 199 231 215 245 c 1,9,-1
 179 183 l 1,10,11
 162 169 162 169 127 169 c 1,0,-1
EndSplineSet
Validated: 1
EndChar

StartChar: uniE088
Encoding: 57480 57480 164
GlifName: uniE_088
Width: 375
Flags: W
HStem: -256 24<123.039 232.515> 232 24<153.18 258.94>
VStem: 0 46<-178.83 -52.8635> 15 104<112.186 186.253> 275 106<-181.72 -93.412> 315 44<76.2126 197.361>
LayerCount: 2
Fore
SplineSet
265 39 m 1,0,1
 315 94 315 94 315 139 c 128,-1,2
 315 184 315 184 280.5 208 c 128,-1,3
 246 232 246 232 203.5 232 c 128,-1,4
 161 232 161 232 140 210 c 128,-1,5
 119 188 119 188 119 156.5 c 128,-1,6
 119 125 119 125 150 106 c 2,7,-1
 265 39 l 1,0,1
64 215 m 128,-1,9
 113 256 113 256 187 256 c 128,-1,10
 261 256 261 256 310 226.5 c 128,-1,11
 359 197 359 197 359 143.5 c 128,-1,12
 359 90 359 90 296 22 c 1,13,14
 381 -27 381 -27 381 -109 c 0,15,16
 381 -170 381 -170 330 -213 c 128,-1,17
 279 -256 279 -256 194 -256 c 128,-1,18
 109 -256 109 -256 56 -216 c 0,19,20
 0 -176 0 -176 0 -113 c 0,21,22
 0 -90 0 -90 14 -66 c 0,23,24
 26 -39 26 -39 78 10 c 1,25,26
 15 54 15 54 15 114 c 128,-1,8
 15 174 15 174 64 215 c 128,-1,9
109 -8 m 1,27,28
 46 -64 46 -64 46 -114.5 c 128,-1,29
 46 -165 46 -165 87.5 -198.5 c 128,-1,30
 129 -232 129 -232 178.5 -232 c 128,-1,31
 228 -232 228 -232 251 -206 c 0,32,33
 275 -182 275 -182 275 -143 c 128,-1,34
 275 -104 275 -104 240 -84 c 2,35,-1
 109 -8 l 1,27,28
EndSplineSet
Validated: 1
EndChar

StartChar: uniE089
Encoding: 57481 57481 165
GlifName: uniE_089
Width: 348
Flags: W
HStem: -256 24<117.9 195.674> -30 24<135.661 210.077> 232 24<133.263 209.069>
VStem: 0 112<32.0765 192.909> 12 94<-209.569 -125.789> 228 120<-120.172 -16 1.97607 129.863>
LayerCount: 2
Fore
SplineSet
174 -6 m 128,-1,1
 212 -6 212 -6 221 24 c 0,2,3
 228 47 228 47 228 98 c 2,4,-1
 228 128 l 2,5,6
 228 180 228 180 221 202 c 0,7,8
 212 232 212 232 170.5 232 c 128,-1,9
 129 232 129 232 120.5 198.5 c 128,-1,10
 112 165 112 165 112 107 c 128,-1,11
 112 49 112 49 124 21.5 c 128,-1,0
 136 -6 136 -6 174 -6 c 128,-1,1
228 -16 m 1,12,13
 194 -30 194 -30 174 -30 c 0,14,15
 94 -30 94 -30 46 6 c 0,16,17
 0 43 0 43 0 112.5 c 128,-1,18
 0 182 0 182 46.5 219 c 128,-1,19
 93 256 93 256 174.5 256 c 128,-1,20
 256 256 256 256 302 180 c 128,-1,21
 348 104 348 104 348 1 c 128,-1,22
 348 -102 348 -102 294.5 -179 c 128,-1,23
 241 -256 241 -256 154 -256 c 0,24,25
 98 -256 98 -256 54 -227 c 0,26,27
 12 -198 12 -198 12 -151 c 0,28,29
 12 -122 12 -122 32 -103 c 0,30,31
 50 -83 50 -83 78 -83 c 128,-1,32
 106 -83 106 -83 126 -103 c 128,-1,33
 146 -123 146 -123 146 -151 c 0,34,35
 146 -162 146 -162 126 -176 c 0,36,37
 106 -188 106 -188 106 -201.5 c 128,-1,38
 106 -215 106 -215 120 -224 c 0,39,40
 136 -232 136 -232 154 -232 c 0,41,42
 200 -232 200 -232 215 -195 c 128,-1,43
 230 -158 230 -158 230 -90 c 0,44,45
 230 -70 230 -70 229 -53 c 128,-1,46
 228 -36 228 -36 228 -16 c 1,12,13
EndSplineSet
Validated: 1
EndChar

StartChar: uniE0A8
Encoding: 57512 57512 166
GlifName: uniE_0A_8
Width: 388
Flags: W
HStem: -144 288
LayerCount: 2
Fore
SplineSet
203 36 m 2,0,1
 198 33 198 33 194 33 c 128,-1,2
 190 33 190 33 185 36 c 2,3,-1
 80 113 l 1,4,-1
 41 84 l 1,5,-1
 138 12 l 1,6,7
 144 6 144 6 144 0 c 128,-1,8
 144 -6 144 -6 138 -12 c 1,9,-1
 41 -84 l 1,10,-1
 80 -113 l 1,11,-1
 185 -36 l 2,12,13
 190 -33 190 -33 194 -33 c 128,-1,14
 198 -33 198 -33 203 -36 c 2,15,-1
 308 -113 l 1,16,-1
 347 -84 l 1,17,-1
 250 -12 l 1,18,19
 244 -6 244 -6 244 0 c 128,-1,20
 244 6 244 6 250 12 c 1,21,-1
 347 84 l 1,22,-1
 308 113 l 1,23,-1
 203 36 l 2,0,1
194 67 m 1,24,-1
 299 144 l 2,25,26
 304 147 304 147 308 147 c 128,-1,27
 312 147 312 147 317 144 c 2,28,-1
 382 96 l 2,29,30
 388 92 388 92 388 84 c 128,-1,31
 388 76 388 76 382 72 c 2,32,-1
 285 0 l 1,33,-1
 382 -72 l 2,34,35
 388 -76 388 -76 388 -84 c 128,-1,36
 388 -92 388 -92 382 -96 c 2,37,-1
 317 -144 l 2,38,39
 312 -147 312 -147 308 -147 c 128,-1,40
 304 -147 304 -147 299 -144 c 2,41,-1
 194 -67 l 1,42,-1
 89 -144 l 2,43,44
 84 -147 84 -147 80 -147 c 128,-1,45
 76 -147 76 -147 71 -144 c 2,46,-1
 6 -96 l 2,47,48
 0 -92 0 -92 0 -84 c 128,-1,49
 0 -76 0 -76 6 -72 c 2,50,-1
 103 0 l 1,51,-1
 6 72 l 2,52,53
 0 76 0 76 0 84 c 128,-1,54
 0 92 0 92 6 96 c 2,55,-1
 71 144 l 2,56,57
 76 147 76 147 80 147 c 128,-1,58
 84 147 84 147 89 144 c 2,59,-1
 194 67 l 1,24,-1
EndSplineSet
Validated: 1
EndChar

StartChar: uniE0BE
Encoding: 57534 57534 167
GlifName: uniE_0B_E_
Width: 336
Flags: W
HStem: -115 231<141.875 196.062>
VStem: 0 337<-108.297 -58.7656>
LayerCount: 2
Fore
SplineSet
23 -115 m 2,0,1
 14 -115 14 -115 7 -108.5 c 128,-1,2
 0 -102 0 -102 0 -94 c 128,-1,3
 0 -86 0 -86 5 -79 c 2,4,-1
 151 106 l 2,5,6
 158 116 158 116 169 116 c 128,-1,7
 180 116 180 116 187 106 c 2,8,-1
 332 -79 l 2,9,10
 337 -86 337 -86 337 -94 c 128,-1,11
 337 -102 337 -102 330.5 -108.5 c 128,-1,12
 324 -115 324 -115 314 -115 c 2,13,-1
 23 -115 l 2,0,1
EndSplineSet
Validated: 1
EndChar

StartChar: uniE084
Encoding: 57476 57476 168
GlifName: uniE_084
Width: 409
Flags: W
HStem: -256 24<114.003 162.436 358.742 406.996> -128 30<30 201 321 408.966> 236 20G<148 156.5 306.5 315.5>
VStem: 201 120<-203.091 -128 -98 69.0312>
LayerCount: 2
Fore
SplineSet
281 250 m 128,-1,1
 302 257 302 257 311 257 c 128,-1,2
 320 257 320 257 323 246 c 0,3,4
 323 245 323 245 321 240 c 1,5,-1
 30 -98 l 1,6,-1
 201 -98 l 1,7,-1
 201 36 l 2,8,9
 201 61 201 61 230 72 c 0,10,11
 260 83 260 83 298 161 c 0,12,13
 301 167 301 167 307 167 c 0,14,15
 319 167 319 167 321 153 c 1,16,-1
 321 -98 l 1,17,-1
 394 -98 l 2,18,19
 408 -98 408 -98 409 -113 c 128,-1,20
 410 -128 410 -128 394 -128 c 2,21,-1
 321 -128 l 1,22,-1
 321 -136 l 2,23,24
 321 -176 321 -176 341 -204 c 0,25,26
 364 -232 364 -232 395 -232 c 0,27,28
 407 -232 407 -232 407 -244 c 128,-1,29
 407 -256 407 -256 390.5 -256 c 128,-1,30
 374 -256 374 -256 329 -249.5 c 128,-1,31
 284 -243 284 -243 259.5 -243 c 128,-1,32
 235 -243 235 -243 191.5 -249.5 c 128,-1,33
 148 -256 148 -256 126 -256 c 0,34,35
 114 -256 114 -256 114 -244 c 128,-1,36
 114 -232 114 -232 126 -232 c 0,37,38
 157 -232 157 -232 180 -204 c 0,39,40
 201 -175 201 -175 201 -136 c 2,41,-1
 201 -128 l 1,42,-1
 30 -128 l 2,43,44
 17 -128 17 -128 7.5 -121 c 128,-1,45
 -2 -114 -2 -114 -2 -108 c 128,-1,46
 -2 -102 -2 -102 23 -72 c 128,-1,47
 48 -42 48 -42 94.5 43.5 c 128,-1,48
 141 129 141 129 141 240 c 0,49,50
 141 256 141 256 155 256 c 0,51,52
 158 256 158 256 164.5 254 c 128,-1,53
 171 252 171 252 192.5 247.5 c 128,-1,54
 214 243 214 243 237 243 c 128,-1,0
 260 243 260 243 281 250 c 128,-1,1
EndSplineSet
Validated: 1
EndChar

StartChar: uniE8CA
Encoding: 59594 59594 169
GlifName: uniE_8C_A_
Width: 62
Flags: W
HStem: -63 126<-44.4353 44.4353>
VStem: -63 126<-44.4353 44.4353>
LayerCount: 2
Fore
SplineSet
-63 0 m 128,-1,1
 -63 27 -63 27 -45 45 c 128,-1,2
 -27 63 -27 63 0 63 c 128,-1,3
 27 63 27 63 45 45 c 128,-1,4
 63 27 63 27 63 0 c 128,-1,5
 63 -27 63 -27 45 -45 c 128,-1,6
 27 -63 27 -63 0 -63 c 128,-1,7
 -27 -63 -27 -63 -45 -45 c 128,-1,0
 -63 -27 -63 -27 -63 0 c 128,-1,1
EndSplineSet
Validated: 1
EndChar

StartChar: uniE275
Encoding: 57973 57973 170
GlifName: uniE_275
Width: 261
Flags: W
VStem: 0 85<-222.508 -207 39.4922 55> 46 39<-447 -223 -94 39 168 341.995> 174 87<-60 -45.3652 202 217.666> 174 40<-346.995 -173 -45 89 218 392.995>
LayerCount: 2
Fore
SplineSet
214 -328 m 2,0,1
 214 -347 214 -347 194 -347 c 128,-1,2
 174 -347 174 -347 174 -328 c 2,3,-1
 174 -173 l 1,4,-1
 85 -207 l 1,5,-1
 85 -447 l 1,6,7
 105 -439 105 -439 119 -430.5 c 128,-1,8
 133 -422 133 -422 138 -422 c 0,9,10
 153 -422 153 -422 153 -436 c 0,11,12
 153 -441 153 -441 148 -449 c 0,13,14
 100 -524 100 -524 81 -618 c 0,15,16
 77 -635 77 -635 65 -635 c 0,17,18
 63 -635 63 -635 57 -632 c 128,-1,19
 51 -629 51 -629 48 -615 c 0,20,21
 27 -519 27 -519 -18 -449 c 0,22,23
 -23 -439 -23 -439 -23 -436 c 0,24,25
 -23 -422 -23 -422 -9 -422 c 0,26,27
 -3 -422 -3 -422 14.5 -432.5 c 128,-1,28
 32 -443 32 -443 46 -449 c 1,29,-1
 46 -223 l 1,30,-1
 22 -232 l 2,31,32
 0 -241 0 -241 0 -220 c 2,33,-1
 0 -139 l 2,34,35
 0 -128 0 -128 18 -121 c 2,36,-1
 46 -110 l 1,37,-1
 46 39 l 1,38,-1
 22 30 l 2,39,40
 0 21 0 21 0 42 c 2,41,-1
 0 123 l 2,42,43
 0 134 0 134 18 142 c 1,44,-1
 46 152 l 1,45,-1
 46 322 l 2,46,47
 46 342 46 342 65.5 342 c 128,-1,48
 85 342 85 342 85 322 c 2,49,-1
 85 168 l 1,50,-1
 174 202 l 1,51,-1
 174 373 l 2,52,53
 174 393 174 393 194 393 c 128,-1,54
 214 393 214 393 214 373 c 2,55,-1
 214 218 l 1,56,-1
 239 227 l 1,57,58
 261 233 261 233 261 215 c 2,59,-1
 261 134 l 2,60,61
 261 120 261 120 241 114 c 1,62,-1
 214 104 l 1,63,-1
 214 -45 l 1,64,-1
 239 -35 l 1,65,66
 261 -29 261 -29 261 -47 c 2,67,-1
 261 -128 l 2,68,69
 261 -142 261 -142 241 -148 c 1,70,-1
 214 -159 l 1,71,-1
 214 -328 l 2,0,1
85 -94 m 1,72,-1
 174 -60 l 1,73,-1
 174 89 l 1,74,-1
 85 55 l 1,75,-1
 85 -94 l 1,72,-1
EndSplineSet
Validated: 1
EndChar

StartChar: uniE283
Encoding: 57987 57987 171
GlifName: uniE_283
Width: 371
Flags: W
VStem: 46 39<-396.995 -226 -103 36 159 341.995> 162 39<-369.995 -196 -73 66 189 368.995> 278 38<-346.995 -167 -44 95 218 391.995>
LayerCount: 2
Fore
SplineSet
85 -377 m 2,0,1
 85 -397 85 -397 65.5 -397 c 128,-1,2
 46 -397 46 -397 46 -377 c 2,3,-1
 46 -226 l 1,4,-1
 22 -232 l 2,5,6
 0 -238 0 -238 0 -220 c 2,7,-1
 0 -139 l 2,8,9
 0 -125 0 -125 18 -121 c 1,10,-1
 46 -113 l 1,11,-1
 46 36 l 1,12,-1
 22 30 l 2,13,14
 0 24 0 24 0 42 c 2,15,-1
 0 123 l 2,16,17
 0 138 0 138 18 142 c 1,18,-1
 46 150 l 1,19,-1
 46 322 l 2,20,21
 46 342 46 342 65.5 342 c 128,-1,22
 85 342 85 342 85 322 c 2,23,-1
 85 159 l 1,24,-1
 162 179 l 1,25,-1
 162 350 l 2,26,27
 162 369 162 369 181.5 369 c 128,-1,28
 201 369 201 369 201 350 c 2,29,-1
 201 189 l 1,30,-1
 278 208 l 1,31,-1
 278 372 l 2,32,33
 278 392 278 392 297 392 c 128,-1,34
 316 392 316 392 316 372 c 2,35,-1
 316 218 l 1,36,-1
 349 227 l 2,37,38
 371 233 371 233 371 215 c 2,39,-1
 371 134 l 2,40,41
 371 121 371 121 352 114 c 1,42,-1
 316 105 l 1,43,-1
 316 -44 l 1,44,-1
 349 -35 l 2,45,46
 371 -29 371 -29 371 -47 c 2,47,-1
 371 -128 l 2,48,49
 371 -141 371 -141 352 -148 c 1,50,-1
 316 -157 l 1,51,-1
 316 -328 l 2,52,53
 316 -347 316 -347 297 -347 c 128,-1,54
 278 -347 278 -347 278 -328 c 2,55,-1
 278 -167 l 1,56,-1
 201 -186 l 1,57,-1
 201 -350 l 2,58,59
 201 -370 201 -370 181.5 -370 c 128,-1,60
 162 -370 162 -370 162 -350 c 2,61,-1
 162 -196 l 1,62,-1
 85 -216 l 1,63,-1
 85 -377 l 2,0,1
278 -54 m 1,64,-1
 278 95 l 1,65,-1
 201 76 l 1,66,-1
 201 -73 l 1,67,-1
 278 -54 l 1,64,-1
85 -103 m 1,68,-1
 162 -84 l 1,69,-1
 162 66 l 1,70,-1
 85 46 l 1,71,-1
 85 -103 l 1,68,-1
EndSplineSet
Validated: 1
EndChar

StartChar: uniE080
Encoding: 57472 57472 172
GlifName: uniE_080
Width: 375
Flags: W
HStem: -256 30<151.508 224.492> 226 30<151.508 224.492>
VStem: 0 119<-123.795 123.795> 257 119<-123.795 123.795>
LayerCount: 2
Fore
SplineSet
188 226 m 128,-1,1
 144 226 144 226 130 170 c 0,2,3
 119 124 119 124 119 56 c 2,4,-1
 119 -56 l 2,5,6
 119 -124 119 -124 130 -170 c 0,7,8
 144 -226 144 -226 188 -226 c 128,-1,9
 232 -226 232 -226 246 -170 c 0,10,11
 257 -124 257 -124 257 -56 c 2,12,-1
 257 56 l 2,13,14
 257 124 257 124 246 170 c 0,15,0
 232 226 232 226 188 226 c 128,-1,1
188 256 m 128,-1,17
 273 256 273 256 324.5 180 c 128,-1,18
 376 104 376 104 376 0 c 128,-1,19
 376 -104 376 -104 324.5 -180 c 128,-1,20
 273 -256 273 -256 188 -256 c 128,-1,21
 103 -256 103 -256 51.5 -180 c 128,-1,22
 0 -104 0 -104 0 0 c 128,-1,23
 0 104 0 104 51.5 180 c 128,-1,16
 103 256 103 256 188 256 c 128,-1,17
EndSplineSet
Validated: 1
EndChar

StartChar: uniE081
Encoding: 57473 57473 173
GlifName: uniE_081
Width: 325
Flags: W
HStem: -256 24<33.0029 81.896 277.104 325.997> 237 20G<224.5 231.5>
VStem: -2 29<-21.8671 -12> 120 119<-203.091 133.998>
LayerCount: 2
Fore
SplineSet
147 251 m 128,-1,1
 166 243 166 243 179.5 243 c 128,-1,2
 193 243 193 243 208 250 c 128,-1,3
 223 257 223 257 226 257 c 0,4,5
 237 257 237 257 239 240 c 1,6,-1
 239 -136 l 2,7,8
 239 -175 239 -175 260 -204 c 0,9,10
 282 -232 282 -232 314 -232 c 0,11,12
 326 -232 326 -232 326 -244 c 128,-1,13
 326 -256 326 -256 314 -256 c 0,14,15
 285 -256 285 -256 244 -249.5 c 128,-1,16
 203 -243 203 -243 179 -243 c 128,-1,17
 155 -243 155 -243 111 -249.5 c 128,-1,18
 67 -256 67 -256 45 -256 c 0,19,20
 33 -256 33 -256 33 -244 c 128,-1,21
 33 -232 33 -232 45 -232 c 0,22,23
 77 -232 77 -232 99 -204 c 0,24,25
 120 -175 120 -175 120 -136 c 2,26,-1
 120 115 l 2,27,28
 120 120 120 120 115 127 c 128,-1,29
 110 134 110 134 102.5 134 c 128,-1,30
 95 134 95 134 92 127 c 2,31,-1
 27 -12 l 2,32,33
 23 -22 23 -22 15 -22 c 128,-1,34
 7 -22 7 -22 2.5 -17.5 c 128,-1,35
 -2 -13 -2 -13 -2 -9.5 c 128,-1,36
 -2 -6 -2 -6 0 0 c 2,37,-1
 120 256 l 2,38,39
 122 259 122 259 125 259 c 128,-1,0
 128 259 128 259 147 251 c 128,-1,1
EndSplineSet
Validated: 1
EndChar

StartChar: uniE249
Encoding: 57929 57929 174
GlifName: uniE_249
Width: 307
Flags: W
VStem: 0 32<-615 -514.597 -401 -296.861 -175 -75.9177 51 147.805 281 370.959 511 665> 204 43<-177.943 -60 -7.9375 94.582> 225 44<25.5664 152.648> 248 43<236.513 370.17 507.779 549> 256 43<437.313 548.421> 264 43<606.101 734.297>
LayerCount: 2
Fore
SplineSet
302 725 m 4,0,1
 307 708 307 708 307 667 c 132,-1,2
 307 626 307 626 288 592 c 5,3,4
 299 546 299 546 299 504 c 132,-1,5
 299 462 299 462 280 424 c 5,6,7
 291 367 291 367 291 316.5 c 132,-1,8
 291 266 291 266 265 216 c 5,9,10
 269 150 269 150 269 108 c 132,-1,11
 269 66 269 66 244 12 c 5,12,13
 247 -35 247 -35 247 -92.5 c 132,-1,14
 247 -150 247 -150 212.5 -221 c 132,-1,15
 178 -292 178 -292 140 -345 c 4,16,17
 104 -392 104 -392 68 -465 c 132,-1,18
 32 -538 32 -538 32 -606 c 6,19,-1
 32 -615 l 5,20,-1
 0 -615 l 5,21,-1
 0 665 l 5,22,-1
 32 665 l 5,23,-1
 32 511 l 5,24,25
 164 531 164 531 226 588 c 4,26,27
 264 623 264 623 264 666 c 4,28,29
 264 683 264 683 261 699 c 132,-1,30
 258 715 258 715 258 721.5 c 132,-1,31
 258 728 258 728 265 734.5 c 132,-1,32
 272 741 272 741 285 741 c 132,-1,33
 298 741 298 741 302 725 c 4,0,1
32 -401 m 5,34,35
 91 -331 91 -331 116.5 -298.5 c 132,-1,36
 142 -266 142 -266 173 -200.5 c 132,-1,37
 204 -135 204 -135 204 -84 c 6,38,-1
 204 -72 l 5,39,40
 203 -67 203 -67 203 -60 c 5,41,42
 191 -79 191 -79 145.5 -138.5 c 132,-1,43
 100 -198 100 -198 85.5 -218.5 c 132,-1,44
 71 -239 71 -239 51.5 -286.5 c 132,-1,45
 32 -334 32 -334 32 -379 c 6,46,-1
 32 -401 l 5,34,35
32 -175 m 5,47,48
 174 -46 174 -46 208 36 c 4,49,50
 225 77 225 77 225 117 c 6,51,-1
 225 154 l 5,52,53
 208 131 208 131 167 87 c 132,-1,54
 126 43 126 43 100.5 13 c 132,-1,55
 75 -17 75 -17 53.5 -63 c 132,-1,56
 32 -109 32 -109 32 -154 c 6,57,-1
 32 -175 l 5,47,48
32 51 m 5,58,59
 119 111 119 111 174 166 c 4,60,61
 248 240 248 240 248 320 c 4,62,63
 248 340 248 340 244 371 c 5,64,65
 223 346 223 346 170.5 296 c 132,-1,66
 118 246 118 246 108 235 c 4,67,68
 79 209 79 209 56 164 c 4,69,70
 32 121 32 121 32 76 c 6,71,-1
 32 51 l 5,58,59
32 281 m 5,72,73
 256 391 256 391 256 507 c 4,74,75
 256 532 256 532 252 549 c 5,76,77
 233 530 233 530 175 489 c 132,-1,78
 117 448 117 448 110 443 c 4,79,80
 79 420 79 420 55.5 384.5 c 132,-1,81
 32 349 32 349 32 307 c 6,82,-1
 32 281 l 5,72,73
EndSplineSet
Validated: 1
EndChar

StartChar: uniE4B2
Encoding: 58546 58546 175
GlifName: uniE_4B_2
Width: 308
Flags: W
HStem: 0 82<125.376 182.624> 192 36<5.67249 302.328>
VStem: 113 82<12.3762 69.6238>
LayerCount: 2
Fore
SplineSet
113 41 m 128,-1,1
 113 58 113 58 125 70 c 128,-1,2
 137 82 137 82 154 82 c 128,-1,3
 171 82 171 82 183 70 c 128,-1,4
 195 58 195 58 195 41 c 128,-1,5
 195 24 195 24 183 12 c 128,-1,6
 171 0 171 0 154 0 c 128,-1,7
 137 0 137 0 125 12 c 128,-1,0
 113 24 113 24 113 41 c 128,-1,1
289 228 m 2,8,9
 297 228 297 228 302.5 223 c 128,-1,10
 308 218 308 218 308 210 c 0,11,12
 308 192 308 192 289 192 c 2,13,-1
 19 192 l 2,14,15
 0 192 0 192 0 210 c 0,16,17
 0 218 0 218 5.5 223 c 128,-1,18
 11 228 11 228 19 228 c 2,19,-1
 289 228 l 2,8,9
EndSplineSet
Validated: 1
EndChar

StartChar: uniE4F2
Encoding: 58610 58610 176
GlifName: uniE_4F_2
Width: 256
Flags: W
HStem: 55 55<78.2498 186.5>
VStem: 123.5 135.5<112.7 187.825> 126 56<-265.648 -236.049>
LayerCount: 2
Fore
SplineSet
114 126 m 0,0,1
 122 145 122 145 123.5 160.5 c 128,-1,2
 125 176 125 176 140 193 c 128,-1,3
 155 210 155 210 185 210 c 128,-1,4
 215 210 215 210 237 188.5 c 128,-1,5
 259 167 259 167 259 133.5 c 128,-1,6
 259 100 259 100 232.5 77.5 c 128,-1,7
 206 55 206 55 167 55 c 128,-1,8
 128 55 128 55 62 78 c 1,9,-1
 182 -256 l 1,10,11
 172 -266 172 -266 154.5 -266 c 128,-1,12
 137 -266 137 -266 126 -256 c 1,13,-1
 0 174 l 1,14,15
 5 184 5 184 15 183 c 128,-1,16
 25 182 25 182 30.5 171 c 128,-1,17
 36 160 36 160 58 135 c 128,-1,18
 80 110 80 110 92.5 110 c 128,-1,19
 105 110 105 110 114 126 c 0,0,1
EndSplineSet
Validated: 1
EndChar

StartChar: uniEB7C
Encoding: 60284 60284 180
GlifName: uniE_B_7C_
Width: 256
Flags: W
HStem: 0 266
VStem: 118 20<0.00244141 65>
LayerCount: 2
Fore
SplineSet
128 0 m 128,-1,1
 118 0 118 0 118 10 c 0,2,3
 118 56 118 56 79 138 c 128,-1,4
 40 220 40 220 4 248 c 0,5,6
 0 251 0 251 0 256 c 0,7,8
 0 266 0 266 10 266 c 1,9,10
 20 262 20 262 65 257.5 c 128,-1,11
 110 253 110 253 132 253 c 128,-1,12
 154 253 154 253 194 257.5 c 128,-1,13
 234 262 234 262 238 264 c 128,-1,14
 242 266 242 266 246 266 c 0,15,16
 256 266 256 266 256 256 c 0,17,18
 256 251 256 251 252 248 c 0,19,20
 216 220 216 220 177 138 c 128,-1,21
 138 56 138 56 138 10 c 0,22,0
 138 0 138 0 128 0 c 128,-1,1
EndSplineSet
Validated: 1
EndChar

StartChar: uniE0B3
Encoding: 57523 57523 181
GlifName: uniE_0B_3
Width: 400
Flags: W
HStem: -177 38<118.583 282.738> 139 38<118.684 282.085>
VStem: 0 37<-63.3663 62.8214> 364 36<-63.6144 63.4041>
LayerCount: 2
Fore
SplineSet
342 -126 m 0,0,1
 282 -177 282 -177 199.5 -177 c 128,-1,2
 117 -177 117 -177 58.5 -125 c 128,-1,3
 0 -73 0 -73 0 0.5 c 128,-1,4
 0 74 0 74 58.5 125.5 c 128,-1,5
 117 177 117 177 200.5 177 c 128,-1,6
 284 177 284 177 342 126 c 128,-1,7
 400 75 400 75 400 1 c 128,-1,8
 400 -73 400 -73 342 -126 c 0,0,1
201 25 m 1,9,-1
 299 111 l 1,10,11
 255 139 255 139 201 139 c 128,-1,12
 147 139 147 139 101 111 c 1,13,-1
 201 25 l 1,9,-1
172 0 m 1,14,-1
 73 87 l 1,15,16
 37 48 37 48 37 0 c 128,-1,17
 37 -48 37 -48 73 -87 c 1,18,-1
 172 0 l 1,14,-1
228 0 m 1,19,-1
 329 -87 l 1,20,21
 364 -49 364 -49 364 0 c 128,-1,22
 364 49 364 49 329 87 c 1,23,-1
 228 0 l 1,19,-1
201 -25 m 1,24,-1
 101 -111 l 1,25,26
 147 -139 147 -139 201.5 -139 c 128,-1,27
 256 -139 256 -139 299 -111 c 1,28,-1
 201 -25 l 1,24,-1
EndSplineSet
Validated: 1
EndChar

StartChar: uniE270
Encoding: 57968 57968 182
GlifName: uniE_270
Width: 178
Flags: W
HStem: 129 32<53.6726 136>
VStem: -27 51<114 445> -15 31<-146 102.125 114 191.32> 110 101<-13.9644 121.638>
LayerCount: 2
Fore
SplineSet
16 79 m 1,0,-1
 13 -146 l 1,1,2
 45 -121 45 -121 77.5 -54 c 128,-1,3
 110 13 110 13 110 63 c 0,4,5
 110 129 110 129 76 129 c 0,6,7
 58 129 58 129 45 117.5 c 128,-1,8
 32 106 32 106 16 79 c 1,0,-1
24 445 m 1,9,-1
 18 114 l 1,10,11
 46 142 46 142 64 151.5 c 128,-1,12
 82 161 82 161 118 161 c 128,-1,13
 154 161 154 161 182.5 129.5 c 128,-1,14
 211 98 211 98 211 51 c 128,-1,15
 211 4 211 4 158 -55 c 0,16,17
 135 -80 135 -80 86 -124.5 c 128,-1,18
 37 -169 37 -169 24 -182 c 128,-1,19
 11 -195 11 -195 5 -195 c 2,20,-1
 -5 -195 l 2,21,22
 -15 -195 -15 -195 -15 -185 c 2,23,-1
 -27 445 l 1,24,25
 -45 438 -45 438 -60 428.5 c 128,-1,26
 -75 419 -75 419 -81 419 c 0,27,28
 -97 419 -97 419 -97 435 c 0,29,30
 -97 441 -97 441 -92 449 c 0,31,32
 -42 528 -42 528 -18 633 c 0,33,34
 -14 655 -14 655 0 655 c 128,-1,35
 14 655 14 655 18 637 c 0,36,37
 40 532 40 532 93 449 c 0,38,39
 98 439 98 439 98 435 c 0,40,41
 98 419 98 419 82 419 c 0,42,43
 75 419 75 419 64 425.5 c 128,-1,44
 53 432 53 432 24 445 c 1,9,-1
EndSplineSet
Validated: 1
EndChar

StartChar: uniE241
Encoding: 57921 57921 183
GlifName: uniE_241
Width: 307
Flags: W
HStem: 0 21G<0 32>
VStem: 0 32<0 84.6482> 264 43<444.399 642.31>
LayerCount: 2
Fore
SplineSet
233 741 m 4,0,1
 256 741 256 741 281.5 666.5 c 132,-1,2
 307 592 307 592 307 530 c 132,-1,3
 307 468 307 468 278.5 410 c 132,-1,4
 250 352 250 352 210 308 c 6,5,-1
 128 216 l 6,6,7
 90 172 90 172 61 115 c 132,-1,8
 32 58 32 58 32 0 c 5,9,-1
 0 0 l 5,10,-1
 0 256 l 5,11,-1
 32 256 l 5,12,13
 200 362 200 362 243 444 c 4,14,15
 264 484 264 484 264 525 c 4,16,17
 264 620 264 620 209 714 c 5,18,-1
 209 718 l 6,19,20
 209 727 209 727 216 734 c 132,-1,21
 223 741 223 741 233 741 c 4,0,1
EndSplineSet
Validated: 1
EndChar

StartChar: uniE087
Encoding: 57479 57479 184
GlifName: uniE_087
Width: 345
Flags: W
HStem: 0 21G<7.5 22.5> 105 94<170.5 275.875> 164 92<65.5667 140.075>
VStem: 0 30<0.00366211 145.433 212.065 255.967>
LayerCount: 2
Fore
SplineSet
40 -259 m 0,0,1
 27 -259 27 -259 27 -247 c 0,2,3
 27 -244 27 -244 28 -242 c 0,4,5
 89 -99 89 -99 249 122 c 1,6,7
 221 107 221 107 188 105 c 0,8,9
 153 105 153 105 122.5 134.5 c 128,-1,10
 92 164 92 164 73 164 c 128,-1,11
 54 164 54 164 42 146 c 128,-1,12
 30 128 30 128 30 92 c 2,13,-1
 30 15 l 2,14,15
 30 0 30 0 15 0 c 128,-1,16
 0 0 0 0 0 15 c 2,17,-1
 0 241 l 2,18,19
 0 256 0 256 14 256 c 128,-1,20
 28 256 28 256 30 241 c 1,21,-1
 30 226 l 2,22,23
 30 214 30 214 37 212 c 128,-1,24
 44 210 44 210 45 211 c 0,25,26
 78 256 78 256 122 256 c 128,-1,27
 166 256 166 256 198.5 227.5 c 128,-1,28
 231 199 231 199 255 199 c 0,29,30
 298 199 298 199 336 242 c 0,31,32
 348 256 348 256 353.5 256 c 128,-1,33
 359 256 359 256 364 251.5 c 128,-1,34
 369 247 369 247 369 243 c 128,-1,35
 369 239 369 239 343.5 199.5 c 128,-1,36
 318 160 318 160 285.5 108.5 c 128,-1,37
 253 57 253 57 230 -18 c 0,38,39
 204 -92 204 -92 204 -147 c 128,-1,40
 204 -202 204 -202 210 -226 c 0,41,42
 210 -234 210 -234 212 -244 c 1,43,-1
 212 -247 l 2,44,45
 212 -259 212 -259 199 -259 c 1,46,-1
 170 -251 l 2,47,48
 138 -243 138 -243 119 -243 c 128,-1,49
 100 -243 100 -243 70.5 -251 c 128,-1,50
 41 -259 41 -259 40 -259 c 0,0,1
EndSplineSet
Validated: 1
EndChar

StartChar: uniE460
Encoding: 58464 58464 185
GlifName: uniE_460
Width: 565
Flags: W
VStem: -15 59<-475 -141 -79 80>
LayerCount: 2
Fore
SplineSet
302 0 m 128,-1,1
 302 -9 302 -9 294 -14 c 2,2,-1
 44 -141 l 1,3,-1
 44 -460 l 2,4,5
 44 -475 44 -475 28 -475 c 2,6,-1
 0 -475 l 2,7,8
 -15 -475 -15 -475 -15 -460 c 2,9,-1
 -15 145 l 2,10,11
 -15 162 -15 162 -4 162 c 0,12,13
 0 162 0 162 8 159 c 2,14,-1
 294 14 l 2,15,0
 302 9 302 9 302 0 c 128,-1,1
44 -79 m 1,16,-1
 199 0 l 1,17,-1
 44 80 l 1,18,-1
 44 -79 l 1,16,-1
EndSplineSet
Validated: 1
EndChar

StartChar: uniE0BB
Encoding: 57531 57531 186
GlifName: uniE_0B_B_
Width: 506
Flags: W
HStem: -115 44<86 421>
LayerCount: 2
Fore
SplineSet
86 -71 m 1,0,-1
 421 -71 l 1,1,-1
 254 65 l 1,2,-1
 86 -71 l 1,0,-1
23 -115 m 2,3,4
 14 -115 14 -115 7 -108.5 c 128,-1,5
 0 -102 0 -102 0 -92 c 128,-1,6
 0 -82 0 -82 8 -76 c 2,7,-1
 240 111 l 2,8,9
 244 115 244 115 253.5 115 c 128,-1,10
 263 115 263 115 267 111 c 2,11,-1
 499 -76 l 2,12,13
 507 -82 507 -82 507 -92 c 128,-1,14
 507 -102 507 -102 500.5 -108.5 c 128,-1,15
 494 -115 494 -115 484 -115 c 2,16,-1
 23 -115 l 2,3,4
EndSplineSet
Validated: 1
EndChar

StartChar: uniE8C9
Encoding: 59593 59593 188
GlifName: uniE_8C_9
Width: 272
Flags: W
HStem: 0 34<-240 240> 256 34<-240 240> 512 34<-240 240> 768 34<-240 240>
VStem: -272 32<34 256 290 512 546 768> 240 32<34 256 290 512 546 768>
LayerCount: 2
Fore
SplineSet
256 802 m 2,0,1
 272 802 272 802 272 784 c 2,2,-1
 272 16 l 2,3,4
 272 0 272 0 256 0 c 2,5,-1
 -256 0 l 2,6,7
 -272 0 -272 0 -272 16 c 2,8,-1
 -272 784 l 2,9,10
 -272 802 -272 802 -256 802 c 2,11,-1
 256 802 l 2,0,1
240 768 m 1,12,-1
 -240 768 l 1,13,-1
 -240 546 l 1,14,-1
 240 546 l 1,15,-1
 240 768 l 1,12,-1
240 512 m 1,16,-1
 -240 512 l 1,17,-1
 -240 290 l 1,18,-1
 240 290 l 1,19,-1
 240 512 l 1,16,-1
240 256 m 1,20,-1
 -240 256 l 1,21,-1
 -240 34 l 1,22,-1
 240 34 l 1,23,-1
 240 256 l 1,20,-1
EndSplineSet
Validated: 1
EndChar

StartChar: uniEAAD
Encoding: 60077 60077 189
GlifName: uniE_A_A_D_
Width: 257
Flags: W
HStem: -62 328
VStem: -89 314
LayerCount: 2
Fore
SplineSet
-59 42 m 2,0,1
 -65 36 -65 36 -72.5 36 c 128,-1,2
 -80 36 -80 36 -84.5 41.5 c 128,-1,3
 -89 47 -89 47 -89 52.5 c 128,-1,4
 -89 58 -89 58 -83 64 c 2,5,-1
 11 152 l 2,6,7
 26 167 26 167 53 172 c 1,8,-1
 15 252 l 2,9,10
 12 257 12 257 13 260 c 0,11,12
 13 266 13 266 20 266 c 128,-1,13
 27 266 27 266 57 234 c 128,-1,14
 87 202 87 202 136.5 161 c 128,-1,15
 186 120 186 120 223 108 c 0,16,17
 225 108 225 108 225 102.5 c 128,-1,18
 225 97 225 97 223 96 c 0,19,20
 182 83 182 83 134.5 42.5 c 128,-1,21
 87 2 87 2 57 -30 c 128,-1,22
 27 -62 27 -62 20.5 -62 c 128,-1,23
 14 -62 14 -62 13.5 -59 c 128,-1,24
 13 -56 13 -56 15 -48 c 1,25,-1
 59 46 l 1,26,27
 58 47 58 47 55 49 c 128,-1,28
 52 51 52 51 49 53.5 c 128,-1,29
 46 56 46 56 43 58.5 c 128,-1,30
 40 61 40 61 35.5 65 c 128,-1,31
 31 69 31 69 28.5 71 c 128,-1,32
 26 73 26 73 25 74 c 0,33,34
 11 88 11 88 -5 88 c 128,-1,35
 -21 88 -21 88 -33 74 c 2,36,-1
 -59 42 l 2,0,1
EndSplineSet
Validated: 1
EndChar

StartChar: uniE085
Encoding: 57477 57477 190
GlifName: uniE_085
Width: 345
Flags: W
HStem: -256 24<107.404 201.73> 43 30<99.7045 205.662> 144 112<59 191.872>
VStem: 0 93<-202.749 -127> 30 29<29 143.559> 239 118<-169.961 0.382874>
LayerCount: 2
Fore
SplineSet
46 256 m 0,0,1
 54 256 54 256 63 253 c 1,2,3
 63 253 63 253 110 248 c 130,-1,4
 157 243 157 243 193 243 c 128,-1,5
 229 243 229 243 281.5 249.5 c 128,-1,6
 334 256 334 256 336 256 c 0,7,8
 349 256 349 256 349 247 c 0,9,10
 349 243 349 243 346 240 c 0,11,12
 252 146 252 146 77 144 c 0,13,14
 71 144 71 144 65 139 c 128,-1,15
 59 134 59 134 59 127 c 2,16,-1
 59 29 l 1,17,18
 103 73 103 73 167 73 c 0,19,20
 258 73 258 73 307.5 32 c 128,-1,21
 357 -9 357 -9 357 -85.5 c 128,-1,22
 357 -162 357 -162 301 -210 c 0,23,24
 244 -256 244 -256 171 -256 c 128,-1,25
 98 -256 98 -256 49 -225.5 c 128,-1,26
 0 -195 0 -195 0 -140 c 0,27,28
 0 -114 0 -114 20 -92 c 0,29,30
 41 -73 41 -73 68.5 -73 c 128,-1,31
 96 -73 96 -73 114 -93 c 0,32,33
 134 -112 134 -112 134 -140 c 0,34,35
 134 -153 134 -153 114 -168 c 0,36,37
 93 -182 93 -182 93 -195 c 0,38,39
 93 -232 93 -232 166 -232 c 128,-1,40
 239 -232 239 -232 239 -94.5 c 128,-1,41
 239 43 239 43 167 43 c 0,42,43
 102 43 102 43 76 17 c 0,44,45
 67 6 67 6 57.5 -1.5 c 128,-1,46
 48 -9 48 -9 45 -9 c 0,47,48
 30 -9 30 -9 30 6 c 2,49,-1
 30 240 l 2,50,51
 30 256 30 256 46 256 c 0,0,1
EndSplineSet
Validated: 1
EndChar

StartChar: uniE0DB
Encoding: 57563 57563 191
GlifName: uniE_0D_B_
Width: 377
Flags: W
HStem: -140 280
LayerCount: 2
Fore
SplineSet
193 140 m 1,0,-1
 266 128 l 1,1,2
 278 128 278 128 303 134.5 c 128,-1,3
 328 141 328 141 343 141 c 128,-1,4
 358 141 358 141 368 127.5 c 128,-1,5
 378 114 378 114 378 97.5 c 128,-1,6
 378 81 378 81 338 46 c 128,-1,7
 298 11 298 11 291 -1.5 c 128,-1,8
 284 -14 284 -14 264.5 -57 c 128,-1,9
 245 -100 245 -100 228 -120 c 128,-1,10
 211 -140 211 -140 184 -140 c 1,11,-1
 110 -128 l 1,12,13
 98 -128 98 -128 73.5 -134.5 c 128,-1,14
 49 -141 49 -141 34 -141 c 128,-1,15
 19 -141 19 -141 9 -128 c 0,16,17
 0 -113 0 -113 0 -101 c 0,18,19
 0 -79 0 -79 40 -45 c 128,-1,20
 80 -11 80 -11 90 6.5 c 128,-1,21
 100 24 100 24 112 55 c 0,22,23
 145 140 145 140 193 140 c 1,0,-1
EndSplineSet
Validated: 1
EndChar

StartChar: uniE4E4
Encoding: 58596 58596 192
GlifName: uniE_4E_4
Width: 384
Flags: W
HStem: 0 160<0 384>
LayerCount: 2
Fore
SplineSet
374 0 m 2,0,-1
 10 0 l 2,1,2
 0 0 0 0 0 10 c 2,3,-1
 0 150 l 2,4,5
 0 160 0 160 10 160 c 2,6,-1
 374 160 l 2,7,8
 384 160 384 160 384 150 c 2,9,-1
 384 10 l 2,10,11
 384 0 384 0 374 0 c 2,0,-1
EndSplineSet
Validated: 1
EndChar

StartChar: uniE006
Encoding: 57350 57350 193
GlifName: uniE_006
Width: 466
Flags: W
HStem: -112 112<299.692 458.78>
LayerCount: 2
Fore
SplineSet
16 -389 m 0,0,1
 0 -389 0 -389 0 -373 c 0,2,3
 0 -368 0 -368 4.5 -362 c 128,-1,4
 9 -356 9 -356 45.5 -300.5 c 128,-1,5
 82 -245 82 -245 100.5 -217.5 c 128,-1,6
 119 -190 119 -190 162.5 -137.5 c 128,-1,7
 206 -85 206 -85 236 -62 c 0,8,9
 315 -0 315 -0 391 0 c 2,10,-1
 466 0 l 1,11,-1
 466 -87 l 2,12,13
 466 -98 466 -98 459 -105 c 128,-1,14
 452 -112 452 -112 441 -112 c 2,15,-1
 391 -112 l 2,16,17
 279 -112 279 -112 183 -198 c 0,18,19
 103 -269 103 -269 29 -382 c 0,20,21
 25 -389 25 -389 16 -389 c 0,0,1
EndSplineSet
Validated: 1
EndChar

StartChar: uniE662
Encoding: 58978 58978 194
GlifName: uniE_662
Width: 256
Flags: W
HStem: 0 21G<14.5 23.5 232.5 241.5> 260 39<72.875 183.191>
VStem: 0 39<5.67249 225.879> 217 39<5.67249 225.721>
LayerCount: 2
Fore
SplineSet
128 260 m 128,-1,1
 91 260 91 260 65 234 c 128,-1,2
 39 208 39 208 39 171 c 2,3,-1
 39 19 l 2,4,5
 39 11 39 11 33.5 5.5 c 128,-1,6
 28 0 28 0 19 0 c 128,-1,7
 10 0 10 0 6 6 c 0,8,9
 0 10 0 10 0 19 c 2,10,-1
 0 171 l 2,11,12
 0 224 0 224 38 262 c 0,13,14
 77 299 77 299 129 299 c 128,-1,15
 181 299 181 299 218.5 261.5 c 128,-1,16
 256 224 256 224 256 171 c 2,17,-1
 256 19 l 2,18,19
 256 10 256 10 250 6 c 0,20,21
 246 0 246 0 237 0 c 128,-1,22
 228 0 228 0 222.5 5.5 c 128,-1,23
 217 11 217 11 217 19 c 2,24,-1
 217 171 l 2,25,26
 217 208 217 208 191 234 c 128,-1,0
 165 260 165 260 128 260 c 128,-1,1
EndSplineSet
Validated: 1
EndChar

StartChar: uniE661
Encoding: 58977 58977 195
GlifName: uniE_661
Width: 256
Flags: W
HStem: 0 39<72.3959 183.613>
VStem: 0 39<73.4375 293.328> 217 39<72.53 293.328>
LayerCount: 2
Fore
SplineSet
128 39 m 128,-1,1
 165 39 165 39 191 65 c 128,-1,2
 217 91 217 91 217 128 c 2,3,-1
 217 280 l 2,4,5
 217 287 217 287 222 294 c 0,6,7
 229 299 229 299 237 299 c 128,-1,8
 245 299 245 299 250.5 293.5 c 128,-1,9
 256 288 256 288 256 280 c 2,10,-1
 256 128 l 2,11,12
 256 73 256 73 218 38 c 0,13,14
 181 0 181 0 127 0 c 128,-1,15
 73 0 73 0 38 38 c 0,16,17
 0 75 0 75 0 128 c 2,18,-1
 0 280 l 2,19,20
 0 288 0 288 5.5 293.5 c 128,-1,21
 11 299 11 299 19 299 c 128,-1,22
 27 299 27 299 34 294 c 0,23,24
 39 287 39 287 39 280 c 2,25,-1
 39 128 l 2,26,27
 39 91 39 91 65 65 c 128,-1,0
 91 39 91 39 128 39 c 128,-1,1
EndSplineSet
Validated: 1
EndChar

StartChar: uniE521
Encoding: 58657 58657 196
GlifName: uniE_521
Width: 442
Flags: W
HStem: 0 21G<17.5 82 152 216.5> 226 61<60.2375 116.498 183.698 228.498 305.5 352.499>
VStem: 288 88<12.3195 92> 328 85<179.328 225.997>
LayerCount: 2
Fore
SplineSet
-14 138 m 2,0,1
 -14 138 -14 138 -14 140 c 1,2,3
 -11 147 -11 147 -4 169 c 128,-1,4
 3 191 3 191 37 239 c 128,-1,5
 71 287 71 287 116 287 c 0,6,7
 151 287 151 287 158 234 c 1,8,9
 193 287 193 287 235 287 c 0,10,11
 252 287 252 287 265 271 c 0,12,13
 277 254 277 254 280 232 c 1,14,15
 313 287 313 287 354 287 c 0,16,17
 377 287 377 287 395 267.5 c 128,-1,18
 413 248 413 248 413 222 c 0,19,20
 413 218 413 218 411 208 c 2,21,-1
 377 64 l 2,22,23
 376 63 376 63 376 57 c 128,-1,24
 376 51 376 51 384 51 c 128,-1,25
 392 51 392 51 414 68 c 2,26,-1
 436 85 l 1,27,28
 442 85 442 85 442 80.5 c 128,-1,29
 442 76 442 76 439 73 c 0,30,31
 392 28 392 28 369 12 c 128,-1,32
 346 -4 346 -4 325 -4 c 128,-1,33
 304 -4 304 -4 297 5 c 0,34,35
 288 12 288 12 288 21.5 c 128,-1,36
 288 31 288 31 289 36 c 2,37,-1
 326 195 l 2,38,39
 328 201 328 201 328 213.5 c 128,-1,40
 328 226 328 226 316 226 c 128,-1,41
 304 226 304 226 292 216 c 128,-1,42
 280 206 280 206 277 195 c 2,43,-1
 224 10 l 2,44,45
 221 0 221 0 212 0 c 2,46,-1
 157 0 l 2,47,48
 147 0 147 0 150 10 c 2,49,-1
 202 195 l 2,50,51
 205 204 205 204 205 210 c 0,52,53
 205 226 205 226 192.5 226 c 128,-1,54
 180 226 180 226 169 217 c 128,-1,55
 158 208 158 208 153 195 c 2,56,-1
 90 10 l 2,57,58
 87 0 87 0 77 0 c 2,59,-1
 22 0 l 2,60,61
 13 0 13 0 16 10 c 2,62,-1
 79 195 l 2,63,64
 82 206 82 206 82 209 c 0,65,66
 82 226 82 226 68 226 c 0,67,68
 48 226 48 226 30.5 196.5 c 128,-1,69
 13 167 13 167 5 141 c 0,70,71
 2 132 2 132 -8 132 c 0,72,73
 -14 134 -14 134 -14 138 c 2,0,1
EndSplineSet
Validated: 1
EndChar

StartChar: uniEB78
Encoding: 60280 60280 197
GlifName: uniE_B_78
Width: 256
Flags: W
HStem: 0 266
VStem: 118 20<201 265.998>
LayerCount: 2
Fore
SplineSet
128 266 m 128,-1,1
 138 266 138 266 138 256 c 0,2,3
 138 210 138 210 177 128 c 128,-1,4
 216 46 216 46 252 18 c 0,5,6
 256 15 256 15 256 10 c 0,7,8
 256 0 256 0 246 0 c 1,9,10
 236 4 236 4 191 8.5 c 128,-1,11
 146 13 146 13 124 13 c 128,-1,12
 102 13 102 13 62 8.5 c 128,-1,13
 22 4 22 4 18 2 c 128,-1,14
 14 0 14 0 10 0 c 0,15,16
 0 0 0 0 0 10 c 0,17,18
 0 15 0 15 4 18 c 0,19,20
 40 46 40 46 79 128 c 128,-1,21
 118 210 118 210 118 256 c 0,22,0
 118 266 118 266 128 266 c 128,-1,1
EndSplineSet
Validated: 1
EndChar

StartChar: uniE4C1
Encoding: 58561 58561 198
GlifName: uniE_4C_1
Width: 658
VWidth: 1000
Flags: W
HStem: -361 97<222.383 435.617> -112 129<283.596 374.404>
VStem: -1 35<-63.7887 16.9834> 264 130<-92.4043 -2.0802> 624 35<-63.7887 16.9834>
CounterMasks: 1 38
LayerCount: 2
Fore
SplineSet
264 -47 m 128,-1,1
 264 -20 264 -20 283 -1.5 c 128,-1,2
 302 17 302 17 329 17 c 128,-1,3
 356 17 356 17 375 -1.5 c 128,-1,4
 394 -20 394 -20 394 -47 c 128,-1,5
 394 -74 394 -74 375 -93 c 128,-1,6
 356 -112 356 -112 329 -112 c 128,-1,7
 302 -112 302 -112 283 -93 c 128,-1,0
 264 -74 264 -74 264 -47 c 128,-1,1
329 -361 m 128,-1,9
 269 -361 269 -361 217 -336.5 c 128,-1,10
 165 -312 165 -312 130.5 -274 c 128,-1,11
 96 -236 96 -236 69 -192.5 c 128,-1,12
 42 -149 42 -149 27.5 -107 c 128,-1,13
 13 -65 13 -65 6 -36.5 c 128,-1,14
 -1 -8 -1 -8 -1 3 c 0,15,16
 -1 17 -1 17 16 17 c 0,17,18
 31 17 31 17 34 0 c 0,19,20
 54 -113 54 -113 136.5 -188.5 c 128,-1,21
 219 -264 219 -264 329 -264 c 128,-1,22
 439 -264 439 -264 521.5 -188.5 c 128,-1,23
 604 -113 604 -113 624 0 c 0,24,25
 627 17 627 17 642 17 c 0,26,27
 659 17 659 17 659 3 c 0,28,29
 659 -8 659 -8 652 -36.5 c 128,-1,30
 645 -65 645 -65 630.5 -107 c 128,-1,31
 616 -149 616 -149 589 -192.5 c 128,-1,32
 562 -236 562 -236 527.5 -274 c 128,-1,33
 493 -312 493 -312 441 -336.5 c 128,-1,8
 389 -361 389 -361 329 -361 c 128,-1,9
EndSplineSet
EndChar

StartChar: uniE8C6
Encoding: 59590 59590 199
GlifName: uniE_8C_6
Width: 400
Flags: W
HStem: 0 24<-93.6667 93.6447> 256 24<-341 341> 512 24<-341 341> 768 24<-92.9744 92.9744>
VStem: -400 33<286.756 506.795> 367 33<286.364 506.865>
LayerCount: 2
Fore
SplineSet
0 792 m 128,-1,1
 164 792 164 792 282 675.5 c 128,-1,2
 400 559 400 559 400 394.5 c 128,-1,3
 400 230 400 230 283 116 c 0,4,5
 167 0 167 0 0 0 c 128,-1,6
 -167 0 -167 0 -283.5 116 c 128,-1,7
 -400 232 -400 232 -400 395.5 c 128,-1,8
 -400 559 -400 559 -282 675.5 c 128,-1,0
 -164 792 -164 792 0 792 c 128,-1,1
341 256 m 1,9,-1
 -341 256 l 1,10,11
 -302 156 -302 156 -208 88 c 0,12,13
 -114 24 -114 24 0 24 c 128,-1,14
 114 24 114 24 208 88 c 0,15,16
 302 156 302 156 341 256 c 1,9,-1
-349 512 m 1,17,18
 -367 455 -367 455 -367 393 c 128,-1,19
 -367 331 -367 331 -349 280 c 1,20,-1
 349 280 l 1,21,22
 367 337 367 337 367 399 c 128,-1,23
 367 461 367 461 349 512 c 1,24,-1
 -349 512 l 1,17,18
-341 536 m 1,25,-1
 341 536 l 1,26,27
 301 639 301 639 208 704 c 0,28,29
 114 768 114 768 0 768 c 128,-1,30
 -114 768 -114 768 -208 704 c 0,31,32
 -302 636 -302 636 -341 536 c 1,25,-1
EndSplineSet
Validated: 1
EndChar

StartChar: uniE0A7
Encoding: 57511 57511 200
GlifName: uniE_0A_7
Width: 439
Flags: W
HStem: -151 302
LayerCount: 2
Fore
SplineSet
228 45 m 2,0,1
 224 43 224 43 220 43 c 128,-1,2
 216 43 216 43 212 45 c 2,3,-1
 101 120 l 1,4,-1
 43 80 l 1,5,-1
 142 12 l 2,6,7
 150 6 150 6 150 0 c 128,-1,8
 150 -6 150 -6 142 -12 c 2,9,-1
 43 -80 l 1,10,-1
 101 -120 l 1,11,-1
 212 -45 l 2,12,13
 216 -43 216 -43 220 -43 c 128,-1,14
 224 -43 224 -43 228 -45 c 2,15,-1
 338 -120 l 1,16,-1
 396 -80 l 1,17,-1
 298 -12 l 2,18,19
 290 -6 290 -6 290 0 c 128,-1,20
 290 6 290 6 298 12 c 2,21,-1
 396 80 l 1,22,-1
 338 120 l 1,23,-1
 228 45 l 2,0,1
220 77 m 1,24,-1
 330 151 l 2,25,26
 333 154 333 154 338.5 154 c 128,-1,27
 344 154 344 154 347 151 c 2,28,-1
 432 93 l 2,29,30
 439 89 439 89 439 80.5 c 128,-1,31
 439 72 439 72 432 68 c 2,32,-1
 333 0 l 1,33,-1
 432 -68 l 2,34,35
 439 -72 439 -72 439 -80.5 c 128,-1,36
 439 -89 439 -89 432 -93 c 2,37,-1
 347 -151 l 2,38,39
 344 -154 344 -154 338.5 -154 c 128,-1,40
 333 -154 333 -154 330 -151 c 2,41,-1
 220 -77 l 1,42,-1
 110 -151 l 2,43,44
 107 -154 107 -154 101 -154 c 128,-1,45
 95 -154 95 -154 92 -151 c 2,46,-1
 7 -93 l 2,47,48
 0 -89 0 -89 0 -80.5 c 128,-1,49
 0 -72 0 -72 7 -68 c 2,50,-1
 106 0 l 1,51,-1
 7 68 l 2,52,53
 0 72 0 72 0 80.5 c 128,-1,54
 0 89 0 89 7 93 c 2,55,-1
 92 151 l 2,56,57
 95 154 95 154 100.5 154 c 128,-1,58
 106 154 106 154 110 151 c 2,59,-1
 220 77 l 1,24,-1
EndSplineSet
Validated: 1
EndChar

StartChar: uniE4CE
Encoding: 58574 58574 202
GlifName: uniE_4C_E_
Width: 118
Flags: W
HStem: 0 318<15 59>
VStem: 54 64<123.594 252.617>
LayerCount: 2
Fore
SplineSet
0 16 m 0,0,1
 0 18 0 18 13.5 39.5 c 128,-1,2
 27 61 27 61 40.5 96.5 c 128,-1,3
 54 132 54 132 54 171.5 c 128,-1,4
 54 211 54 211 37 241 c 0,5,6
 21 275 21 275 21 284.5 c 128,-1,7
 21 294 21 294 32 306 c 128,-1,8
 43 318 43 318 59 318 c 0,9,10
 87 318 87 318 102.5 284 c 128,-1,11
 118 250 118 250 118 217 c 0,12,13
 118 135 118 135 29 7 c 0,14,15
 25 0 25 0 15 0 c 0,16,17
 0 0 0 0 0 16 c 0,0,1
EndSplineSet
Validated: 1
EndChar

StartChar: uniE59D
Encoding: 58781 58781 205
GlifName: uniE_59D_
Width: 214
VWidth: 1023
Flags: W
HStem: 0 259
VStem: 3 260
LayerCount: 2
Fore
SplineSet
170 10 m 2,0,-1
 69 132 l 1,1,-1
 37 84 l 2,2,3
 31 75 31 75 21.5 75 c 128,-1,4
 12 75 12 75 6 81 c 128,-1,5
 0 87 0 87 0 94 c 128,-1,6
 0 101 0 101 3 106 c 2,7,-1
 98 249 l 2,8,9
 105 259 105 259 115 259 c 128,-1,10
 125 259 125 259 131 252 c 2,11,-1
 263 102 l 1,12,-1
 203 9 l 2,13,14
 197 0 197 0 187.5 0 c 128,-1,15
 178 0 178 0 170 10 c 2,0,-1
EndSplineSet
Validated: 1
EndChar

StartChar: uniE050
Encoding: 57424 57424 206
GlifName: uniE_050
Width: 641
Flags: W
HStem: -635 43<189.311 334.956> -533 198<146.469 234.981> -262 43<232.553 419.043> 151 112<288.657 333 401 473.963>
VStem: 0 74<-22.4645 150.689> 65 207<-498.324 -376.707> 173 60<-33.1558 97.7737> 198 48<667.697 896.987> 428 72<790.773 970.954> 429 41<-484.082 -254> 574 71<-106.694 48.5196>
LayerCount: 2
Fore
SplineSet
429 -329 m 1,0,-1
 429 -307 l 1,1,2
 428 -290 428 -290 424 -254 c 1,3,4
 374 -262 374 -262 335 -262 c 0,5,6
 195 -262 195 -262 97.5 -151.5 c 128,-1,7
 0 -41 0 -41 0 112 c 0,8,9
 0 153 0 153 16 210.5 c 128,-1,10
 32 268 32 268 45.5 287.5 c 128,-1,11
 59 307 59 307 86 356 c 0,12,13
 94 371 94 371 138 422 c 0,14,15
 146 433 146 433 152 440 c 128,-1,16
 158 447 158 447 171.5 465 c 128,-1,17
 185 483 185 483 200.5 498.5 c 128,-1,18
 216 514 216 514 228 528.5 c 128,-1,19
 240 543 240 543 250 553 c 1,20,21
 214 672 214 672 206 736 c 128,-1,22
 198 800 198 800 198 893 c 128,-1,23
 198 986 198 986 238 1062 c 0,24,25
 277 1141 277 1141 347 1191 c 0,26,27
 351 1194 351 1194 357.5 1194 c 128,-1,28
 364 1194 364 1194 367 1191 c 0,29,30
 421 1126 421 1126 460.5 1022 c 128,-1,31
 500 918 500 918 500 827.5 c 128,-1,32
 500 737 500 737 454 653 c 0,33,34
 402 564 402 564 320 469 c 1,35,36
 341 403 341 403 376 262 c 1,37,-1
 382 262 l 1,38,39
 386 263 386 263 389 263 c 0,40,41
 502 263 502 263 573.5 183.5 c 128,-1,42
 645 104 645 104 645 0 c 0,43,44
 645 -129 645 -129 538 -208 c 0,45,46
 507 -231 507 -231 465 -244 c 1,47,48
 470 -309 470 -309 470 -330.5 c 128,-1,49
 470 -352 470 -352 468 -407 c 0,50,51
 467 -501 467 -501 404 -568 c 128,-1,52
 341 -635 341 -635 260 -635 c 128,-1,53
 179 -635 179 -635 122 -577.5 c 128,-1,54
 65 -520 65 -520 65 -438 c 0,55,56
 65 -395 65 -395 98 -365 c 0,57,58
 132 -335 132 -335 174.5 -335 c 128,-1,59
 217 -335 217 -335 244 -366 c 0,60,61
 272 -395 272 -395 272 -436 c 128,-1,62
 272 -477 272 -477 244 -505 c 128,-1,63
 216 -533 216 -533 177 -533 c 0,64,65
 161 -533 161 -533 146 -527 c 1,66,67
 190 -592 190 -592 259 -592 c 128,-1,68
 328 -592 328 -592 377 -535 c 128,-1,69
 426 -478 426 -478 426 -401 c 1,70,-1
 429 -329 l 1,0,-1
461 -203 m 1,71,72
 513 -184 513 -184 543.5 -135.5 c 128,-1,73
 574 -87 574 -87 574 -39 c 0,74,75
 574 32 574 32 525 88 c 128,-1,76
 476 144 476 144 401 151 c 1,77,78
 444 -60 444 -60 461 -203 c 1,71,72
74 28 m 0,79,80
 74 -71 74 -71 153 -145 c 128,-1,81
 232 -219 232 -219 338 -219 c 0,82,83
 380 -219 380 -219 420 -213 c 1,84,85
 404 -61 404 -61 357 151 c 1,86,87
 298 145 298 145 265.5 110.5 c 128,-1,88
 233 76 233 76 233 32 c 0,89,90
 233 -44 233 -44 314 -91 c 0,91,92
 321 -95 321 -95 321 -104.5 c 128,-1,93
 321 -114 321 -114 314.5 -121 c 128,-1,94
 308 -128 308 -128 303 -128 c 128,-1,95
 298 -128 298 -128 290 -126 c 0,96,97
 173 -62 173 -62 173 67 c 0,98,99
 173 128 173 128 216 184 c 0,100,101
 261 240 261 240 333 256 c 1,102,103
 305 368 305 368 287 431 c 1,104,105
 150 277 150 277 117 203 c 0,106,107
 74 107 74 107 74 28 c 0,79,80
408 1045 m 1,108,109
 333 1008 333 1008 289.5 938 c 128,-1,110
 246 868 246 868 246 791 c 128,-1,111
 246 714 246 714 282 592 c 1,112,113
 354 679 354 679 391 755 c 128,-1,114
 428 831 428 831 428 905.5 c 128,-1,115
 428 980 428 980 408 1045 c 1,108,109
EndSplineSet
Validated: 1
EndChar

StartChar: uniE4EA
Encoding: 58602 58602 208
GlifName: uniE_4E_A_
Width: 384
Flags: W
HStem: -457 55<12.75 134.608> -201 55<64.5 184.64> 55 55<116.75 234.465> 311 55<166 270.561> 567 55<217.5 322.357>
VStem: -61 135<-400.231 -324.175> -10 135<-143.506 -68.1747> 42 134.5<112.494 187.825> 93 134<367.769 443.825> 145 136<623.769 699.825>
LayerCount: 2
Fore
SplineSet
337 590 m 1,0,1
 276 567 276 567 237 567 c 128,-1,2
 198 567 198 567 171.5 589.5 c 128,-1,3
 145 612 145 612 145 645.5 c 128,-1,4
 145 679 145 679 166.5 700.5 c 128,-1,5
 188 722 188 722 218 722 c 128,-1,6
 248 722 248 722 263.5 705.5 c 128,-1,7
 279 689 279 689 281 670 c 0,8,9
 286 622 286 622 312 622 c 0,10,11
 325 622 325 622 355 686 c 0,12,13
 360 696 360 696 370 695.5 c 128,-1,14
 380 695 380 695 384 686 c 1,15,-1
 141 -768 l 1,16,17
 131 -778 131 -778 113.5 -778 c 128,-1,18
 96 -778 96 -778 85 -768 c 1,19,-1
 147 -431 l 1,20,21
 75 -457 75 -457 33.5 -457 c 128,-1,22
 -8 -457 -8 -457 -34.5 -434.5 c 128,-1,23
 -61 -412 -61 -412 -61 -378.5 c 128,-1,24
 -61 -345 -61 -345 -39.5 -323.5 c 128,-1,25
 -18 -302 -18 -302 11.5 -302 c 128,-1,26
 41 -302 41 -302 56 -318.5 c 128,-1,27
 71 -335 71 -335 74 -352 c 0,28,29
 75 -371 75 -371 83 -386 c 0,30,31
 90 -402 90 -402 104 -402 c 128,-1,32
 118 -402 118 -402 142 -372 c 0,33,34
 166 -339 166 -339 167 -325 c 1,35,-1
 195 -176 l 1,36,37
 126 -201 126 -201 85 -201 c 128,-1,38
 44 -201 44 -201 16 -178 c 0,39,40
 -10 -155 -10 -155 -10 -122 c 128,-1,41
 -10 -89 -10 -89 11.5 -67.5 c 128,-1,42
 33 -46 33 -46 62.5 -46 c 128,-1,43
 92 -46 92 -46 107.5 -62.5 c 128,-1,44
 123 -79 123 -79 125 -98 c 0,45,46
 130 -146 130 -146 157 -146 c 0,47,48
 169 -146 169 -146 190 -117 c 128,-1,49
 211 -88 211 -88 214 -72 c 2,50,-1
 242 79 l 1,51,52
 179 55 179 55 137.5 55 c 128,-1,53
 96 55 96 55 68 78 c 0,54,55
 42 101 42 101 42 134 c 128,-1,56
 42 167 42 167 63.5 188.5 c 128,-1,57
 85 210 85 210 115 210 c 128,-1,58
 145 210 145 210 160 193 c 128,-1,59
 175 176 175 176 176.5 160.5 c 128,-1,60
 178 145 178 145 186 126 c 0,61,62
 195 110 195 110 207 110 c 128,-1,63
 219 110 219 110 239 138 c 0,64,65
 258 167 258 167 261 182 c 2,66,-1
 290 334 l 1,67,68
 226 311 226 311 186 311 c 128,-1,69
 146 311 146 311 119.5 333.5 c 128,-1,70
 93 356 93 356 93 389.5 c 128,-1,71
 93 423 93 423 114.5 444.5 c 128,-1,72
 136 466 136 466 166.5 466 c 128,-1,73
 197 466 197 466 211 449.5 c 128,-1,74
 225 433 225 433 227 416 c 128,-1,75
 229 399 229 399 238 382 c 0,76,77
 244 366 244 366 257 366 c 128,-1,78
 270 366 270 366 288 394 c 0,79,80
 305 422 305 422 308 435 c 2,81,-1
 337 590 l 1,0,1
EndSplineSet
Validated: 1
EndChar

StartChar: uniE4C7
Encoding: 58567 58567 210
GlifName: uniE_4C_7
Width: 625
VWidth: 1000
Flags: W
HStem: -375 98<34 590> -128 128<264.147 359.853>
VStem: 0 34<-277 -0.00415039> 248 128<-111.853 -16.1472> 590 35<-277 -0.00415039>
LayerCount: 2
Fore
SplineSet
248 -64 m 128,-1,1
 248 -38 248 -38 267 -19 c 128,-1,2
 286 0 286 0 312 0 c 128,-1,3
 338 0 338 0 357 -19 c 128,-1,4
 376 -38 376 -38 376 -64 c 128,-1,5
 376 -90 376 -90 357 -109 c 128,-1,6
 338 -128 338 -128 312 -128 c 128,-1,7
 286 -128 286 -128 267 -109 c 128,-1,0
 248 -90 248 -90 248 -64 c 128,-1,1
8 -375 m 2,8,9
 0 -375 0 -375 0 -366 c 2,10,-1
 0 -17 l 2,11,12
 0 0 0 0 17 0 c 128,-1,13
 34 0 34 0 34 -17 c 2,14,-1
 34 -277 l 1,15,-1
 590 -277 l 1,16,-1
 590 -17 l 2,17,18
 590 0 590 0 607 0 c 0,19,20
 625 0 625 0 625 -17 c 2,21,-1
 625 -366 l 2,22,23
 625 -375 625 -375 616 -375 c 2,24,-1
 8 -375 l 2,8,9
EndSplineSet
EndChar

StartChar: uniE524
Encoding: 58660 58660 211
GlifName: uniE_524
Width: 218
Flags: W
HStem: 0 15<48.7158 110.733> 270 13<127.319 164.6>
VStem: 1 40<17.7915 78.5635> 43 58<181.019 246.99> 139 58<36.3235 106.912> 169 49<200.01 267.172>
LayerCount: 2
Fore
SplineSet
169 246 m 0,0,1
 169 270 169 270 151 270 c 0,2,3
 129 270 129 270 115 253 c 128,-1,4
 101 236 101 236 101 217.5 c 128,-1,5
 101 199 101 199 116 186.5 c 128,-1,6
 131 174 131 174 149 163 c 128,-1,7
 167 152 167 152 182 133.5 c 128,-1,8
 197 115 197 115 197 93 c 0,9,10
 197 51 197 51 162.5 25.5 c 128,-1,11
 128 0 128 0 88.5 0 c 128,-1,12
 49 0 49 0 25 15 c 128,-1,13
 1 30 1 30 1 51 c 0,14,15
 1 96 1 96 31 96 c 0,16,17
 44 96 44 96 53 87 c 128,-1,18
 62 78 62 78 62 68.5 c 128,-1,19
 62 59 62 59 51.5 51 c 128,-1,20
 41 43 41 43 41 38 c 0,21,22
 41 15 41 15 80 15 c 0,23,24
 104 15 104 15 121.5 29.5 c 128,-1,25
 139 44 139 44 139 64 c 0,26,27
 139 97 139 97 91 126.5 c 128,-1,28
 43 156 43 156 43 186 c 0,29,30
 43 227 43 227 73 255 c 128,-1,31
 103 283 103 283 143.5 283 c 128,-1,32
 184 283 184 283 201 265 c 128,-1,33
 218 247 218 247 218 227.5 c 128,-1,34
 218 208 218 208 209.5 196.5 c 128,-1,35
 201 185 201 185 187.5 185.5 c 128,-1,36
 174 186 174 186 165 192 c 128,-1,37
 156 198 156 198 156 203 c 128,-1,38
 156 208 156 208 162.5 220.5 c 128,-1,39
 169 233 169 233 169 246 c 0,0,1
EndSplineSet
Validated: 1
EndChar

StartChar: uniE446
Encoding: 58438 58438 215
GlifName: uniE_446
Width: 291
Flags: W
VStem: 117 40<-375.995 -193 -106 -51 57 110 197 363.995>
LayerCount: 2
Fore
SplineSet
117 -193 m 1,0,-1
 73 -210 l 2,1,2
 51 -218 51 -218 51 -199 c 2,3,-1
 51 -158 l 2,4,5
 51 -148 51 -148 69 -140 c 2,6,-1
 117 -121 l 1,7,-1
 117 -51 l 1,8,-1
 21 -88 l 2,9,10
 0 -96 0 -96 0 -76 c 2,11,-1
 0 -15 l 2,12,13
 0 -4 0 -4 18 3 c 2,14,-1
 117 41 l 1,15,-1
 117 110 l 1,16,-1
 73 93 l 2,17,18
 51 85 51 85 51 104 c 2,19,-1
 51 145 l 2,20,21
 51 156 51 156 69 163 c 2,22,-1
 117 182 l 1,23,-1
 117 344 l 2,24,25
 117 364 117 364 137 364 c 128,-1,26
 157 364 157 364 157 344 c 2,27,-1
 157 197 l 1,28,-1
 208 218 l 1,29,30
 230 224 230 224 230 206 c 2,31,-1
 230 165 l 2,32,33
 230 154 230 154 210 146 c 2,34,-1
 157 125 l 1,35,-1
 157 57 l 1,36,-1
 269 100 l 1,37,38
 291 106 291 106 291 88 c 2,39,-1
 291 27 l 2,40,41
 291 15 291 15 272 8 c 2,42,-1
 157 -36 l 1,43,-1
 157 -106 l 1,44,-1
 208 -86 l 1,45,46
 230 -80 230 -80 230 -97 c 2,47,-1
 230 -138 l 2,48,49
 230 -149 230 -149 210 -157 c 2,50,-1
 157 -178 l 1,51,-1
 157 -356 l 2,52,53
 157 -376 157 -376 137 -376 c 128,-1,54
 117 -376 117 -376 117 -356 c 2,55,-1
 117 -193 l 1,0,-1
EndSplineSet
Validated: 1
EndChar

StartChar: uniE461
Encoding: 58465 58465 216
GlifName: uniE_461
Width: 868
Flags: W
VStem: -15 164<-192 -175 -155 -131 131 192> 90 59<-364 -155 -69 69 155 338> 220 59<-338 -103 -17 17 103 364>
LayerCount: 2
Fore
SplineSet
452 0 m 128,-1,1
 452 -9 452 -9 444 -14 c 1,2,-1
 279 -80 l 1,3,-1
 279 -322 l 2,4,5
 279 -338 279 -338 264 -338 c 2,6,-1
 234 -338 l 2,7,8
 220 -338 220 -338 220 -322 c 2,9,-1
 220 -103 l 1,10,-1
 149 -131 l 1,11,-1
 149 -349 l 2,12,13
 149 -364 149 -364 134 -364 c 2,14,-1
 104 -364 l 2,15,16
 90 -364 90 -364 90 -349 c 2,17,-1
 90 -155 l 1,18,-1
 6 -189 l 2,19,20
 -1 -192 -1 -192 -5 -192 c 0,21,22
 -15 -192 -15 -192 -15 -175 c 2,23,-1
 -15 -146 l 2,24,25
 -15 -135 -15 -135 -6 -132 c 2,26,-1
 90 -93 l 1,27,-1
 90 93 l 1,28,-1
 -5 131 l 2,29,30
 -15 134 -15 134 -15 144 c 2,31,-1
 -15 175 l 2,32,33
 -15 192 -15 192 -5 192 c 0,34,35
 -1 192 -1 192 6 189 c 2,36,-1
 90 155 l 1,37,-1
 90 324 l 2,38,39
 90 338 90 338 104 338 c 2,40,-1
 134 338 l 2,41,42
 149 338 149 338 149 324 c 2,43,-1
 149 131 l 1,44,-1
 220 103 l 1,45,-1
 220 349 l 2,46,47
 220 364 220 364 234 364 c 2,48,-1
 264 364 l 2,49,50
 279 364 279 364 279 349 c 2,51,-1
 279 79 l 1,52,-1
 444 14 l 1,53,0
 452 9 452 9 452 0 c 128,-1,1
149 -69 m 1,54,-1
 220 -41 l 1,55,-1
 220 41 l 1,56,-1
 149 69 l 1,57,-1
 149 -69 l 1,54,-1
279 -17 m 1,58,-1
 322 0 l 1,59,-1
 279 17 l 1,60,-1
 279 -17 l 1,58,-1
EndSplineSet
Validated: 1
EndChar

StartChar: uniE049
Encoding: 57417 57417 217
GlifName: uniE_049
Width: 536
Flags: W
HStem: -1 21G<272 280> 104 31<195 261 291 357> 345 30<1.00122 105 195 261 291 357 447 550.999> 585 31<195 261 291 357>
VStem: 105 90<135 345 375 585> 261 30<-0.998779 104 135 345 375 585 616 720.999> 357 90<135 345 375 585>
CounterMasks: 1 0e
LayerCount: 2
Fore
SplineSet
291 14 m 2,0,1
 291 6 291 6 286 4 c 0,2,3
 284 -1 284 -1 276 -1 c 128,-1,4
 268 -1 268 -1 266 4 c 0,5,6
 261 6 261 6 261 14 c 2,7,-1
 261 104 l 1,8,-1
 115 104 l 2,9,10
 105 104 105 104 105 114 c 2,11,-1
 105 345 l 1,12,-1
 16 345 l 2,13,14
 8 345 8 345 6 350 c 0,15,16
 1 352 1 352 1 360 c 128,-1,17
 1 368 1 368 6 370 c 0,18,19
 8 375 8 375 16 375 c 2,20,-1
 105 375 l 1,21,-1
 105 606 l 2,22,23
 105 616 105 616 115 616 c 2,24,-1
 261 616 l 1,25,-1
 261 706 l 2,26,27
 261 714 261 714 266 716 c 0,28,29
 268 721 268 721 276 721 c 128,-1,30
 284 721 284 721 286 716 c 0,31,32
 291 714 291 714 291 706 c 2,33,-1
 291 616 l 1,34,-1
 437 616 l 2,35,36
 447 616 447 616 447 606 c 2,37,-1
 447 375 l 1,38,-1
 536 375 l 2,39,40
 544 375 544 375 546 370 c 0,41,42
 551 368 551 368 551 360 c 128,-1,43
 551 352 551 352 546 350 c 0,44,45
 544 345 544 345 536 345 c 2,46,-1
 447 345 l 1,47,-1
 447 114 l 2,48,49
 447 104 447 104 437 104 c 2,50,-1
 291 104 l 1,51,-1
 291 14 l 2,0,1
291 375 m 1,52,-1
 357 375 l 1,53,-1
 357 585 l 1,54,-1
 291 585 l 1,55,-1
 291 375 l 1,52,-1
291 345 m 1,56,-1
 291 135 l 1,57,-1
 357 135 l 1,58,-1
 357 345 l 1,59,-1
 291 345 l 1,56,-1
261 375 m 1,60,-1
 261 585 l 1,61,-1
 195 585 l 1,62,-1
 195 375 l 1,63,-1
 261 375 l 1,60,-1
261 345 m 1,64,-1
 195 345 l 1,65,-1
 195 135 l 1,66,-1
 261 135 l 1,67,-1
 261 345 l 1,64,-1
EndSplineSet
Validated: 1
EndChar

StartChar: uniE630
Encoding: 58928 58928 218
GlifName: uniE_630
Width: 271
Flags: W
HStem: 0 33<80.1156 191.884> 238 33<79.1016 120 152 192.879>
VStem: 0 33<79.7155 191.622> 120 32<120.004 238 268.319 356.996> 239 33<79.7155 191.622>
CounterMasks: 1 38
LayerCount: 2
Fore
SplineSet
152 136 m 2,0,1
 152 120 152 120 136 120 c 128,-1,2
 120 120 120 120 120 136 c 2,3,-1
 120 238 l 1,4,5
 84 232 84 232 58.5 203.5 c 128,-1,6
 33 175 33 175 33 134 c 128,-1,7
 33 93 33 93 63 63 c 128,-1,8
 93 33 93 33 136 33 c 128,-1,9
 179 33 179 33 209 63 c 128,-1,10
 239 93 239 93 239 134 c 128,-1,11
 239 175 239 175 213.5 203.5 c 128,-1,12
 188 232 188 232 152 238 c 1,13,-1
 152 136 l 2,0,1
120 271 m 1,14,-1
 120 341 l 2,15,16
 120 357 120 357 136 357 c 128,-1,17
 152 357 152 357 152 341 c 2,18,-1
 152 271 l 1,19,20
 202 265 202 265 237 226 c 128,-1,21
 272 187 272 187 272 133 c 128,-1,22
 272 79 272 79 232.5 39.5 c 128,-1,23
 193 0 193 0 136 0 c 128,-1,24
 79 0 79 0 39.5 39.5 c 128,-1,25
 0 79 0 79 0 133 c 128,-1,26
 0 187 0 187 34 226 c 0,27,28
 70 265 70 265 120 271 c 1,14,-1
EndSplineSet
Validated: 1
EndChar

StartChar: uniE260
Encoding: 57952 57952 219
GlifName: uniE_260
Width: 192
Flags: W
HStem: 126 31<73.4248 151.25>
VStem: -4 47<145.088 470.985> 9 25<-150 95.78 109 170.681> 126 99<-13.1051 118.294>
LayerCount: 2
Fore
SplineSet
9 -180 m 2,0,-1
 -4 456 l 2,1,2
 -4 471 -4 471 19.5 471 c 128,-1,3
 43 471 43 471 43 456 c 2,4,-1
 35 109 l 1,5,6
 62 136 62 136 81.5 146.5 c 128,-1,7
 101 157 101 157 134.5 157 c 128,-1,8
 168 157 168 157 196.5 126 c 128,-1,9
 225 95 225 95 225 49 c 0,10,11
 225 -20 225 -20 80 -142 c 0,12,13
 26 -191 26 -191 24 -191 c 2,14,-1
 18 -191 l 2,15,16
 9 -191 9 -191 9 -180 c 2,0,-1
34 77 m 1,17,-1
 31 -150 l 1,18,19
 62 -121 62 -121 94 -53.5 c 128,-1,20
 126 14 126 14 126 62 c 0,21,22
 126 86 126 86 118 106 c 128,-1,23
 110 126 110 126 93 126 c 128,-1,24
 76 126 76 126 62.5 114 c 128,-1,25
 49 102 49 102 34 77 c 1,17,-1
EndSplineSet
Validated: 1
EndChar

StartChar: uniE244
Encoding: 57924 57924 220
GlifName: uniE_244
Width: 246
Flags: W
VStem: 0 32<-567 -462 -324.249 -239 -104.875 -16 112.979 201> 186 44<-317.617 -197.884> 203 43<-821.457 -625.413 -540.249 -419.543>
LayerCount: 2
Fore
SplineSet
32 -16 m 5,0,-1
 32 -21 l 6,1,2
 32 -65 32 -65 49.5 -109 c 4,3,4
 69 -159 69 -159 87.5 -183.5 c 4,5,6
 109 -213 109 -213 134 -249 c 4,7,8
 167 -297 167 -297 182 -318 c 5,9,10
 186 -305 186 -305 186 -284 c 4,11,12
 186 -240 186 -240 157.5 -184 c 132,-1,13
 129 -128 129 -128 98 -90.5 c 132,-1,14
 67 -53 67 -53 32 -16 c 5,0,-1
32 201 m 5,15,16
 32 111.620689655 32 111.620689655 102 3 c 6,17,-1
 160 -87 l 5,18,19
 230 -192 230 -192 230 -284 c 4,20,21
 230 -325 230 -325 210 -368 c 5,22,23
 240 -429 240 -429 240 -483 c 132,-1,24
 240 -537 240 -537 215 -591 c 5,25,26
 246 -649 246 -649 246 -707 c 4,27,28
 246 -806 246 -806 203 -886 c 4,29,30
 196 -899 196 -899 185 -899 c 132,-1,31
 174 -899 174 -899 167 -891 c 132,-1,32
 160 -883 160 -883 160 -875 c 6,33,-1
 160 -871 l 5,34,35
 203 -789 203 -789 203 -707 c 4,36,37
 203 -644 203 -644 154.5 -583.5 c 132,-1,38
 106 -523 106 -523 32 -462 c 5,39,-1
 32 -567 l 5,40,-1
 0 -567 l 5,41,-1
 0 201 l 5,42,-1
 32 201 l 5,15,16
32 -239 m 5,43,-1
 32 -244 l 6,44,45
 32 -283 32 -283 49.5 -328.5 c 132,-1,46
 67 -374 67 -374 78 -390.5 c 132,-1,47
 89 -407 89 -407 131.5 -464.5 c 132,-1,48
 174 -522 174 -522 187 -541 c 5,49,50
 196 -513 196 -513 196 -477 c 132,-1,51
 196 -441 196 -441 168.5 -393 c 132,-1,52
 141 -345 141 -345 108.5 -311 c 132,-1,53
 76 -277 76 -277 32 -239 c 5,43,-1
EndSplineSet
Validated: 1
EndChar

